SeanSlab-NarrowSemibold.ufo
<glyph name="exclam" format="1">
  <advance width="263"/>
  <unicode hex="0021"/>
  <outline>
    <contour>
      <point x="180" y="229" type="line"/>
      <point x="190" y="722" type="line"/>
      <point x="74" y="722" type="line"/>
      <point x="83" y="229" type="line"/>
    </contour>
    <contour>
      <point x="190" y="45" type="curve"/>
      <point x="190" y="80"/>
      <point x="165" y="98"/>
      <point x="131" y="98" type="curve"/>
      <point x="97" y="98"/>
      <point x="75" y="79"/>
      <point x="75" y="45" type="curve"/>
      <point x="187" y="45"/>
      <point x="77" y="45"/>
      <point x="190" y="45" type="curve"/>
      <point x="190" y="9"/>
      <point x="165" y="-8"/>
      <point x="131" y="-8" type="curve"/>
      <point x="96" y="-8"/>
      <point x="75" y="10"/>
      <point x="75" y="45" type="curve"/>
      <point x="187" y="45"/>
      <point x="77" y="45"/>
    </contour>
  </outline>
</glyph>
<glyph name="quotedbl" format="1">
  <advance width="429"/>
  <unicode hex="0022"/>
  <outline>
    <contour>
      <point x="168" y="603" type="line"/>
      <point x="176" y="814" type="line"/>
      <point x="67" y="814" type="line"/>
      <point x="74" y="603" type="line"/>
    </contour>
    <contour>
      <point x="354" y="603" type="line"/>
      <point x="362" y="814" type="line"/>
      <point x="253" y="814" type="line"/>
      <point x="260" y="603" type="line"/>
    </contour>
  </outline>
</glyph>
<glyph name="numbersign" format="1">
  <advance width="638"/>
  <unicode hex="0023"/>
  <outline>
    <contour>
      <point x="44" y="227" type="line"/>
      <point x="509" y="227" type="line"/>
      <point x="532" y="308" type="line"/>
      <point x="68" y="308" type="line"/>
    </contour>
    <contour>
      <point x="104" y="451" type="line"/>
      <point x="570" y="451" type="line"/>
      <point x="594" y="531" type="line"/>
      <point x="127" y="531" type="line"/>
    </contour>
    <contour>
      <point x="397" y="39" type="line"/>
      <point x="589" y="722" type="line"/>
      <point x="485" y="722" type="line"/>
      <point x="293" y="39" type="line"/>
    </contour>
    <contour>
      <point x="156" y="46" type="line"/>
      <point x="346" y="722" type="line"/>
      <point x="243" y="722" type="line"/>
      <point x="57" y="46" type="line"/>
    </contour>
  </outline>
</glyph>
<glyph name="dollar" format="1">
  <advance width="546"/>
  <unicode hex="0024"/>
  <outline>
    <contour>
      <point x="144" y="94" type="curve"/>
      <point x="144" y="214"/>
      <point x="144" y="99"/>
      <point x="144" y="219" type="curve"/>
      <point x="62" y="219"/>
      <point x="144" y="219"/>
      <point x="62" y="219" type="curve"/>
      <point x="62" y="99"/>
      <point x="62" y="214"/>
      <point x="62" y="94" type="curve"/>
      <point x="144" y="94"/>
      <point x="62" y="94"/>
    </contour>
    <contour>
      <point x="384" y="634" type="curve"/>
      <point x="384" y="514"/>
      <point x="384" y="629"/>
      <point x="384" y="509" type="curve"/>
      <point x="465" y="509"/>
      <point x="384" y="509"/>
      <point x="465" y="509" type="curve"/>
      <point x="465" y="629"/>
      <point x="465" y="514"/>
      <point x="465" y="634" type="curve"/>
      <point x="384" y="634"/>
      <point x="465" y="634"/>
    </contour>
    <contour>
      <point x="310" y="-42" type="curve"/>
      <point x="310" y="-10"/>
      <point x="310" y="53"/>
      <point x="310" y="84" type="curve"/>
      <point x="207" y="84"/>
      <point x="310" y="84"/>
      <point x="207" y="84" type="curve"/>
      <point x="207" y="53"/>
      <point x="207" y="-10"/>
      <point x="207" y="-42" type="curve"/>
      <point x="310" y="-42"/>
      <point x="207" y="-42"/>
    </contour>
    <contour>
      <point x="321" y="645" type="curve"/>
      <point x="321" y="677"/>
      <point x="321" y="742"/>
      <point x="321" y="773" type="curve"/>
      <point x="217" y="773"/>
      <point x="321" y="773"/>
      <point x="217" y="773" type="curve"/>
      <point x="217" y="742"/>
      <point x="217" y="677"/>
      <point x="217" y="645" type="curve"/>
      <point x="321" y="645"/>
      <point x="217" y="645"/>
    </contour>
    <contour>
      <point x="62" y="94" type="curve"/>
      <point x="115" y="67"/>
      <point x="180" y="44"/>
      <point x="254" y="44" type="curve"/>
      <point x="392" y="44"/>
      <point x="501" y="100"/>
      <point x="501" y="213" type="curve"/>
      <point x="501" y="314"/>
      <point x="407" y="363"/>
      <point x="302" y="410" type="curve"/>
      <point x="230" y="442"/>
      <point x="169" y="466"/>
      <point x="169" y="528" type="curve"/>
      <point x="169" y="578"/>
      <point x="212" y="607"/>
      <point x="271" y="607" type="curve"/>
      <point x="328" y="607"/>
      <point x="366" y="592"/>
      <point x="414" y="566" type="curve"/>
      <point x="465" y="634"/>
      <point x="414" y="566"/>
      <point x="465" y="634" type="curve"/>
      <point x="403" y="668"/>
      <point x="350" y="686"/>
      <point x="276" y="686" type="curve"/>
      <point x="154" y="686"/>
      <point x="65" y="630"/>
      <point x="65" y="528" type="curve"/>
      <point x="65" y="430"/>
      <point x="140" y="383"/>
      <point x="241" y="338" type="curve"/>
      <point x="318" y="304"/>
      <point x="397" y="278"/>
      <point x="397" y="209" type="curve"/>
      <point x="397" y="150"/>
      <point x="338" y="123"/>
      <point x="263" y="123" type="curve"/>
      <point x="207" y="123"/>
      <point x="159" y="146"/>
      <point x="118" y="165" type="curve"/>
      <point x="62" y="94"/>
      <point x="118" y="165"/>
    </contour>
  </outline>
</glyph>
<glyph name="percent" format="1">
  <advance width="1028"/>
  <unicode hex="0025"/>
  <outline>
    <contour>
      <point x="379" y="-55" type="line"/>
      <point x="757" y="724" type="line"/>
      <point x="661" y="724" type="line"/>
      <point x="283" y="-55" type="line"/>
    </contour>
    <contour>
      <point x="129" y="513" type="curve"/>
      <point x="129" y="592"/>
      <point x="154" y="653"/>
      <point x="226" y="653" type="curve"/>
      <point x="299" y="654"/>
      <point x="325" y="593"/>
      <point x="325" y="512" type="curve"/>
      <point x="325" y="432"/>
      <point x="303" y="369"/>
      <point x="232" y="369" type="curve"/>
      <point x="156" y="369"/>
      <point x="129" y="431"/>
      <point x="129" y="513" type="curve"/>
      <point x="95" y="513"/>
      <point x="72" y="513"/>
      <point x="38" y="513" type="curve"/>
      <point x="38" y="383"/>
      <point x="103" y="295"/>
      <point x="227" y="295" type="curve"/>
      <point x="353" y="295"/>
      <point x="420" y="384"/>
      <point x="420" y="516" type="curve"/>
      <point x="420" y="643"/>
      <point x="354" y="728"/>
      <point x="231" y="728" type="curve"/>
      <point x="105" y="728"/>
      <point x="38" y="642"/>
      <point x="38" y="513" type="curve"/>
      <point x="72" y="513"/>
      <point x="95" y="513"/>
    </contour>
    <contour>
      <point x="699" y="160" type="curve"/>
      <point x="699" y="239"/>
      <point x="724" y="300"/>
      <point x="796" y="300" type="curve"/>
      <point x="869" y="301"/>
      <point x="895" y="240"/>
      <point x="895" y="159" type="curve"/>
      <point x="895" y="79"/>
      <point x="874" y="16"/>
      <point x="802" y="16" type="curve"/>
      <point x="727" y="16"/>
      <point x="699" y="78"/>
      <point x="699" y="160" type="curve"/>
      <point x="666" y="160"/>
      <point x="642" y="160"/>
      <point x="609" y="160" type="curve"/>
      <point x="609" y="30"/>
      <point x="673" y="-59"/>
      <point x="797" y="-59" type="curve"/>
      <point x="924" y="-59"/>
      <point x="990" y="31"/>
      <point x="990" y="163" type="curve"/>
      <point x="990" y="290"/>
      <point x="924" y="375"/>
      <point x="801" y="375" type="curve"/>
      <point x="676" y="375"/>
      <point x="609" y="289"/>
      <point x="609" y="160" type="curve"/>
      <point x="642" y="160"/>
      <point x="666" y="160"/>
    </contour>
  </outline>
</glyph>
<glyph name="ampersand" format="1">
  <advance width="651"/>
  <unicode hex="0026"/>
  <outline>
    <contour>
      <point x="628" y="38" type="line"/>
      <point x="535" y="140"/>
      <point x="433" y="263"/>
      <point x="336" y="368" type="curve"/>
      <point x="284" y="428"/>
      <point x="216" y="476"/>
      <point x="216" y="559" type="curve"/>
      <point x="216" y="607"/>
      <point x="237" y="647"/>
      <point x="282" y="647" type="curve"/>
      <point x="330" y="647"/>
      <point x="356" y="612"/>
      <point x="356" y="561" type="curve"/>
      <point x="356" y="486"/>
      <point x="304" y="448"/>
      <point x="238" y="409" type="curve"/>
      <point x="143" y="351"/>
      <point x="56" y="302"/>
      <point x="56" y="193" type="curve"/>
      <point x="56" y="69"/>
      <point x="148" y="-5"/>
      <point x="275" y="-5" type="curve"/>
      <point x="458" y="-5"/>
      <point x="551" y="132"/>
      <point x="607" y="314" type="curve"/>
      <point x="517" y="334"/>
      <point x="607" y="314"/>
      <point x="517" y="334" type="curve"/>
      <point x="474" y="193"/>
      <point x="417" y="76"/>
      <point x="280" y="76" type="curve"/>
      <point x="208" y="76"/>
      <point x="160" y="120"/>
      <point x="160" y="193" type="curve"/>
      <point x="160" y="269"/>
      <point x="216" y="304"/>
      <point x="282" y="345" type="curve"/>
      <point x="376" y="402"/>
      <point x="459" y="453"/>
      <point x="460" y="561" type="curve"/>
      <point x="460" y="664"/>
      <point x="389" y="727"/>
      <point x="286" y="727" type="curve"/>
      <point x="183" y="727"/>
      <point x="117" y="661"/>
      <point x="117" y="559" type="curve"/>
      <point x="117" y="455"/>
      <point x="194" y="395"/>
      <point x="263" y="320" type="curve"/>
      <point x="356" y="216"/>
      <point x="469" y="85"/>
      <point x="559" y="-15" type="curve"/>
    </contour>
  </outline>
</glyph>
<glyph name="quotesingle" format="1">
  <advance width="243"/>
  <unicode hex="0027"/>
  <outline>
    <contour>
      <point x="168" y="603" type="line"/>
      <point x="176" y="814" type="line"/>
      <point x="67" y="814" type="line"/>
      <point x="74" y="603" type="line"/>
    </contour>
  </outline>
</glyph>
<glyph name="parenleft" format="1">
  <advance width="352"/>
  <unicode hex="0028"/>
  <outline>
    <contour>
      <point x="345" y="-215" type="curve"/>
      <point x="199" y="-50"/>
      <point x="148" y="105"/>
      <point x="148" y="326" type="curve"/>
      <point x="148" y="548"/>
      <point x="200" y="702"/>
      <point x="343" y="870" type="curve"/>
      <point x="281" y="921"/>
      <point x="343" y="870"/>
      <point x="281" y="921" type="curve"/>
      <point x="119" y="738"/>
      <point x="46" y="573"/>
      <point x="46" y="326" type="curve"/>
      <point x="46" y="78"/>
      <point x="120" y="-86"/>
      <point x="282" y="-271" type="curve"/>
      <point x="345" y="-215"/>
      <point x="282" y="-271"/>
    </contour>
  </outline>
</glyph>
<glyph name="parenright" format="1">
  <advance width="357"/>
  <unicode hex="0029"/>
  <outline>
    <contour>
      <point x="63" y="-285" type="curve"/>
      <point x="228" y="-93"/>
      <point x="312" y="73"/>
      <point x="312" y="328" type="curve"/>
      <point x="312" y="578"/>
      <point x="235" y="741"/>
      <point x="67" y="923" type="curve"/>
      <point x="5" y="867"/>
      <point x="67" y="923"/>
      <point x="5" y="867" type="curve"/>
      <point x="153" y="701"/>
      <point x="210" y="548"/>
      <point x="210" y="325" type="curve"/>
      <point x="210" y="97"/>
      <point x="145" y="-58"/>
      <point x="1" y="-234" type="curve"/>
      <point x="63" y="-285"/>
      <point x="1" y="-234"/>
    </contour>
  </outline>
</glyph>
<glyph name="asterisk" format="1">
  <advance width="565"/>
  <unicode hex="002A"/>
  <outline>
    <contour>
      <point x="316" y="560" type="line"/>
      <point x="322" y="770" type="line"/>
      <point x="242" y="770" type="line"/>
      <point x="248" y="560" type="line"/>
    </contour>
    <contour>
      <point x="305" y="520" type="line"/>
      <point x="506" y="585" type="line"/>
      <point x="478" y="659" type="line"/>
      <point x="282" y="584" type="line"/>
    </contour>
    <contour>
      <point x="264" y="517" type="line"/>
      <point x="392" y="349" type="line"/>
      <point x="453" y="400" type="line"/>
      <point x="317" y="561" type="line"/>
    </contour>
    <contour>
      <point x="250" y="560" type="line"/>
      <point x="114" y="399" type="line"/>
      <point x="175" y="349" type="line"/>
      <point x="303" y="517" type="line"/>
    </contour>
    <contour>
      <point x="283" y="583" type="line"/>
      <point x="86" y="658" type="line"/>
      <point x="59" y="583" type="line"/>
      <point x="260" y="519" type="line"/>
    </contour>
  </outline>
</glyph>
<glyph name="plus" format="1">
  <advance width="633"/>
  <unicode hex="002B"/>
  <outline>
    <contour>
      <point x="46" y="269" type="curve"/>
      <point x="588" y="269" type="line"/>
      <point x="588" y="357"/>
      <point x="588" y="269"/>
      <point x="588" y="357" type="curve"/>
      <point x="46" y="357" type="line"/>
      <point x="46" y="269"/>
      <point x="46" y="357"/>
    </contour>
    <contour>
      <point x="365" y="37" type="curve"/>
      <point x="365" y="583" type="line"/>
      <point x="262" y="583"/>
      <point x="372" y="583"/>
      <point x="268" y="583" type="curve"/>
      <point x="268" y="37" type="line"/>
      <point x="372" y="37"/>
      <point x="262" y="37"/>
    </contour>
  </outline>
</glyph>
<glyph name="comma" format="1">
  <advance width="263"/>
  <unicode hex="002C"/>
  <outline>
    <contour>
      <point x="51" y="-118" type="line"/>
      <point x="136" y="-118"/>
      <point x="187" y="-55"/>
      <point x="187" y="30" type="curve"/>
      <point x="187" y="97"/>
      <point x="162" y="139"/>
      <point x="121" y="139" type="curve"/>
      <point x="86" y="139"/>
      <point x="63" y="120"/>
      <point x="63" y="85" type="curve"/>
      <point x="63" y="55"/>
      <point x="82" y="34"/>
      <point x="114" y="32" type="curve"/>
      <point x="114" y="3"/>
      <point x="110" y="-51"/>
      <point x="51" y="-58" type="curve"/>
    </contour>
  </outline>
</glyph>
<glyph name="hyphen" format="1">
  <advance width="406"/>
  <unicode hex="002D"/>
  <outline>
    <contour>
      <point x="74" y="236" type="curve"/>
      <point x="160" y="236"/>
      <point x="246" y="236"/>
      <point x="332" y="236" type="curve"/>
      <point x="332" y="323"/>
      <point x="332" y="236"/>
      <point x="332" y="323" type="curve"/>
      <point x="246" y="323"/>
      <point x="160" y="323"/>
      <point x="74" y="323" type="curve"/>
      <point x="74" y="236"/>
      <point x="74" y="323"/>
    </contour>
  </outline>
</glyph>
<glyph name="period" format="1">
  <advance width="253"/>
  <unicode hex="002E"/>
  <outline>
    <contour>
      <point x="184" y="45" type="curve"/>
      <point x="184" y="80"/>
      <point x="159" y="98"/>
      <point x="125" y="98" type="curve"/>
      <point x="91" y="98"/>
      <point x="69" y="79"/>
      <point x="69" y="45" type="curve"/>
      <point x="182" y="45"/>
      <point x="71" y="45"/>
      <point x="184" y="45" type="curve"/>
      <point x="184" y="9"/>
      <point x="160" y="-8"/>
      <point x="125" y="-8" type="curve"/>
      <point x="91" y="-8"/>
      <point x="69" y="10"/>
      <point x="69" y="45" type="curve"/>
      <point x="182" y="45"/>
      <point x="71" y="45"/>
    </contour>
  </outline>
</glyph>
<glyph name="slash" format="1">
  <advance width="541"/>
  <unicode hex="002F"/>
  <outline>
    <contour>
      <point x="134" y="-32" type="curve"/>
      <point x="259" y="246"/>
      <point x="386" y="525"/>
      <point x="512" y="803" type="curve"/>
      <point x="408" y="803"/>
      <point x="512" y="803"/>
      <point x="408" y="803" type="curve"/>
      <point x="282" y="525"/>
      <point x="156" y="246"/>
      <point x="30" y="-32" type="curve"/>
      <point x="134" y="-32"/>
      <point x="30" y="-32"/>
    </contour>
  </outline>
</glyph>
<glyph name="zero" format="1">
  <advance width="693"/>
  <unicode hex="0030"/>
  <outline>
    <contour>
      <point x="160" y="360" type="curve"/>
      <point x="160" y="521"/>
      <point x="200" y="643"/>
      <point x="344" y="643" type="curve"/>
      <point x="488" y="643"/>
      <point x="533" y="523"/>
      <point x="533" y="363" type="curve"/>
      <point x="533" y="203"/>
      <point x="493" y="79"/>
      <point x="352" y="79" type="curve"/>
      <point x="209" y="79"/>
      <point x="160" y="199"/>
      <point x="160" y="360" type="curve"/>
      <point x="59" y="360"/>
      <point x="160" y="360"/>
      <point x="59" y="360" type="curve"/>
      <point x="59" y="145"/>
      <point x="146" y="-5"/>
      <point x="347" y="-5" type="curve"/>
      <point x="549" y="-5"/>
      <point x="634" y="146"/>
      <point x="634" y="363" type="curve"/>
      <point x="634" y="576"/>
      <point x="551" y="727"/>
      <point x="353" y="727" type="curve"/>
      <point x="149" y="727"/>
      <point x="59" y="577"/>
      <point x="59" y="360" type="curve"/>
      <point x="160" y="360"/>
      <point x="59" y="360"/>
    </contour>
  </outline>
</glyph>
<glyph name="one" format="1">
  <advance width="438"/>
  <unicode hex="0031"/>
  <outline>
    <contour>
      <point x="258" y="0" type="curve"/>
      <point x="306" y="0"/>
      <point x="354" y="0"/>
      <point x="402" y="0" type="curve"/>
      <point x="402" y="80"/>
      <point x="402" y="0"/>
      <point x="402" y="80" type="curve"/>
      <point x="258" y="80"/>
      <point x="402" y="80"/>
      <point x="258" y="80" type="curve"/>
      <point x="258" y="0"/>
      <point x="258" y="80"/>
    </contour>
    <contour>
      <point x="258" y="80" type="curve"/>
      <point x="112" y="80"/>
      <point x="258" y="80"/>
      <point x="112" y="80" type="curve"/>
      <point x="112" y="0"/>
      <point x="112" y="80"/>
      <point x="112" y="0" type="curve"/>
      <point x="161" y="0"/>
      <point x="209" y="0"/>
      <point x="258" y="0" type="curve"/>
      <point x="258" y="80"/>
      <point x="258" y="0"/>
    </contour>
    <contour>
      <point x="85" y="496" type="curve"/>
      <point x="282" y="670"/>
      <point x="85" y="496"/>
      <point x="282" y="670" type="curve"/>
      <point x="205" y="722"/>
      <point x="282" y="670"/>
      <point x="205" y="722" type="curve"/>
      <point x="28" y="562"/>
      <point x="205" y="722"/>
      <point x="28" y="562" type="curve"/>
      <point x="85" y="496"/>
      <point x="28" y="562"/>
    </contour>
    <contour>
      <point x="308" y="0" type="curve"/>
      <point x="308" y="241"/>
      <point x="308" y="481"/>
      <point x="308" y="722" type="curve"/>
      <point x="205" y="722"/>
      <point x="308" y="722"/>
      <point x="205" y="722" type="curve"/>
      <point x="205" y="481"/>
      <point x="205" y="241"/>
      <point x="205" y="0" type="curve"/>
      <point x="308" y="0"/>
      <point x="205" y="0"/>
    </contour>
  </outline>
</glyph>
<glyph name="two" format="1">
  <advance width="573"/>
  <unicode hex="0032"/>
  <outline>
    <contour>
      <point x="510" y="80" type="curve"/>
      <point x="510" y="189"/>
      <point x="510" y="72"/>
      <point x="510" y="181" type="curve"/>
      <point x="428" y="181"/>
      <point x="510" y="181"/>
      <point x="428" y="181" type="curve"/>
      <point x="428" y="72"/>
      <point x="428" y="189"/>
      <point x="428" y="80" type="curve"/>
      <point x="510" y="80"/>
      <point x="428" y="80"/>
    </contour>
    <contour>
      <point x="49" y="0" type="curve"/>
      <point x="228" y="0"/>
      <point x="380" y="0"/>
      <point x="510" y="0" type="curve"/>
      <point x="510" y="80"/>
      <point x="510" y="0"/>
      <point x="510" y="80" type="curve"/>
      <point x="363" y="80"/>
      <point x="197" y="80"/>
      <point x="50" y="80" type="curve"/>
      <point x="49" y="0"/>
      <point x="50" y="80"/>
    </contour>
    <contour>
      <point x="127" y="531" type="curve"/>
      <point x="168" y="596"/>
      <point x="200" y="643"/>
      <point x="270" y="643" type="curve"/>
      <point x="345" y="643"/>
      <point x="381" y="592"/>
      <point x="381" y="510" type="curve"/>
      <point x="381" y="406"/>
      <point x="315" y="332"/>
      <point x="246" y="268" type="curve"/>
      <point x="180" y="204"/>
      <point x="117" y="144"/>
      <point x="50" y="80" type="curve"/>
      <point x="53" y="0"/>
      <point x="50" y="80"/>
      <point x="53" y="0" type="curve"/>
      <point x="170" y="63"/>
      <point x="239" y="138"/>
      <point x="311" y="208" type="curve"/>
      <point x="402" y="290"/>
      <point x="478" y="377"/>
      <point x="478" y="515" type="curve"/>
      <point x="478" y="649"/>
      <point x="405" y="727"/>
      <point x="275" y="727" type="curve"/>
      <point x="169" y="727"/>
      <point x="100" y="669"/>
      <point x="55" y="575" type="curve"/>
      <point x="127" y="531"/>
      <point x="55" y="575"/>
    </contour>
  </outline>
</glyph>
<glyph name="three" format="1">
  <advance width="525"/>
  <unicode hex="0033"/>
  <outline>
    <contour>
      <point x="48" y="57" type="curve"/>
      <point x="101" y="20"/>
      <point x="154" y="-5"/>
      <point x="227" y="-5" type="curve"/>
      <point x="374" y="-5"/>
      <point x="468" y="62"/>
      <point x="468" y="207" type="curve"/>
      <point x="468" y="338"/>
      <point x="339" y="404"/>
      <point x="152" y="404" type="curve"/>
      <point x="152" y="339"/>
      <point x="152" y="401"/>
      <point x="152" y="336" type="curve"/>
      <point x="270" y="336"/>
      <point x="368" y="291"/>
      <point x="368" y="204" type="curve"/>
      <point x="368" y="118"/>
      <point x="307" y="79"/>
      <point x="231" y="79" type="curve"/>
      <point x="184" y="79"/>
      <point x="145" y="94"/>
      <point x="101" y="120" type="curve"/>
      <point x="48" y="57"/>
      <point x="101" y="120"/>
    </contour>
    <contour>
      <point x="112" y="583" type="curve"/>
      <point x="135" y="611"/>
      <point x="176" y="643"/>
      <point x="224" y="643" type="curve"/>
      <point x="296" y="643"/>
      <point x="339" y="607"/>
      <point x="339" y="534" type="curve"/>
      <point x="339" y="458"/>
      <point x="256" y="416"/>
      <point x="152" y="416" type="curve"/>
      <point x="152" y="352"/>
      <point x="152" y="413"/>
      <point x="152" y="349" type="curve"/>
      <point x="315" y="349"/>
      <point x="438" y="411"/>
      <point x="438" y="537" type="curve"/>
      <point x="438" y="661"/>
      <point x="358" y="727"/>
      <point x="233" y="727" type="curve"/>
      <point x="153" y="727"/>
      <point x="84" y="684"/>
      <point x="50" y="637" type="curve"/>
      <point x="112" y="583"/>
      <point x="50" y="637"/>
    </contour>
  </outline>
</glyph>
<glyph name="four" format="1">
  <advance width="575"/>
  <unicode hex="0034"/>
  <outline>
    <contour>
      <point x="359" y="80" type="line"/>
      <point x="228" y="80" type="line"/>
      <point x="228" y="0" type="line"/>
      <point x="359" y="0" type="line"/>
    </contour>
    <contour>
      <point x="359" y="0" type="line"/>
      <point x="489" y="0" type="line"/>
      <point x="489" y="80" type="line"/>
      <point x="359" y="80" type="line"/>
    </contour>
    <contour>
      <point x="75" y="255" type="line"/>
      <point x="393" y="693" type="line"/>
      <point x="308" y="705" type="line"/>
      <point x="32" y="327" type="line"/>
    </contour>
    <contour>
      <point x="534" y="327" type="line"/>
      <point x="32" y="327" type="line"/>
      <point x="33" y="239" type="line"/>
      <point x="534" y="239" type="line"/>
    </contour>
    <contour>
      <point x="412" y="31" type="line"/>
      <point x="412" y="705" type="line"/>
      <point x="309" y="705" type="line"/>
      <point x="309" y="31" type="line"/>
    </contour>
  </outline>
</glyph>
<glyph name="five" format="1">
  <advance width="515"/>
  <unicode hex="0035"/>
  <outline>
    <contour>
      <point x="77" y="722" type="curve"/>
      <point x="77" y="624"/>
      <point x="77" y="515"/>
      <point x="77" y="386" type="curve"/>
      <point x="175" y="357"/>
      <point x="77" y="386"/>
      <point x="175" y="357" type="curve"/>
      <point x="175" y="449"/>
      <point x="175" y="550"/>
      <point x="175" y="642" type="curve"/>
      <point x="77" y="722"/>
      <point x="175" y="642"/>
    </contour>
    <contour>
      <point x="175" y="357" type="curve"/>
      <point x="191" y="372"/>
      <point x="220" y="385"/>
      <point x="247" y="385" type="curve"/>
      <point x="326" y="385"/>
      <point x="361" y="323"/>
      <point x="361" y="237" type="curve"/>
      <point x="361" y="148"/>
      <point x="311" y="79"/>
      <point x="227" y="79" type="curve"/>
      <point x="178" y="79"/>
      <point x="144" y="91"/>
      <point x="99" y="115" type="curve"/>
      <point x="49" y="43"/>
      <point x="99" y="115"/>
      <point x="49" y="43" type="curve"/>
      <point x="105" y="11"/>
      <point x="156" y="-5"/>
      <point x="222" y="-5" type="curve"/>
      <point x="364" y="-5"/>
      <point x="464" y="93"/>
      <point x="464" y="236" type="curve"/>
      <point x="464" y="373"/>
      <point x="389" y="471"/>
      <point x="259" y="471" type="curve"/>
      <point x="196" y="471"/>
      <point x="130" y="451"/>
      <point x="77" y="387" type="curve"/>
      <point x="175" y="357"/>
      <point x="77" y="387"/>
    </contour>
    <contour>
      <point x="437" y="722" type="curve"/>
      <point x="319" y="722"/>
      <point x="190" y="722"/>
      <point x="77" y="722" type="curve"/>
      <point x="175" y="642"/>
      <point x="77" y="722"/>
      <point x="175" y="642" type="curve"/>
      <point x="256" y="642"/>
      <point x="352" y="642"/>
      <point x="437" y="642" type="curve"/>
      <point x="437" y="722"/>
      <point x="437" y="642"/>
    </contour>
  </outline>
</glyph>
<glyph name="seven" format="1">
  <advance width="518"/>
  <unicode hex="0037"/>
  <outline>
    <contour>
      <point x="137" y="545" type="curve"/>
      <point x="137" y="648" type="curve"/>
      <point x="56" y="648" type="curve"/>
      <point x="56" y="545" type="curve"/>
    </contour>
    <contour>
      <point x="56" y="642" type="curve"/>
      <point x="498" y="642" type="curve"/>
      <point x="498" y="722" type="curve"/>
      <point x="56" y="722" type="curve"/>
    </contour>
    <contour>
      <point x="437" y="722" type="curve"/>
      <point x="69" y="0" type="curve"/>
      <point x="178" y="0" type="curve"/>
      <point x="498" y="642" type="curve"/>
    </contour>
  </outline>
</glyph>
<glyph name="nine" format="1">
  <advance width="575"/>
  <unicode hex="0039"/>
  <outline>
    <contour>
      <point x="441" y="484" type="curve"/>
      <point x="409" y="410"/>
      <point x="364" y="370"/>
      <point x="283" y="370" type="curve"/>
      <point x="201" y="370"/>
      <point x="156" y="423"/>
      <point x="156" y="508" type="curve"/>
      <point x="156" y="586"/>
      <point x="199" y="637"/>
      <point x="274" y="637" type="curve"/>
      <point x="372" y="637"/>
      <point x="420" y="570"/>
      <point x="420" y="468" type="curve"/>
      <point x="420" y="253"/>
      <point x="293" y="135"/>
      <point x="80" y="68" type="curve"/>
      <point x="115" y="-13"/>
      <point x="80" y="68"/>
      <point x="115" y="-13" type="curve"/>
      <point x="355" y="58"/>
      <point x="520" y="209"/>
      <point x="520" y="472" type="curve"/>
      <point x="520" y="631"/>
      <point x="433" y="732"/>
      <point x="278" y="732" type="curve"/>
      <point x="137" y="732"/>
      <point x="55" y="645"/>
      <point x="55" y="504" type="curve"/>
      <point x="55" y="367"/>
      <point x="137" y="285"/>
      <point x="274" y="285" type="curve"/>
      <point x="392" y="285"/>
      <point x="455" y="368"/>
      <point x="491" y="462" type="curve"/>
      <point x="441" y="484"/>
      <point x="491" y="462"/>
    </contour>
  </outline>
</glyph>
<glyph name="colon" format="1">
  <advance width="264"/>
  <unicode hex="003A"/>
  <outline>
    <contour>
      <point x="189" y="343" type="curve"/>
      <point x="189" y="379"/>
      <point x="165" y="397"/>
      <point x="131" y="397" type="curve"/>
      <point x="97" y="397"/>
      <point x="74" y="377"/>
      <point x="74" y="343" type="curve"/>
      <point x="187" y="343"/>
      <point x="77" y="343"/>
      <point x="189" y="343" type="curve"/>
      <point x="189" y="307"/>
      <point x="165" y="291"/>
      <point x="131" y="291" type="curve"/>
      <point x="96" y="291"/>
      <point x="74" y="309"/>
      <point x="74" y="343" type="curve"/>
      <point x="187" y="343"/>
      <point x="77" y="343"/>
    </contour>
    <contour>
      <point x="189" y="86" type="curve"/>
      <point x="189" y="122"/>
      <point x="165" y="139"/>
      <point x="131" y="139" type="curve"/>
      <point x="97" y="139"/>
      <point x="74" y="120"/>
      <point x="74" y="86" type="curve"/>
      <point x="187" y="86"/>
      <point x="76" y="86"/>
      <point x="189" y="86" type="curve"/>
      <point x="189" y="50"/>
      <point x="165" y="34"/>
      <point x="131" y="34" type="curve"/>
      <point x="96" y="34"/>
      <point x="74" y="52"/>
      <point x="74" y="86" type="curve"/>
      <point x="187" y="86"/>
      <point x="76" y="86"/>
    </contour>
  </outline>
</glyph>
<glyph name="semicolon" format="1">
  <advance width="289"/>
  <unicode hex="003B"/>
  <outline>
    <contour>
      <point x="70" y="-167" type="line"/>
      <point x="159" y="-167"/>
      <point x="212" y="-104"/>
      <point x="212" y="-19" type="curve"/>
      <point x="212" y="47"/>
      <point x="186" y="89"/>
      <point x="143" y="89" type="curve"/>
      <point x="107" y="89"/>
      <point x="82" y="71"/>
      <point x="82" y="36" type="curve"/>
      <point x="82" y="5"/>
      <point x="102" y="-16"/>
      <point x="136" y="-17" type="curve"/>
      <point x="136" y="-46"/>
      <point x="132" y="-101"/>
      <point x="70" y="-108" type="curve"/>
    </contour>
    <contour>
      <point x="201" y="394" type="curve"/>
      <point x="201" y="430"/>
      <point x="176" y="448"/>
      <point x="142" y="448" type="curve"/>
      <point x="108" y="448"/>
      <point x="86" y="428"/>
      <point x="86" y="394" type="curve"/>
      <point x="198" y="394"/>
      <point x="88" y="394"/>
      <point x="201" y="394" type="curve"/>
      <point x="201" y="358"/>
      <point x="176" y="342"/>
      <point x="142" y="342" type="curve"/>
      <point x="107" y="342"/>
      <point x="86" y="360"/>
      <point x="86" y="394" type="curve"/>
      <point x="198" y="394"/>
      <point x="88" y="394"/>
    </contour>
  </outline>
</glyph>
<glyph name="less" format="1">
  <advance width="648"/>
  <unicode hex="003C"/>
  <outline>
    <contour>
      <point x="578" y="614" type="curve"/>
      <point x="398" y="524"/>
      <point x="218" y="434"/>
      <point x="38" y="344" type="curve"/>
      <point x="38" y="256"/>
      <point x="38" y="344"/>
      <point x="38" y="256" type="curve"/>
      <point x="218" y="346"/>
      <point x="398" y="436"/>
      <point x="578" y="526" type="curve"/>
      <point x="578" y="614"/>
      <point x="578" y="526"/>
    </contour>
    <contour>
      <point x="587" y="80" type="curve"/>
      <point x="404" y="168"/>
      <point x="221" y="256"/>
      <point x="38" y="344" type="curve"/>
      <point x="38" y="256"/>
      <point x="38" y="344"/>
      <point x="38" y="256" type="curve"/>
      <point x="221" y="168"/>
      <point x="404" y="80"/>
      <point x="587" y="-8" type="curve"/>
      <point x="587" y="80"/>
      <point x="587" y="-8"/>
    </contour>
  </outline>
</glyph>
<glyph name="equal" format="1">
  <advance width="713"/>
  <unicode hex="003D"/>
  <outline>
    <contour>
      <point x="78" y="175" type="curve"/>
      <point x="264" y="175"/>
      <point x="450" y="175"/>
      <point x="636" y="175" type="curve"/>
      <point x="636" y="260"/>
      <point x="636" y="175"/>
      <point x="636" y="260" type="curve"/>
      <point x="450" y="260"/>
      <point x="264" y="260"/>
      <point x="78" y="260" type="curve"/>
      <point x="78" y="175"/>
      <point x="78" y="260"/>
    </contour>
    <contour>
      <point x="78" y="397" type="curve"/>
      <point x="264" y="397"/>
      <point x="450" y="397"/>
      <point x="636" y="397" type="curve"/>
      <point x="636" y="482"/>
      <point x="636" y="397"/>
      <point x="636" y="482" type="curve"/>
      <point x="450" y="482"/>
      <point x="264" y="482"/>
      <point x="78" y="482" type="curve"/>
      <point x="78" y="397"/>
      <point x="78" y="482"/>
    </contour>
  </outline>
</glyph>
<glyph name="greater" format="1">
  <advance width="649"/>
  <unicode hex="003E"/>
  <outline>
    <contour>
      <point x="70" y="-8" type="curve"/>
      <point x="250" y="82"/>
      <point x="430" y="172"/>
      <point x="610" y="262" type="curve"/>
      <point x="610" y="350"/>
      <point x="610" y="262"/>
      <point x="610" y="350" type="curve"/>
      <point x="430" y="260"/>
      <point x="250" y="170"/>
      <point x="70" y="80" type="curve"/>
      <point x="70" y="-8"/>
      <point x="70" y="80"/>
    </contour>
    <contour>
      <point x="61" y="526" type="curve"/>
      <point x="244" y="438"/>
      <point x="427" y="350"/>
      <point x="610" y="262" type="curve"/>
      <point x="610" y="350"/>
      <point x="610" y="262"/>
      <point x="610" y="350" type="curve"/>
      <point x="427" y="438"/>
      <point x="244" y="526"/>
      <point x="61" y="614" type="curve"/>
      <point x="61" y="526"/>
      <point x="61" y="614"/>
    </contour>
  </outline>
</glyph>
<glyph name="question" format="1">
  <advance width="503"/>
  <unicode hex="003F"/>
  <outline>
    <contour>
      <point x="182" y="364" type="curve"/>
      <point x="182" y="327"/>
      <point x="182" y="258"/>
      <point x="182" y="221" type="curve"/>
      <point x="279" y="221"/>
      <point x="182" y="221"/>
      <point x="279" y="221" type="curve"/>
      <point x="279" y="258"/>
      <point x="279" y="327"/>
      <point x="279" y="364" type="curve"/>
      <point x="182" y="364"/>
      <point x="279" y="364"/>
    </contour>
    <contour>
      <point x="99" y="592" type="line"/>
      <point x="130" y="628"/>
      <point x="170" y="653"/>
      <point x="224" y="653" type="curve"/>
      <point x="304" y="653"/>
      <point x="352" y="600"/>
      <point x="352" y="519" type="curve"/>
      <point x="352" y="425"/>
      <point x="291" y="364"/>
      <point x="193" y="364" type="curve"/>
      <point x="193" y="332"/>
      <point x="192" y="319"/>
      <point x="192" y="286" type="curve"/>
      <point x="348" y="286"/>
      <point x="451" y="374"/>
      <point x="451" y="519" type="curve"/>
      <point x="451" y="655"/>
      <point x="362" y="738"/>
      <point x="229" y="738" type="curve"/>
      <point x="148" y="738"/>
      <point x="89" y="708"/>
      <point x="44" y="655" type="curve"/>
    </contour>
    <contour>
      <point x="288" y="37" type="curve"/>
      <point x="288" y="72"/>
      <point x="264" y="89"/>
      <point x="230" y="89" type="curve"/>
      <point x="196" y="89"/>
      <point x="174" y="70"/>
      <point x="174" y="37" type="curve"/>
      <point x="288" y="37"/>
      <point x="174" y="37"/>
      <point x="288" y="37" type="curve"/>
      <point x="288" y="1"/>
      <point x="265" y="-15"/>
      <point x="230" y="-15" type="curve"/>
      <point x="196" y="-15"/>
      <point x="174" y="2"/>
      <point x="174" y="37" type="curve"/>
      <point x="288" y="37"/>
      <point x="174" y="37"/>
    </contour>
  </outline>
</glyph>
<glyph name="at" format="1">
  <advance width="794"/>
  <unicode hex="0040"/>
  <outline>
    <contour>
      <point x="534" y="-35" type="curve"/>
      <point x="491" y="-58"/>
      <point x="459" y="-66"/>
      <point x="411" y="-66" type="curve"/>
      <point x="244" y="-66"/>
      <point x="146" y="38"/>
      <point x="146" y="208" type="curve"/>
      <point x="146" y="373"/>
      <point x="242" y="473"/>
      <point x="403" y="473" type="curve"/>
      <point x="557" y="473"/>
      <point x="646" y="371"/>
      <point x="646" y="213" type="curve"/>
      <point x="646" y="153"/>
      <point x="642" y="101"/>
      <point x="607" y="101" type="curve"/>
      <point x="569" y="101"/>
      <point x="564" y="151"/>
      <point x="564" y="213" type="curve"/>
      <point x="564" y="325"/>
      <point x="505" y="399"/>
      <point x="396" y="399" type="curve"/>
      <point x="278" y="399"/>
      <point x="221" y="328"/>
      <point x="221" y="210" type="curve"/>
      <point x="221" y="90"/>
      <point x="273" y="13"/>
      <point x="387" y="13" type="curve"/>
      <point x="489" y="13"/>
      <point x="533" y="88"/>
      <point x="549" y="196" type="curve"/>
      <point x="483" y="211"/>
      <point x="549" y="196"/>
      <point x="483" y="211" type="curve"/>
      <point x="469" y="148"/>
      <point x="458" y="93"/>
      <point x="399" y="93" type="curve"/>
      <point x="338" y="93"/>
      <point x="314" y="144"/>
      <point x="314" y="214" type="curve"/>
      <point x="314" y="276"/>
      <point x="335" y="319"/>
      <point x="390" y="319" type="curve"/>
      <point x="451" y="319"/>
      <point x="469" y="273"/>
      <point x="469" y="208" type="curve"/>
      <point x="469" y="104"/>
      <point x="502" y="25"/>
      <point x="599" y="25" type="curve"/>
      <point x="701" y="25"/>
      <point x="737" y="105"/>
      <point x="737" y="217" type="curve"/>
      <point x="737" y="429"/>
      <point x="616" y="557"/>
      <point x="407" y="557" type="curve"/>
      <point x="183" y="557"/>
      <point x="52" y="427"/>
      <point x="52" y="204" type="curve"/>
      <point x="52" y="-17"/>
      <point x="185" y="-146"/>
      <point x="406" y="-146" type="curve"/>
      <point x="474" y="-146"/>
      <point x="519" y="-135"/>
      <point x="573" y="-103" type="curve"/>
      <point x="534" y="-35"/>
      <point x="573" y="-103"/>
    </contour>
  </outline>
</glyph>
<glyph name="A" format="1">
  <advance width="743"/>
  <unicode hex="0041"/>
  <outline>
    <contour>
      <point x="117" y="80" type="curve"/>
      <point x="-20" y="80"/>
      <point x="127" y="80"/>
      <point x="-10" y="80" type="curve"/>
      <point x="-10" y="0"/>
      <point x="-10" y="80"/>
      <point x="-10" y="0" type="curve"/>
      <point x="36" y="0"/>
      <point x="72" y="0"/>
      <point x="117" y="0" type="curve"/>
      <point x="117" y="80"/>
      <point x="117" y="0"/>
    </contour>
    <contour>
      <point x="117" y="0" type="curve"/>
      <point x="173" y="0"/>
      <point x="112" y="0"/>
      <point x="278" y="0" type="curve"/>
      <point x="278" y="80"/>
      <point x="278" y="0"/>
      <point x="278" y="80" type="curve"/>
      <point x="112" y="80"/>
      <point x="283" y="80"/>
      <point x="117" y="80" type="curve"/>
      <point x="117" y="0"/>
      <point x="117" y="80"/>
    </contour>
    <contour>
      <point x="603" y="0" type="curve"/>
      <point x="648" y="0"/>
      <point x="684" y="0"/>
      <point x="730" y="0" type="curve"/>
      <point x="730" y="80"/>
      <point x="730" y="0"/>
      <point x="730" y="80" type="curve"/>
      <point x="593" y="80"/>
      <point x="740" y="80"/>
      <point x="603" y="80" type="curve"/>
      <point x="603" y="0"/>
      <point x="603" y="80"/>
    </contour>
    <contour>
      <point x="603" y="80" type="curve"/>
      <point x="436" y="80"/>
      <point x="608" y="80"/>
      <point x="442" y="80" type="curve"/>
      <point x="442" y="0"/>
      <point x="442" y="80"/>
      <point x="442" y="0" type="curve"/>
      <point x="497" y="0"/>
      <point x="547" y="0"/>
      <point x="603" y="0" type="curve"/>
      <point x="603" y="80"/>
      <point x="603" y="0"/>
    </contour>
    <contour>
      <point x="509" y="292" type="curve"/>
      <point x="416" y="292"/>
      <point x="322" y="292"/>
      <point x="229" y="292" type="curve"/>
      <point x="186" y="207"/>
      <point x="229" y="292"/>
      <point x="186" y="207" type="curve"/>
      <point x="305" y="207"/>
      <point x="424" y="207"/>
      <point x="542" y="207" type="curve"/>
      <point x="509" y="292"/>
      <point x="542" y="207"/>
    </contour>
    <contour>
      <point x="667" y="0" type="curve"/>
      <point x="587" y="241"/>
      <point x="502" y="481"/>
      <point x="422" y="722" type="curve"/>
      <point x="327" y="722"/>
      <point x="422" y="722"/>
      <point x="327" y="722" type="curve"/>
      <point x="406" y="482"/>
      <point x="480" y="240"/>
      <point x="559" y="0" type="curve"/>
      <point x="667" y="0"/>
      <point x="559" y="0"/>
    </contour>
    <contour>
      <point x="163" y="0" type="curve"/>
      <point x="251" y="240"/>
      <point x="332" y="482"/>
      <point x="420" y="722" type="curve"/>
      <point x="326" y="722"/>
      <point x="420" y="722"/>
      <point x="326" y="722" type="curve"/>
      <point x="236" y="480"/>
      <point x="139" y="242"/>
      <point x="50" y="0" type="curve"/>
      <point x="163" y="0"/>
      <point x="50" y="0"/>
    </contour>
    <contour>
      <point x="372" y="796" type="move" name="top"/>
    </contour>
    <contour>
      <point x="650" y="3" type="move" name="bottom"/>
    </contour>
  </outline>
</glyph>
<glyph name="B" format="1">
  <advance width="652"/>
  <unicode hex="0042"/>
  <outline>
    <contour>
      <point x="194" y="722" type="curve"/>
      <point x="147" y="722"/>
      <point x="105" y="722"/>
      <point x="58" y="722" type="curve"/>
      <point x="58" y="642"/>
      <point x="58" y="722"/>
      <point x="58" y="642" type="curve"/>
      <point x="199" y="642"/>
      <point x="53" y="642"/>
      <point x="194" y="642" type="curve"/>
      <point x="194" y="722"/>
      <point x="194" y="642"/>
    </contour>
    <contour>
      <point x="193" y="80" type="curve"/>
      <point x="52" y="80"/>
      <point x="198" y="80"/>
      <point x="57" y="80" type="curve"/>
      <point x="57" y="0"/>
      <point x="57" y="80"/>
      <point x="57" y="0" type="curve"/>
      <point x="104" y="0"/>
      <point x="146" y="0"/>
      <point x="193" y="0" type="curve"/>
      <point x="193" y="80"/>
      <point x="193" y="0"/>
    </contour>
    <contour>
      <point x="185" y="642" type="curve"/>
      <point x="245" y="642"/>
      <point x="293" y="642"/>
      <point x="353" y="642" type="curve"/>
      <point x="419" y="642"/>
      <point x="455" y="604"/>
      <point x="455" y="541" type="curve"/>
      <point x="455" y="479"/>
      <point x="412" y="446"/>
      <point x="348" y="446" type="curve"/>
      <point x="290" y="446"/>
      <point x="243" y="446"/>
      <point x="185" y="446" type="curve"/>
      <point x="185" y="402"/>
      <point x="185" y="410"/>
      <point x="185" y="366" type="curve"/>
      <point x="229" y="366"/>
      <point x="264" y="366"/>
      <point x="309" y="366" type="curve"/>
      <point x="426" y="366"/>
      <point x="558" y="411"/>
      <point x="558" y="539" type="curve"/>
      <point x="558" y="657"/>
      <point x="480" y="722"/>
      <point x="358" y="722" type="curve"/>
      <point x="296" y="722"/>
      <point x="247" y="722"/>
      <point x="185" y="722" type="curve"/>
      <point x="185" y="678"/>
      <point x="185" y="686"/>
    </contour>
    <contour>
      <point x="248" y="0" type="curve"/>
      <point x="248" y="241"/>
      <point x="248" y="481"/>
      <point x="248" y="722" type="curve"/>
      <point x="140" y="722"/>
      <point x="248" y="722"/>
      <point x="140" y="722" type="curve"/>
      <point x="140" y="481"/>
      <point x="140" y="241"/>
      <point x="140" y="0" type="curve"/>
      <point x="248" y="0"/>
      <point x="140" y="0"/>
    </contour>
    <contour>
      <point x="185" y="366" type="curve"/>
      <point x="243" y="366"/>
      <point x="290" y="366"/>
      <point x="348" y="366" type="curve"/>
      <point x="442" y="366"/>
      <point x="496" y="312"/>
      <point x="496" y="219" type="curve"/>
      <point x="496" y="131"/>
      <point x="445" y="80"/>
      <point x="355" y="80" type="curve"/>
      <point x="294" y="80"/>
      <point x="246" y="80"/>
      <point x="185" y="80" type="curve"/>
      <point x="185" y="36"/>
      <point x="185" y="44"/>
      <point x="185" y="0" type="curve"/>
      <point x="248" y="0"/>
      <point x="297" y="0"/>
      <point x="360" y="0" type="curve"/>
      <point x="507" y="0"/>
      <point x="600" y="75"/>
      <point x="600" y="217" type="curve"/>
      <point x="600" y="377"/>
      <point x="462" y="446"/>
      <point x="309" y="446" type="curve"/>
      <point x="265" y="446"/>
      <point x="229" y="446"/>
      <point x="185" y="446" type="curve"/>
      <point x="185" y="402"/>
      <point x="185" y="410"/>
    </contour>
  </outline>
</glyph>
<glyph name="F" format="1">
  <advance width="584"/>
  <unicode hex="0046"/>
  <outline>
    <contour>
      <point x="195" y="0" type="curve"/>
      <point x="243" y="0"/>
      <point x="195" y="0"/>
      <point x="339" y="0" type="curve"/>
      <point x="339" y="80"/>
      <point x="339" y="0"/>
      <point x="339" y="80" type="curve"/>
      <point x="195" y="80"/>
      <point x="339" y="80"/>
      <point x="195" y="80" type="curve"/>
      <point x="195" y="0"/>
      <point x="195" y="80"/>
    </contour>
    <contour>
      <point x="195" y="722" type="curve"/>
      <point x="148" y="722"/>
      <point x="105" y="722"/>
      <point x="57" y="722" type="curve"/>
      <point x="57" y="642"/>
      <point x="57" y="722"/>
      <point x="57" y="642" type="curve"/>
      <point x="200" y="642"/>
      <point x="52" y="642"/>
      <point x="195" y="642" type="curve"/>
      <point x="195" y="722"/>
      <point x="195" y="642"/>
    </contour>
    <contour>
      <point x="195" y="80" type="curve"/>
      <point x="52" y="80"/>
      <point x="200" y="80"/>
      <point x="57" y="80" type="curve"/>
      <point x="57" y="0"/>
      <point x="57" y="80"/>
      <point x="57" y="0" type="curve"/>
      <point x="105" y="0"/>
      <point x="148" y="0"/>
      <point x="195" y="0" type="curve"/>
      <point x="195" y="80"/>
      <point x="195" y="0"/>
    </contour>
    <contour>
      <point x="468" y="682" type="curve"/>
      <point x="468" y="562"/>
      <point x="468" y="685"/>
      <point x="468" y="565" type="curve"/>
      <point x="549" y="565"/>
      <point x="468" y="565"/>
      <point x="549" y="565" type="curve"/>
      <point x="549" y="685"/>
      <point x="549" y="562"/>
      <point x="549" y="682" type="curve"/>
      <point x="468" y="682"/>
      <point x="549" y="682"/>
    </contour>
    <contour>
      <point x="199" y="333" type="curve"/>
      <point x="294" y="333"/>
      <point x="389" y="333"/>
      <point x="484" y="333" type="curve"/>
      <point x="484" y="413"/>
      <point x="484" y="333"/>
      <point x="484" y="413" type="curve"/>
      <point x="389" y="413"/>
      <point x="294" y="413"/>
      <point x="199" y="413" type="curve"/>
      <point x="199" y="333"/>
      <point x="199" y="413"/>
    </contour>
    <contour>
      <point x="247" y="0" type="curve"/>
      <point x="247" y="722" type="line"/>
      <point x="143" y="722"/>
      <point x="247" y="722"/>
      <point x="143" y="722" type="curve"/>
      <point x="143" y="481"/>
      <point x="143" y="241"/>
      <point x="143" y="0" type="curve"/>
      <point x="247" y="0"/>
      <point x="143" y="0"/>
    </contour>
    <contour>
      <point x="185" y="642" type="curve"/>
      <point x="306" y="642"/>
      <point x="428" y="642"/>
      <point x="549" y="642" type="curve"/>
      <point x="549" y="722"/>
      <point x="549" y="642"/>
      <point x="549" y="722" type="curve"/>
      <point x="428" y="722"/>
      <point x="306" y="722"/>
      <point x="185" y="722" type="curve"/>
      <point x="185" y="642"/>
      <point x="185" y="722"/>
    </contour>
  </outline>
</glyph>
<glyph name="G" format="1">
  <advance width="735"/>
  <unicode hex="0047"/>
  <outline>
    <contour>
      <point x="573" y="644" type="curve"/>
      <point x="573" y="515"/>
      <point x="573" y="640"/>
      <point x="573" y="510" type="curve"/>
      <point x="655" y="510"/>
      <point x="573" y="510"/>
      <point x="655" y="510" type="curve"/>
      <point x="655" y="640"/>
      <point x="655" y="515"/>
      <point x="655" y="644" type="curve"/>
      <point x="573" y="644"/>
      <point x="655" y="644"/>
    </contour>
    <contour>
      <point x="642" y="353" type="curve"/>
      <point x="577" y="353"/>
      <point x="511" y="353"/>
      <point x="446" y="353" type="curve"/>
      <point x="446" y="273"/>
      <point x="446" y="353"/>
      <point x="446" y="273" type="curve"/>
      <point x="511" y="273"/>
      <point x="577" y="273"/>
      <point x="642" y="273" type="curve"/>
      <point x="642" y="353"/>
      <point x="642" y="273"/>
    </contour>
    <contour>
      <point x="670" y="78" type="curve"/>
      <point x="670" y="170"/>
      <point x="670" y="261"/>
      <point x="670" y="353" type="curve"/>
      <point x="575" y="353"/>
      <point x="670" y="353"/>
      <point x="575" y="353" type="curve"/>
      <point x="575" y="261"/>
      <point x="575" y="170"/>
      <point x="575" y="78" type="curve"/>
      <point x="670" y="78"/>
      <point x="575" y="78"/>
    </contour>
    <contour>
      <point x="655" y="644" type="curve"/>
      <point x="570" y="701"/>
      <point x="491" y="727"/>
      <point x="389" y="727" type="curve"/>
      <point x="171" y="727"/>
      <point x="55" y="587"/>
      <point x="55" y="362" type="curve"/>
      <point x="55" y="133"/>
      <point x="177" y="-5"/>
      <point x="398" y="-5" type="curve"/>
      <point x="508" y="-5"/>
      <point x="576" y="23"/>
      <point x="670" y="78" type="curve"/>
      <point x="617" y="139"/>
      <point x="670" y="78"/>
      <point x="617" y="139" type="curve"/>
      <point x="547" y="98"/>
      <point x="485" y="79"/>
      <point x="398" y="79" type="curve"/>
      <point x="234" y="79"/>
      <point x="159" y="194"/>
      <point x="159" y="370" type="curve"/>
      <point x="159" y="534"/>
      <point x="233" y="643"/>
      <point x="389" y="643" type="curve"/>
      <point x="471" y="643"/>
      <point x="534" y="621"/>
      <point x="603" y="576" type="curve"/>
      <point x="655" y="644"/>
      <point x="603" y="576"/>
    </contour>
    <contour>
      <point x="386" y="796" type="move" name="top"/>
    </contour>
    <contour>
      <point x="426" y="-18" type="move" name="bottom"/>
    </contour>
  </outline>
</glyph>
<glyph name="H" format="1">
  <advance width="801"/>
  <unicode hex="0048"/>
  <outline>
    <contour>
      <point x="623" y="642" type="curve"/>
      <point x="771" y="642"/>
      <point x="612" y="642"/>
      <point x="761" y="642" type="curve"/>
      <point x="761" y="722"/>
      <point x="761" y="642"/>
      <point x="761" y="722" type="curve"/>
      <point x="711" y="722"/>
      <point x="672" y="722"/>
      <point x="623" y="722" type="curve"/>
      <point x="623" y="642"/>
      <point x="623" y="722"/>
    </contour>
    <contour>
      <point x="623" y="0" type="curve"/>
      <point x="672" y="0"/>
      <point x="711" y="0"/>
      <point x="761" y="0" type="curve"/>
      <point x="761" y="80"/>
      <point x="761" y="0"/>
      <point x="761" y="80" type="curve"/>
      <point x="612" y="80"/>
      <point x="771" y="80"/>
      <point x="623" y="80" type="curve"/>
      <point x="623" y="0"/>
      <point x="623" y="80"/>
    </contour>
    <contour>
      <point x="623" y="80" type="curve"/>
      <point x="474" y="80"/>
      <point x="633" y="80"/>
      <point x="485" y="80" type="curve"/>
      <point x="485" y="0"/>
      <point x="485" y="80"/>
      <point x="485" y="0" type="curve"/>
      <point x="534" y="0"/>
      <point x="573" y="0"/>
      <point x="623" y="0" type="curve"/>
      <point x="623" y="80"/>
      <point x="623" y="0"/>
    </contour>
    <contour>
      <point x="623" y="722" type="curve"/>
      <point x="573" y="722"/>
      <point x="534" y="722"/>
      <point x="485" y="722" type="curve"/>
      <point x="485" y="642"/>
      <point x="485" y="722"/>
      <point x="485" y="642" type="curve"/>
      <point x="633" y="642"/>
      <point x="474" y="642"/>
      <point x="623" y="642" type="curve"/>
      <point x="623" y="722"/>
      <point x="623" y="642"/>
    </contour>
    <contour>
      <point x="178" y="642" type="curve"/>
      <point x="327" y="642"/>
      <point x="168" y="642"/>
      <point x="317" y="642" type="curve"/>
      <point x="317" y="722"/>
      <point x="317" y="642"/>
      <point x="317" y="722" type="curve"/>
      <point x="267" y="722"/>
      <point x="228" y="722"/>
      <point x="178" y="722" type="curve"/>
      <point x="178" y="642"/>
      <point x="178" y="722"/>
    </contour>
    <contour>
      <point x="178" y="722" type="curve"/>
      <point x="129" y="722"/>
      <point x="90" y="722"/>
      <point x="40" y="722" type="curve"/>
      <point x="40" y="642"/>
      <point x="40" y="722"/>
      <point x="40" y="642" type="curve"/>
      <point x="189" y="642"/>
      <point x="30" y="642"/>
      <point x="178" y="642" type="curve"/>
      <point x="178" y="722"/>
      <point x="178" y="642"/>
    </contour>
    <contour>
      <point x="178" y="0" type="curve"/>
      <point x="228" y="0"/>
      <point x="168" y="0"/>
      <point x="317" y="0" type="curve"/>
      <point x="317" y="80"/>
      <point x="317" y="0"/>
      <point x="317" y="80" type="curve"/>
      <point x="168" y="80"/>
      <point x="327" y="80"/>
      <point x="178" y="80" type="curve"/>
      <point x="178" y="0"/>
      <point x="178" y="80"/>
    </contour>
    <contour>
      <point x="178" y="80" type="curve"/>
      <point x="30" y="80"/>
      <point x="189" y="80"/>
      <point x="40" y="80" type="curve"/>
      <point x="40" y="0"/>
      <point x="40" y="80"/>
      <point x="40" y="0" type="curve"/>
      <point x="90" y="0"/>
      <point x="129" y="0"/>
      <point x="178" y="0" type="curve"/>
      <point x="178" y="80"/>
      <point x="178" y="0"/>
    </contour>
    <contour>
      <point x="231" y="0" type="curve"/>
      <point x="231" y="722" type="line"/>
      <point x="127" y="722"/>
      <point x="231" y="722"/>
      <point x="127" y="722" type="curve"/>
      <point x="127" y="481"/>
      <point x="127" y="241"/>
      <point x="127" y="0" type="curve"/>
      <point x="231" y="0"/>
      <point x="127" y="0"/>
    </contour>
    <contour>
      <point x="620" y="403" type="curve"/>
      <point x="473" y="403"/>
      <point x="326" y="403"/>
      <point x="178" y="403" type="curve"/>
      <point x="178" y="323"/>
      <point x="178" y="403"/>
      <point x="178" y="323" type="curve"/>
      <point x="326" y="323"/>
      <point x="473" y="323"/>
      <point x="620" y="323" type="curve"/>
      <point x="620" y="403"/>
      <point x="620" y="323"/>
    </contour>
    <contour>
      <point x="674" y="31" type="curve"/>
      <point x="674" y="251"/>
      <point x="674" y="471"/>
      <point x="674" y="691" type="curve"/>
      <point x="570" y="691"/>
      <point x="674" y="691"/>
      <point x="570" y="691" type="curve"/>
      <point x="570" y="31" type="line"/>
      <point x="674" y="31"/>
      <point x="570" y="31"/>
    </contour>
  </outline>
</glyph>
<glyph name="I" format="1">
  <advance width="358"/>
  <unicode hex="0049"/>
  <outline>
    <contour>
      <point x="180" y="722" type="curve"/>
      <point x="130" y="722"/>
      <point x="91" y="722"/>
      <point x="41" y="722" type="curve"/>
      <point x="41" y="642"/>
      <point x="41" y="722"/>
      <point x="41" y="642" type="curve"/>
      <point x="190" y="642"/>
      <point x="31" y="642"/>
      <point x="180" y="642" type="curve"/>
      <point x="180" y="722"/>
      <point x="180" y="642"/>
    </contour>
    <contour>
      <point x="180" y="642" type="curve"/>
      <point x="329" y="642"/>
      <point x="169" y="642"/>
      <point x="318" y="642" type="curve"/>
      <point x="318" y="722"/>
      <point x="318" y="642"/>
      <point x="318" y="722" type="curve"/>
      <point x="268" y="722"/>
      <point x="229" y="722"/>
      <point x="180" y="722" type="curve"/>
      <point x="180" y="642"/>
      <point x="180" y="722"/>
    </contour>
    <contour>
      <point x="180" y="0" type="curve"/>
      <point x="229" y="0"/>
      <point x="268" y="0"/>
      <point x="318" y="0" type="curve"/>
      <point x="318" y="80"/>
      <point x="318" y="0"/>
      <point x="318" y="80" type="curve"/>
      <point x="169" y="80"/>
      <point x="329" y="80"/>
      <point x="180" y="80" type="curve"/>
      <point x="180" y="0"/>
      <point x="180" y="80"/>
    </contour>
    <contour>
      <point x="180" y="80" type="curve"/>
      <point x="31" y="80"/>
      <point x="190" y="80"/>
      <point x="41" y="80" type="curve"/>
      <point x="41" y="0"/>
      <point x="41" y="80"/>
      <point x="41" y="0" type="curve"/>
      <point x="91" y="0"/>
      <point x="130" y="0"/>
      <point x="180" y="0" type="curve"/>
      <point x="180" y="80"/>
      <point x="180" y="0"/>
    </contour>
    <contour>
      <point x="231" y="0" type="curve"/>
      <point x="231" y="241"/>
      <point x="231" y="481"/>
      <point x="231" y="722" type="curve"/>
      <point x="127" y="722"/>
      <point x="231" y="722"/>
      <point x="127" y="722" type="curve"/>
      <point x="127" y="481"/>
      <point x="127" y="241"/>
      <point x="127" y="0" type="curve"/>
      <point x="231" y="0"/>
      <point x="127" y="0"/>
    </contour>
    <contour>
      <point x="180" y="796" type="move" name="top"/>
    </contour>
    <contour>
      <point x="225" y="2" type="move" name="bottom"/>
    </contour>
  </outline>
</glyph>
<glyph name="J" format="1">
  <advance width="445"/>
  <unicode hex="004A"/>
  <outline>
    <contour>
      <point x="286" y="722" type="curve"/>
      <point x="238" y="722"/>
      <point x="200" y="722"/>
      <point x="151" y="722" type="curve"/>
      <point x="151" y="642"/>
      <point x="151" y="722"/>
      <point x="151" y="642" type="curve"/>
      <point x="297" y="642"/>
      <point x="141" y="642"/>
      <point x="286" y="642" type="curve"/>
      <point x="286" y="722"/>
      <point x="286" y="642"/>
    </contour>
    <contour>
      <point x="286" y="642" type="curve"/>
      <point x="431" y="642"/>
      <point x="276" y="642"/>
      <point x="421" y="642" type="curve"/>
      <point x="421" y="722"/>
      <point x="421" y="642"/>
      <point x="421" y="722" type="curve"/>
      <point x="373" y="722"/>
      <point x="335" y="722"/>
      <point x="286" y="722" type="curve"/>
      <point x="286" y="642"/>
      <point x="286" y="722"/>
    </contour>
    <contour>
      <point x="8" y="43" type="curve"/>
      <point x="38" y="20"/>
      <point x="80" y="-4"/>
      <point x="133" y="-4" type="curve"/>
      <point x="272" y="-4"/>
      <point x="337" y="81"/>
      <point x="337" y="235" type="curve"/>
      <point x="337" y="402"/>
      <point x="337" y="554"/>
      <point x="337" y="722" type="curve"/>
      <point x="238" y="722"/>
      <point x="333" y="722"/>
      <point x="234" y="722" type="curve"/>
      <point x="234" y="554"/>
      <point x="234" y="402"/>
      <point x="234" y="235" type="curve"/>
      <point x="234" y="145"/>
      <point x="214" y="77"/>
      <point x="133" y="77" type="curve"/>
      <point x="101" y="77"/>
      <point x="81" y="91"/>
      <point x="56" y="107" type="curve"/>
      <point x="11" y="46"/>
      <point x="54" y="104"/>
    </contour>
  </outline>
</glyph>
<glyph name="K" format="1">
  <advance width="692"/>
  <unicode hex="004B"/>
  <outline>
    <contour>
      <point x="532" y="722" type="curve"/>
      <point x="481" y="722"/>
      <point x="421" y="722"/>
      <point x="372" y="722" type="curve"/>
      <point x="372" y="642"/>
      <point x="372" y="722"/>
      <point x="372" y="642" type="curve"/>
      <point x="522" y="642"/>
      <point x="381" y="642"/>
      <point x="532" y="642" type="curve"/>
      <point x="532" y="722"/>
      <point x="532" y="642"/>
    </contour>
    <contour>
      <point x="539" y="0" type="curve"/>
      <point x="598" y="0"/>
      <point x="611" y="0"/>
      <point x="669" y="0" type="curve"/>
      <point x="669" y="80"/>
      <point x="669" y="0"/>
      <point x="669" y="80" type="curve"/>
      <point x="494" y="80"/>
      <point x="715" y="80"/>
      <point x="539" y="80" type="curve"/>
      <point x="539" y="0"/>
      <point x="539" y="80"/>
    </contour>
    <contour>
      <point x="518" y="642" type="curve"/>
      <point x="664" y="642"/>
      <point x="495" y="642"/>
      <point x="641" y="642" type="curve"/>
      <point x="641" y="722"/>
      <point x="641" y="642"/>
      <point x="641" y="722" type="curve"/>
      <point x="592" y="722"/>
      <point x="566" y="722"/>
      <point x="518" y="722" type="curve"/>
      <point x="518" y="642"/>
      <point x="518" y="722"/>
    </contour>
    <contour>
      <point x="177" y="722" type="curve"/>
      <point x="128" y="722"/>
      <point x="89" y="722"/>
      <point x="40" y="722" type="curve"/>
      <point x="40" y="642"/>
      <point x="40" y="722"/>
      <point x="40" y="642" type="curve"/>
      <point x="187" y="642"/>
      <point x="30" y="642"/>
      <point x="177" y="642" type="curve"/>
      <point x="177" y="722"/>
      <point x="177" y="642"/>
    </contour>
    <contour>
      <point x="177" y="642" type="curve"/>
      <point x="322" y="642"/>
      <point x="149" y="642"/>
      <point x="294" y="642" type="curve"/>
      <point x="294" y="722"/>
      <point x="294" y="642"/>
      <point x="294" y="722" type="curve"/>
      <point x="245" y="722"/>
      <point x="225" y="722"/>
      <point x="177" y="722" type="curve"/>
      <point x="177" y="642"/>
      <point x="177" y="722"/>
    </contour>
    <contour>
      <point x="177" y="0" type="curve"/>
      <point x="228" y="0"/>
      <point x="146" y="0"/>
      <point x="302" y="0" type="curve"/>
      <point x="302" y="80"/>
      <point x="302" y="0"/>
      <point x="302" y="80" type="curve"/>
      <point x="146" y="80"/>
      <point x="332" y="80"/>
      <point x="177" y="80" type="curve"/>
      <point x="177" y="0"/>
      <point x="177" y="80"/>
    </contour>
    <contour>
      <point x="177" y="80" type="curve"/>
      <point x="30" y="80"/>
      <point x="187" y="80"/>
      <point x="40" y="80" type="curve"/>
      <point x="40" y="0"/>
      <point x="40" y="80"/>
      <point x="40" y="0" type="curve"/>
      <point x="89" y="0"/>
      <point x="128" y="0"/>
      <point x="177" y="0" type="curve"/>
      <point x="177" y="80"/>
      <point x="177" y="0"/>
    </contour>
    <contour>
      <point x="505" y="722" type="curve"/>
      <point x="208" y="380" type="line"/>
      <point x="327" y="380"/>
      <point x="206" y="380"/>
      <point x="326" y="380" type="curve"/>
      <point x="591" y="683" type="line"/>
      <point x="489" y="683"/>
      <point x="607" y="722"/>
    </contour>
    <contour>
      <point x="229" y="0" type="curve"/>
      <point x="229" y="722" type="line"/>
      <point x="125" y="722"/>
      <point x="229" y="722"/>
      <point x="125" y="722" type="curve"/>
      <point x="125" y="481"/>
      <point x="125" y="241"/>
      <point x="125" y="0" type="curve"/>
      <point x="229" y="0"/>
      <point x="125" y="0"/>
    </contour>
    <contour>
      <point x="620" y="34" type="curve"/>
      <point x="326" y="380" type="line"/>
      <point x="206" y="380"/>
      <point x="327" y="380"/>
      <point x="208" y="380" type="curve"/>
      <point x="525" y="0" type="line"/>
      <point x="636" y="0"/>
      <point x="509" y="34"/>
    </contour>
    <contour>
      <point x="385" y="-20" type="move" name="bottom"/>
    </contour>
  </outline>
</glyph>
<glyph name="P" format="1">
  <advance width="610"/>
  <unicode hex="0050"/>
  <outline>
    <contour>
      <point x="196" y="722" type="curve"/>
      <point x="148" y="722"/>
      <point x="106" y="722"/>
      <point x="58" y="722" type="curve"/>
      <point x="58" y="642"/>
      <point x="58" y="722"/>
      <point x="58" y="642" type="curve"/>
      <point x="201" y="642"/>
      <point x="52" y="642"/>
      <point x="196" y="642" type="curve"/>
      <point x="196" y="722"/>
      <point x="196" y="642"/>
    </contour>
    <contour>
      <point x="196" y="80" type="curve"/>
      <point x="52" y="80"/>
      <point x="201" y="80"/>
      <point x="58" y="80" type="curve"/>
      <point x="58" y="0"/>
      <point x="58" y="80"/>
      <point x="58" y="0" type="curve"/>
      <point x="106" y="0"/>
      <point x="148" y="0"/>
      <point x="196" y="0" type="curve"/>
      <point x="196" y="80"/>
      <point x="196" y="0"/>
    </contour>
    <contour>
      <point x="196" y="0" type="curve"/>
      <point x="244" y="0"/>
      <point x="190" y="0"/>
      <point x="334" y="0" type="curve"/>
      <point x="334" y="80"/>
      <point x="334" y="0"/>
      <point x="334" y="80" type="curve"/>
      <point x="190" y="80"/>
      <point x="339" y="80"/>
      <point x="196" y="80" type="curve"/>
      <point x="196" y="0"/>
      <point x="196" y="80"/>
    </contour>
    <contour>
      <point x="181" y="306" type="curve"/>
      <point x="232" y="278"/>
      <point x="289" y="260"/>
      <point x="350" y="260" type="curve"/>
      <point x="484" y="263"/>
      <point x="569" y="341"/>
      <point x="569" y="483" type="curve"/>
      <point x="569" y="631"/>
      <point x="468" y="722"/>
      <point x="318" y="722" type="curve"/>
      <point x="278" y="722"/>
      <point x="238" y="722"/>
      <point x="199" y="722" type="curve"/>
      <point x="199" y="642"/>
      <point x="199" y="722"/>
      <point x="199" y="642" type="curve"/>
      <point x="234" y="642"/>
      <point x="269" y="642"/>
      <point x="304" y="642" type="curve"/>
      <point x="403" y="642"/>
      <point x="465" y="582"/>
      <point x="465" y="485" type="curve"/>
      <point x="465" y="397"/>
      <point x="420" y="338"/>
      <point x="339" y="338" type="curve"/>
      <point x="290" y="338"/>
      <point x="256" y="352"/>
      <point x="214" y="374" type="curve"/>
      <point x="181" y="308"/>
      <point x="214" y="374"/>
    </contour>
    <contour>
      <point x="247" y="0" type="curve"/>
      <point x="247" y="241"/>
      <point x="247" y="481"/>
      <point x="247" y="722" type="curve"/>
      <point x="143" y="722"/>
      <point x="247" y="722"/>
      <point x="143" y="722" type="curve"/>
      <point x="143" y="481"/>
      <point x="143" y="241"/>
      <point x="143" y="0" type="curve"/>
      <point x="247" y="0"/>
      <point x="143" y="0"/>
    </contour>
  </outline>
</glyph>
<glyph name="Q" format="1">
  <advance width="727"/>
  <unicode hex="0051"/>
  <outline>
    <contour>
      <point x="326" y="19" type="curve"/>
      <point x="421" y="-154"/>
      <point x="535" y="-221"/>
      <point x="721" y="-221" type="curve"/>
      <point x="721" y="-137"/>
      <point x="721" y="-221"/>
      <point x="721" y="-137" type="curve"/>
      <point x="576" y="-137"/>
      <point x="491" y="-78"/>
      <point x="416" y="59" type="curve"/>
      <point x="326" y="19"/>
      <point x="416" y="59"/>
    </contour>
    <contour>
      <point x="159" y="360" type="curve"/>
      <point x="159" y="518"/>
      <point x="216" y="639"/>
      <point x="361" y="639" type="curve"/>
      <point x="507" y="639"/>
      <point x="567" y="520"/>
      <point x="567" y="361" type="curve"/>
      <point x="567" y="202"/>
      <point x="512" y="79"/>
      <point x="367" y="79" type="curve"/>
      <point x="219" y="79"/>
      <point x="159" y="200"/>
      <point x="159" y="360" type="curve"/>
      <point x="56" y="360"/>
      <point x="159" y="360"/>
      <point x="56" y="360" type="curve"/>
      <point x="56" y="146"/>
      <point x="161" y="-5"/>
      <point x="362" y="-5" type="curve"/>
      <point x="567" y="-5"/>
      <point x="671" y="149"/>
      <point x="671" y="365" type="curve"/>
      <point x="671" y="578"/>
      <point x="570" y="730"/>
      <point x="368" y="730" type="curve"/>
      <point x="163" y="730"/>
      <point x="56" y="576"/>
      <point x="56" y="360" type="curve"/>
      <point x="159" y="360"/>
      <point x="56" y="360"/>
    </contour>
  </outline>
</glyph>
<glyph name="T" format="1">
  <advance width="613"/>
  <unicode hex="0054"/>
  <outline>
    <contour>
      <point x="32" y="681" type="curve"/>
      <point x="32" y="561"/>
      <point x="32" y="684"/>
      <point x="32" y="564" type="curve"/>
      <point x="113" y="564"/>
      <point x="32" y="564"/>
      <point x="113" y="564" type="curve"/>
      <point x="113" y="684"/>
      <point x="113" y="561"/>
      <point x="113" y="681" type="curve"/>
      <point x="32" y="681"/>
      <point x="113" y="681"/>
    </contour>
    <contour>
      <point x="500" y="681" type="curve"/>
      <point x="500" y="561"/>
      <point x="500" y="684"/>
      <point x="500" y="564" type="curve"/>
      <point x="582" y="564"/>
      <point x="500" y="564"/>
      <point x="582" y="564" type="curve"/>
      <point x="582" y="684"/>
      <point x="582" y="561"/>
      <point x="582" y="681" type="curve"/>
      <point x="500" y="681"/>
      <point x="582" y="681"/>
    </contour>
    <contour>
      <point x="306" y="0" type="curve"/>
      <point x="353" y="0"/>
      <point x="397" y="0"/>
      <point x="444" y="0" type="curve"/>
      <point x="444" y="80"/>
      <point x="444" y="0"/>
      <point x="444" y="80" type="curve"/>
      <point x="303" y="80"/>
      <point x="446" y="80"/>
      <point x="306" y="80" type="curve"/>
      <point x="306" y="0"/>
      <point x="306" y="80"/>
    </contour>
    <contour>
      <point x="306" y="80" type="curve"/>
      <point x="165" y="80"/>
      <point x="308" y="80"/>
      <point x="167" y="80" type="curve"/>
      <point x="167" y="0"/>
      <point x="167" y="80"/>
      <point x="167" y="0" type="curve"/>
      <point x="214" y="0"/>
      <point x="259" y="0"/>
      <point x="306" y="0" type="curve"/>
      <point x="306" y="80"/>
      <point x="306" y="0"/>
    </contour>
    <contour>
      <point x="359" y="0" type="curve"/>
      <point x="359" y="237"/>
      <point x="359" y="473"/>
      <point x="359" y="710" type="curve"/>
      <point x="255" y="710"/>
      <point x="359" y="710"/>
      <point x="255" y="710" type="curve"/>
      <point x="255" y="473"/>
      <point x="255" y="237"/>
      <point x="255" y="0" type="curve"/>
      <point x="359" y="0"/>
      <point x="255" y="0"/>
    </contour>
    <contour>
      <point x="32" y="637" type="curve"/>
      <point x="215" y="637"/>
      <point x="399" y="637"/>
      <point x="582" y="637" type="curve"/>
      <point x="582" y="725"/>
      <point x="582" y="634"/>
      <point x="582" y="722" type="curve"/>
      <point x="399" y="722"/>
      <point x="215" y="722"/>
      <point x="32" y="722" type="curve"/>
      <point x="32" y="634"/>
      <point x="32" y="725"/>
    </contour>
    <contour>
      <point x="305" y="796" type="move" name="top"/>
    </contour>
    <contour>
      <point x="345" y="-19" type="move" name="bottom"/>
    </contour>
  </outline>
</glyph>
<glyph name="V" format="1">
  <advance width="734"/>
  <unicode hex="0056"/>
  <outline>
    <contour>
      <point x="590" y="722" type="curve"/>
      <point x="541" y="722"/>
      <point x="495" y="722"/>
      <point x="446" y="722" type="curve"/>
      <point x="446" y="642"/>
      <point x="446" y="722"/>
      <point x="446" y="642" type="curve"/>
      <point x="592" y="642"/>
      <point x="444" y="642"/>
      <point x="590" y="642" type="curve"/>
      <point x="590" y="722"/>
      <point x="590" y="642"/>
    </contour>
    <contour>
      <point x="121" y="722" type="curve"/>
      <point x="79" y="722"/>
      <point x="38" y="722"/>
      <point x="-5" y="722" type="curve"/>
      <point x="-5" y="642"/>
      <point x="-5" y="722"/>
      <point x="-5" y="642" type="curve"/>
      <point x="123" y="642"/>
      <point x="-7" y="642"/>
      <point x="121" y="642" type="curve"/>
      <point x="121" y="722"/>
      <point x="121" y="642"/>
    </contour>
    <contour>
      <point x="598" y="642" type="curve"/>
      <point x="726" y="642"/>
      <point x="596" y="642"/>
      <point x="724" y="642" type="curve"/>
      <point x="724" y="722"/>
      <point x="724" y="642"/>
      <point x="724" y="722" type="curve"/>
      <point x="682" y="722"/>
      <point x="641" y="722"/>
      <point x="598" y="722" type="curve"/>
      <point x="598" y="642"/>
      <point x="598" y="722"/>
    </contour>
    <contour>
      <point x="129" y="642" type="curve"/>
      <point x="275" y="642"/>
      <point x="127" y="642"/>
      <point x="273" y="642" type="curve"/>
      <point x="273" y="722"/>
      <point x="273" y="642"/>
      <point x="273" y="722" type="curve"/>
      <point x="225" y="722"/>
      <point x="178" y="722"/>
      <point x="129" y="722" type="curve"/>
      <point x="129" y="642"/>
      <point x="129" y="722"/>
    </contour>
    <contour>
      <point x="558" y="722" type="curve"/>
      <point x="477" y="481"/>
      <point x="398" y="241"/>
      <point x="319" y="0" type="curve"/>
      <point x="425" y="0"/>
      <point x="311" y="0"/>
      <point x="418" y="0" type="curve"/>
      <point x="500" y="241"/>
      <point x="581" y="481"/>
      <point x="664" y="722" type="curve"/>
      <point x="558" y="722"/>
      <point x="664" y="722"/>
    </contour>
    <contour>
      <point x="55" y="722" type="curve"/>
      <point x="139" y="481"/>
      <point x="222" y="241"/>
      <point x="306" y="0" type="curve"/>
      <point x="412" y="0"/>
      <point x="300" y="0"/>
      <point x="406" y="0" type="curve"/>
      <point x="325" y="241"/>
      <point x="244" y="481"/>
      <point x="163" y="722" type="curve"/>
      <point x="55" y="722"/>
      <point x="162" y="722"/>
    </contour>
  </outline>
</glyph>
<glyph name="W" format="1">
  <advance width="918"/>
  <unicode hex="0057"/>
  <outline>
    <contour>
      <point x="138" y="642" type="curve"/>
      <point x="263" y="642"/>
      <point x="136" y="642"/>
      <point x="261" y="642" type="curve"/>
      <point x="261" y="722"/>
      <point x="261" y="642"/>
      <point x="261" y="722" type="curve"/>
      <point x="219" y="722"/>
      <point x="180" y="722"/>
      <point x="138" y="722" type="curve"/>
      <point x="138" y="642"/>
      <point x="138" y="722"/>
    </contour>
    <contour>
      <point x="133" y="722" type="curve"/>
      <point x="90" y="722"/>
      <point x="48" y="722"/>
      <point x="5" y="722" type="curve"/>
      <point x="5" y="642"/>
      <point x="5" y="722"/>
      <point x="5" y="642" type="curve"/>
      <point x="136" y="642"/>
      <point x="2" y="642"/>
      <point x="133" y="642" type="curve"/>
      <point x="133" y="722"/>
      <point x="133" y="642"/>
    </contour>
    <contour>
      <point x="777" y="722" type="curve"/>
      <point x="736" y="722"/>
      <point x="696" y="722"/>
      <point x="655" y="722" type="curve"/>
      <point x="655" y="642"/>
      <point x="655" y="722"/>
      <point x="655" y="642" type="curve"/>
      <point x="780" y="642"/>
      <point x="653" y="642"/>
      <point x="777" y="642" type="curve"/>
      <point x="777" y="722"/>
      <point x="777" y="642"/>
    </contour>
    <contour>
      <point x="780" y="642" type="curve"/>
      <point x="911" y="642"/>
      <point x="777" y="642"/>
      <point x="908" y="642" type="curve"/>
      <point x="908" y="722"/>
      <point x="908" y="642"/>
      <point x="908" y="722" type="curve"/>
      <point x="865" y="722"/>
      <point x="823" y="722"/>
      <point x="780" y="722" type="curve"/>
      <point x="780" y="642"/>
      <point x="780" y="722"/>
    </contour>
    <contour>
      <point x="327" y="0" type="curve"/>
      <point x="386" y="241"/>
      <point x="445" y="481"/>
      <point x="504" y="722" type="curve"/>
      <point x="412" y="722"/>
      <point x="505" y="722"/>
      <point x="413" y="722" type="curve"/>
      <point x="357" y="481"/>
      <point x="302" y="242"/>
      <point x="245" y="0" type="curve"/>
      <point x="333" y="0"/>
      <point x="239" y="0"/>
    </contour>
    <contour>
      <point x="421" y="722" type="curve"/>
      <point x="474" y="481"/>
      <point x="526" y="241"/>
      <point x="580" y="0" type="curve"/>
      <point x="667" y="0"/>
      <point x="571" y="0"/>
      <point x="659" y="0" type="curve"/>
      <point x="609" y="243"/>
      <point x="561" y="481"/>
      <point x="511" y="722" type="curve"/>
      <point x="419" y="722"/>
      <point x="513" y="722"/>
    </contour>
    <contour>
      <point x="72" y="722" type="curve"/>
      <point x="126" y="481"/>
      <point x="180" y="241"/>
      <point x="233" y="0" type="curve"/>
      <point x="322" y="0"/>
      <point x="233" y="0"/>
      <point x="321" y="0" type="curve"/>
      <point x="269" y="241"/>
      <point x="218" y="481"/>
      <point x="166" y="722" type="curve"/>
      <point x="72" y="722"/>
      <point x="166" y="722"/>
    </contour>
    <contour>
      <point x="747" y="722" type="curve"/>
      <point x="693" y="481"/>
      <point x="640" y="241"/>
      <point x="587" y="0" type="curve"/>
      <point x="675" y="0"/>
      <point x="585" y="0"/>
      <point x="673" y="0" type="curve"/>
      <point x="729" y="241"/>
      <point x="785" y="481"/>
      <point x="842" y="722" type="curve"/>
      <point x="747" y="722"/>
      <point x="842" y="722"/>
    </contour>
  </outline>
</glyph>
<glyph name="X" format="1">
  <advance width="686"/>
  <unicode hex="0058"/>
  <outline>
    <contour>
      <point x="150" y="0" type="curve"/>
      <point x="197" y="0"/>
      <point x="148" y="0"/>
      <point x="288" y="0" type="curve"/>
      <point x="288" y="80"/>
      <point x="288" y="0"/>
      <point x="288" y="80" type="curve"/>
      <point x="148" y="80"/>
      <point x="291" y="80"/>
      <point x="150" y="80" type="curve"/>
      <point x="150" y="0"/>
      <point x="150" y="80"/>
    </contour>
    <contour>
      <point x="140" y="80" type="curve"/>
      <point x="8" y="80"/>
      <point x="143" y="80"/>
      <point x="10" y="80" type="curve"/>
      <point x="10" y="0"/>
      <point x="10" y="80"/>
      <point x="10" y="0" type="curve"/>
      <point x="54" y="0"/>
      <point x="96" y="0"/>
      <point x="140" y="0" type="curve"/>
      <point x="140" y="80"/>
      <point x="140" y="0"/>
    </contour>
    <contour>
      <point x="542" y="0" type="curve"/>
      <point x="586" y="0"/>
      <point x="629" y="0"/>
      <point x="672" y="0" type="curve"/>
      <point x="672" y="80"/>
      <point x="672" y="0"/>
      <point x="672" y="80" type="curve"/>
      <point x="539" y="80"/>
      <point x="675" y="80"/>
      <point x="542" y="80" type="curve"/>
      <point x="542" y="0"/>
      <point x="542" y="80"/>
    </contour>
    <contour>
      <point x="532" y="80" type="curve"/>
      <point x="392" y="80"/>
      <point x="535" y="80"/>
      <point x="394" y="80" type="curve"/>
      <point x="394" y="0"/>
      <point x="394" y="80"/>
      <point x="394" y="0" type="curve"/>
      <point x="441" y="0"/>
      <point x="486" y="0"/>
      <point x="532" y="0" type="curve"/>
      <point x="532" y="80"/>
      <point x="532" y="0"/>
    </contour>
    <contour>
      <point x="521" y="642" type="curve"/>
      <point x="654" y="642"/>
      <point x="519" y="642"/>
      <point x="651" y="642" type="curve"/>
      <point x="651" y="722"/>
      <point x="651" y="642"/>
      <point x="651" y="722" type="curve"/>
      <point x="607" y="722"/>
      <point x="565" y="722"/>
      <point x="521" y="722" type="curve"/>
      <point x="521" y="642"/>
      <point x="521" y="722"/>
    </contour>
    <contour>
      <point x="528" y="722" type="curve"/>
      <point x="480" y="722"/>
      <point x="433" y="722"/>
      <point x="384" y="722" type="curve"/>
      <point x="384" y="642"/>
      <point x="384" y="722"/>
      <point x="384" y="642" type="curve"/>
      <point x="530" y="642"/>
      <point x="382" y="642"/>
      <point x="528" y="642" type="curve"/>
      <point x="528" y="722"/>
      <point x="528" y="642"/>
    </contour>
    <contour>
      <point x="166" y="722" type="curve"/>
      <point x="123" y="722"/>
      <point x="80" y="722"/>
      <point x="36" y="722" type="curve"/>
      <point x="36" y="642"/>
      <point x="36" y="722"/>
      <point x="36" y="642" type="curve"/>
      <point x="169" y="642"/>
      <point x="34" y="642"/>
      <point x="166" y="642" type="curve"/>
      <point x="166" y="722"/>
      <point x="166" y="642"/>
    </contour>
    <contour>
      <point x="159" y="642" type="curve"/>
      <point x="305" y="642"/>
      <point x="157" y="642"/>
      <point x="303" y="642" type="curve"/>
      <point x="303" y="722"/>
      <point x="303" y="642"/>
      <point x="303" y="722" type="curve"/>
      <point x="254" y="722"/>
      <point x="208" y="722"/>
      <point x="159" y="722" type="curve"/>
      <point x="159" y="642"/>
      <point x="159" y="722"/>
    </contour>
    <contour>
      <point x="501" y="722" type="curve"/>
      <point x="356" y="484"/>
      <point x="210" y="247"/>
      <point x="64" y="9" type="curve"/>
      <point x="168" y="9"/>
      <point x="64" y="0"/>
      <point x="168" y="0" type="curve"/>
      <point x="313" y="238"/>
      <point x="456" y="476"/>
      <point x="601" y="715" type="curve"/>
      <point x="501" y="715"/>
      <point x="601" y="722"/>
    </contour>
    <contour>
      <point x="88" y="714" type="curve"/>
      <point x="231" y="476"/>
      <point x="374" y="238"/>
      <point x="517" y="0" type="curve"/>
      <point x="621" y="0"/>
      <point x="517" y="6"/>
      <point x="621" y="6" type="curve"/>
      <point x="476" y="245"/>
      <point x="331" y="483"/>
      <point x="187" y="722" type="curve"/>
      <point x="88" y="722"/>
      <point x="187" y="714"/>
    </contour>
  </outline>
</glyph>
<glyph name="Y" format="1">
  <advance width="637"/>
  <unicode hex="0059"/>
  <outline>
    <contour>
      <point x="310" y="80" type="curve"/>
      <point x="169" y="80"/>
      <point x="312" y="80"/>
      <point x="172" y="80" type="curve"/>
      <point x="172" y="0"/>
      <point x="172" y="80"/>
      <point x="172" y="0" type="curve"/>
      <point x="218" y="0"/>
      <point x="263" y="0"/>
      <point x="310" y="0" type="curve"/>
      <point x="310" y="80"/>
      <point x="310" y="0"/>
    </contour>
    <contour>
      <point x="310" y="0" type="curve"/>
      <point x="357" y="0"/>
      <point x="402" y="0"/>
      <point x="448" y="0" type="curve"/>
      <point x="448" y="80"/>
      <point x="448" y="0"/>
      <point x="448" y="80" type="curve"/>
      <point x="308" y="80"/>
      <point x="450" y="80"/>
      <point x="310" y="80" type="curve"/>
      <point x="310" y="0"/>
      <point x="310" y="80"/>
    </contour>
    <contour>
      <point x="497" y="722" type="curve"/>
      <point x="452" y="722"/>
      <point x="409" y="722"/>
      <point x="364" y="722" type="curve"/>
      <point x="364" y="642"/>
      <point x="364" y="722"/>
      <point x="364" y="642" type="curve"/>
      <point x="500" y="642"/>
      <point x="362" y="642"/>
      <point x="497" y="642" type="curve"/>
      <point x="497" y="722"/>
      <point x="497" y="642"/>
    </contour>
    <contour>
      <point x="124" y="722" type="curve"/>
      <point x="84" y="722"/>
      <point x="47" y="722"/>
      <point x="7" y="722" type="curve"/>
      <point x="7" y="642"/>
      <point x="7" y="722"/>
      <point x="7" y="642" type="curve"/>
      <point x="127" y="642"/>
      <point x="4" y="642"/>
      <point x="124" y="642" type="curve"/>
      <point x="124" y="722"/>
      <point x="124" y="642"/>
    </contour>
    <contour>
      <point x="134" y="642" type="curve"/>
      <point x="269" y="642"/>
      <point x="131" y="642"/>
      <point x="267" y="642" type="curve"/>
      <point x="267" y="722"/>
      <point x="267" y="642"/>
      <point x="267" y="722" type="curve"/>
      <point x="222" y="722"/>
      <point x="179" y="722"/>
      <point x="134" y="722" type="curve"/>
      <point x="134" y="642"/>
      <point x="134" y="722"/>
    </contour>
    <contour>
      <point x="507" y="642" type="curve"/>
      <point x="630" y="642"/>
      <point x="504" y="642"/>
      <point x="627" y="642" type="curve"/>
      <point x="627" y="722"/>
      <point x="627" y="642"/>
      <point x="627" y="722" type="curve"/>
      <point x="587" y="722"/>
      <point x="548" y="722"/>
      <point x="507" y="722" type="curve"/>
      <point x="507" y="642"/>
      <point x="507" y="722"/>
    </contour>
    <contour>
      <point x="54" y="715" type="curve"/>
      <point x="122" y="589"/>
      <point x="188" y="465"/>
      <point x="255" y="337" type="curve"/>
      <point x="360" y="337"/>
      <point x="244" y="337"/>
      <point x="350" y="337" type="curve"/>
      <point x="285" y="468"/>
      <point x="221" y="593"/>
      <point x="155" y="722" type="curve"/>
      <point x="54" y="722"/>
      <point x="155" y="715"/>
    </contour>
    <contour>
      <point x="477" y="722" type="curve"/>
      <point x="405" y="592"/>
      <point x="338" y="467"/>
      <point x="266" y="337" type="curve"/>
      <point x="371" y="337"/>
      <point x="260" y="337"/>
      <point x="365" y="337" type="curve"/>
      <point x="436" y="464"/>
      <point x="506" y="590"/>
      <point x="578" y="715" type="curve"/>
      <point x="477" y="715"/>
      <point x="578" y="722"/>
    </contour>
    <contour>
      <point x="366" y="0" type="curve"/>
      <point x="366" y="115"/>
      <point x="366" y="227"/>
      <point x="366" y="342" type="curve"/>
      <point x="253" y="342"/>
      <point x="366" y="342"/>
      <point x="253" y="342" type="curve"/>
      <point x="253" y="227"/>
      <point x="253" y="115"/>
      <point x="253" y="0" type="curve"/>
      <point x="366" y="0"/>
      <point x="253" y="0"/>
    </contour>
    <contour>
      <point x="314" y="796" type="move" name="top"/>
    </contour>
  </outline>
</glyph>
<glyph name="Z" format="1">
  <advance width="645"/>
  <unicode hex="005A"/>
  <outline>
    <contour>
      <point x="69" y="682" type="curve"/>
      <point x="69" y="562"/>
      <point x="69" y="685"/>
      <point x="69" y="565" type="curve"/>
      <point x="150" y="565"/>
      <point x="69" y="565"/>
      <point x="150" y="565" type="curve"/>
      <point x="150" y="685"/>
      <point x="150" y="562"/>
      <point x="150" y="682" type="curve"/>
      <point x="69" y="682"/>
      <point x="150" y="682"/>
    </contour>
    <contour>
      <point x="598" y="40" type="curve"/>
      <point x="598" y="160"/>
      <point x="598" y="37"/>
      <point x="598" y="157" type="curve"/>
      <point x="516" y="157"/>
      <point x="598" y="157"/>
      <point x="516" y="157" type="curve"/>
      <point x="516" y="37"/>
      <point x="516" y="160"/>
      <point x="516" y="40" type="curve"/>
      <point x="598" y="40"/>
      <point x="516" y="40"/>
    </contour>
    <contour>
      <point x="69" y="642" type="curve"/>
      <point x="212" y="642"/>
      <point x="390" y="642"/>
      <point x="533" y="642" type="curve"/>
      <point x="525" y="650"/>
      <point x="511" y="649"/>
      <point x="503" y="657" type="curve"/>
      <point x="495" y="664"/>
      <point x="496" y="676"/>
      <point x="489" y="683" type="curve"/>
      <point x="483" y="675"/>
      <point x="472" y="680"/>
      <point x="467" y="673" type="curve"/>
      <point x="36" y="80" type="line"/>
      <point x="36" y="39"/>
      <point x="36" y="80"/>
      <point x="36" y="39" type="curve"/>
      <point x="36" y="0"/>
      <point x="36" y="39"/>
      <point x="36" y="0" type="curve"/>
      <point x="73" y="0"/>
      <point x="36" y="0"/>
      <point x="73" y="0" type="curve"/>
      <point x="585" y="0"/>
      <point x="427" y="0"/>
      <point x="598" y="0" type="curve"/>
      <point x="598" y="80"/>
      <point x="598" y="0"/>
      <point x="598" y="80" type="curve"/>
      <point x="427" y="80"/>
      <point x="244" y="80"/>
      <point x="73" y="80" type="curve"/>
      <point x="81" y="74"/>
      <point x="92" y="74"/>
      <point x="100" y="68" type="curve"/>
      <point x="107" y="60"/>
      <point x="108" y="47"/>
      <point x="116" y="39" type="curve"/>
      <point x="123" y="47"/>
      <point x="136" y="41"/>
      <point x="143" y="49" type="curve"/>
      <point x="576" y="642" type="line"/>
      <point x="576" y="683"/>
      <point x="576" y="642"/>
      <point x="576" y="683" type="curve"/>
      <point x="576" y="722"/>
      <point x="576" y="683"/>
      <point x="576" y="722" type="curve"/>
      <point x="530" y="722"/>
      <point x="576" y="722"/>
      <point x="530" y="722" type="curve"/>
      <point x="387" y="722"/>
      <point x="211" y="722"/>
      <point x="69" y="722" type="curve"/>
      <point x="69" y="642"/>
      <point x="69" y="722"/>
    </contour>
    <contour>
      <point x="322" y="796" type="move" name="top"/>
    </contour>
  </outline>
</glyph>
<glyph name="bracketleft" format="1">
  <advance width="301"/>
  <unicode hex="005B"/>
  <outline>
    <contour>
      <point x="257" y="770" type="curve"/>
      <point x="212" y="770"/>
      <point x="166" y="770"/>
      <point x="121" y="770" type="curve"/>
      <point x="110" y="770"/>
      <point x="87" y="770"/>
      <point x="75" y="770" type="curve"/>
      <point x="75" y="758"/>
      <point x="75" y="743"/>
      <point x="75" y="731" type="curve"/>
      <point x="75" y="461"/>
      <point x="75" y="191"/>
      <point x="75" y="-80" type="curve"/>
      <point x="75" y="-92"/>
      <point x="75" y="-102"/>
      <point x="75" y="-117" type="curve"/>
      <point x="86" y="-117"/>
      <point x="108" y="-117"/>
      <point x="120" y="-117" type="curve"/>
      <point x="165" y="-117"/>
      <point x="211" y="-117"/>
      <point x="257" y="-117" type="curve"/>
      <point x="257" y="-28"/>
      <point x="257" y="-117"/>
      <point x="257" y="-28" type="curve"/>
      <point x="211" y="-28"/>
      <point x="165" y="-28"/>
      <point x="120" y="-28" type="curve"/>
      <point x="179" y="-28"/>
      <point x="120" y="-28"/>
      <point x="179" y="-28" type="curve"/>
      <point x="179" y="-80"/>
      <point x="179" y="-28"/>
      <point x="179" y="-80" type="curve"/>
      <point x="179" y="191"/>
      <point x="179" y="461"/>
      <point x="179" y="731" type="curve"/>
      <point x="179" y="682"/>
      <point x="179" y="731"/>
      <point x="179" y="682" type="curve"/>
      <point x="121" y="682"/>
      <point x="179" y="682"/>
      <point x="121" y="682" type="curve"/>
      <point x="166" y="682"/>
      <point x="212" y="682"/>
      <point x="257" y="682" type="curve"/>
      <point x="257" y="770"/>
      <point x="257" y="682"/>
    </contour>
  </outline>
</glyph>
<glyph name="backslash" format="1">
  <advance width="519"/>
  <unicode hex="005C"/>
  <outline>
    <contour>
      <point x="488" y="-68" type="curve"/>
      <point x="372" y="236"/>
      <point x="256" y="540"/>
      <point x="140" y="844" type="curve"/>
      <point x="31" y="844"/>
      <point x="140" y="844"/>
      <point x="31" y="844" type="curve"/>
      <point x="147" y="540"/>
      <point x="263" y="236"/>
      <point x="379" y="-68" type="curve"/>
      <point x="488" y="-68"/>
      <point x="379" y="-68"/>
    </contour>
  </outline>
</glyph>
<glyph name="bracketright" format="1">
  <advance width="302"/>
  <unicode hex="005D"/>
  <outline>
    <contour>
      <point x="45" y="682" type="curve"/>
      <point x="90" y="682"/>
      <point x="135" y="682"/>
      <point x="180" y="682" type="curve"/>
      <point x="171" y="690"/>
      <point x="157" y="693"/>
      <point x="148" y="702" type="curve"/>
      <point x="138" y="711"/>
      <point x="131" y="722"/>
      <point x="123" y="731" type="curve"/>
      <point x="123" y="461"/>
      <point x="122" y="191"/>
      <point x="123" y="-80" type="curve"/>
      <point x="131" y="-70"/>
      <point x="141" y="-60"/>
      <point x="150" y="-51" type="curve"/>
      <point x="159" y="-42"/>
      <point x="172" y="-38"/>
      <point x="181" y="-28" type="curve"/>
      <point x="136" y="-28"/>
      <point x="90" y="-28"/>
      <point x="45" y="-28" type="curve"/>
      <point x="44" y="-117"/>
      <point x="45" y="-28"/>
      <point x="44" y="-117" type="curve"/>
      <point x="90" y="-117"/>
      <point x="136" y="-117"/>
      <point x="181" y="-117" type="curve"/>
      <point x="226" y="-117"/>
      <point x="181" y="-117"/>
      <point x="226" y="-117" type="curve"/>
      <point x="226" y="-80"/>
      <point x="226" y="-117"/>
      <point x="226" y="-80" type="curve"/>
      <point x="226" y="191"/>
      <point x="226" y="461"/>
      <point x="226" y="731" type="curve"/>
      <point x="226" y="770"/>
      <point x="226" y="731"/>
      <point x="226" y="770" type="curve"/>
      <point x="180" y="770"/>
      <point x="226" y="770"/>
      <point x="180" y="770" type="curve"/>
      <point x="135" y="770"/>
      <point x="90" y="770"/>
      <point x="45" y="770" type="curve"/>
      <point x="45" y="682"/>
      <point x="45" y="770"/>
    </contour>
  </outline>
</glyph>
<glyph name="asciicircum" format="1">
  <advance width="524"/>
  <unicode hex="005E"/>
  <outline>
    <contour>
      <point x="158" y="457" type="curve"/>
      <point x="210" y="563"/>
      <point x="262" y="668"/>
      <point x="313" y="773" type="curve"/>
      <point x="210" y="773"/>
      <point x="313" y="773"/>
      <point x="210" y="773" type="curve"/>
      <point x="158" y="668"/>
      <point x="106" y="563"/>
      <point x="55" y="457" type="curve"/>
      <point x="158" y="457"/>
      <point x="55" y="457"/>
    </contour>
    <contour>
      <point x="469" y="457" type="curve"/>
      <point x="418" y="561"/>
      <point x="364" y="669"/>
      <point x="313" y="773" type="curve"/>
      <point x="210" y="773"/>
      <point x="313" y="773"/>
      <point x="210" y="773" type="curve"/>
      <point x="260" y="669"/>
      <point x="315" y="561"/>
      <point x="366" y="457" type="curve"/>
      <point x="469" y="457"/>
      <point x="366" y="457"/>
    </contour>
  </outline>
</glyph>
<glyph name="underscore" format="1">
  <advance width="606"/>
  <unicode hex="005F"/>
  <outline>
    <contour>
      <point x="0" y="-192" type="curve"/>
      <point x="202" y="-192"/>
      <point x="404" y="-192"/>
      <point x="606" y="-192" type="curve"/>
      <point x="606" y="-112"/>
      <point x="606" y="-192"/>
      <point x="606" y="-112" type="curve"/>
      <point x="404" y="-112"/>
      <point x="202" y="-112"/>
      <point x="0" y="-112" type="curve"/>
      <point x="0" y="-192"/>
      <point x="0" y="-112"/>
    </contour>
  </outline>
</glyph>
<glyph name="grave" format="1">
  <advance width="368"/>
  <unicode hex="0060"/>
  <outline>
    <contour>
      <point x="287" y="580" type="line"/>
      <point x="187" y="746" type="line"/>
      <point x="56" y="746" type="line"/>
      <point x="186" y="580" type="line"/>
    </contour>
    <contour>
      <point x="233" y="580" type="move" name="_top"/>
    </contour>
  </outline>
</glyph>
<glyph name="b" format="1">
  <advance width="634"/>
  <unicode hex="0062"/>
  <outline>
    <contour>
      <point x="163" y="800" type="curve"/>
      <point x="114" y="800"/>
      <point x="73" y="800"/>
      <point x="25" y="800" type="curve"/>
      <point x="24" y="732"/>
      <point x="25" y="788"/>
      <point x="24" y="720" type="curve"/>
      <point x="148" y="720"/>
      <point x="39" y="720"/>
      <point x="163" y="720" type="curve"/>
      <point x="163" y="788"/>
      <point x="163" y="732"/>
    </contour>
    <contour>
      <point x="187" y="362" type="curve"/>
      <point x="218" y="405"/>
      <point x="272" y="455"/>
      <point x="346" y="455" type="curve"/>
      <point x="442" y="455"/>
      <point x="481" y="370"/>
      <point x="481" y="264" type="curve"/>
      <point x="482" y="161"/>
      <point x="439" y="78"/>
      <point x="347" y="78" type="curve"/>
      <point x="282" y="78"/>
      <point x="233" y="111"/>
      <point x="195" y="160" type="curve"/>
      <point x="148" y="128"/>
      <point x="185" y="152"/>
      <point x="139" y="120" type="curve"/>
      <point x="194" y="47"/>
      <point x="258" y="-5"/>
      <point x="359" y="-5" type="curve"/>
      <point x="505" y="-5"/>
      <point x="585" y="108"/>
      <point x="585" y="267" type="curve"/>
      <point x="585" y="425"/>
      <point x="506" y="538"/>
      <point x="360" y="538" type="curve"/>
      <point x="257" y="538"/>
      <point x="188" y="474"/>
      <point x="142" y="407" type="curve"/>
      <point x="180" y="373"/>
      <point x="149" y="395"/>
    </contour>
    <contour>
      <point x="213" y="0" type="curve"/>
      <point x="213" y="274"/>
      <point x="213" y="526"/>
      <point x="213" y="800" type="curve"/>
      <point x="126" y="800"/>
      <point x="196" y="800"/>
      <point x="109" y="800" type="curve"/>
      <point x="109" y="526"/>
      <point x="109" y="274"/>
      <point x="109" y="0" type="curve"/>
      <point x="196" y="0"/>
      <point x="126" y="0"/>
    </contour>
    <contour>
      <point x="163" y="80" type="curve"/>
      <point x="40" y="80"/>
      <point x="148" y="80"/>
      <point x="25" y="80" type="curve"/>
      <point x="25" y="12"/>
      <point x="25" y="68"/>
      <point x="25" y="0" type="curve"/>
      <point x="73" y="0"/>
      <point x="115" y="0"/>
      <point x="163" y="0" type="curve"/>
      <point x="163" y="68"/>
      <point x="163" y="12"/>
    </contour>
  </outline>
</glyph>
<glyph name="d" format="1">
  <advance width="635"/>
  <unicode hex="0064"/>
  <outline>
    <contour>
      <point x="471" y="800" type="curve"/>
      <point x="423" y="800"/>
      <point x="382" y="800"/>
      <point x="334" y="800" type="curve"/>
      <point x="334" y="720"/>
      <point x="334" y="800"/>
      <point x="334" y="720" type="curve"/>
      <point x="477" y="720"/>
      <point x="329" y="720"/>
      <point x="472" y="720" type="curve"/>
      <point x="472" y="800"/>
      <point x="471" y="720"/>
    </contour>
    <contour>
      <point x="473" y="0" type="curve"/>
      <point x="521" y="0"/>
      <point x="563" y="0"/>
      <point x="611" y="0" type="curve"/>
      <point x="611" y="80"/>
      <point x="611" y="0"/>
      <point x="611" y="80" type="curve"/>
      <point x="468" y="80"/>
      <point x="616" y="80"/>
      <point x="473" y="80" type="curve"/>
      <point x="473" y="-1"/>
      <point x="473" y="80"/>
    </contour>
    <contour>
      <point x="482" y="438" type="curve"/>
      <point x="433" y="500"/>
      <point x="363" y="536"/>
      <point x="280" y="536" type="curve"/>
      <point x="129" y="536"/>
      <point x="48" y="422"/>
      <point x="48" y="263" type="curve"/>
      <point x="48" y="106"/>
      <point x="131" y="-3"/>
      <point x="279" y="-3" type="curve"/>
      <point x="373" y="-3"/>
      <point x="438" y="45"/>
      <point x="483" y="126" type="curve"/>
      <point x="441" y="178"/>
      <point x="481" y="126"/>
      <point x="440" y="178" type="curve"/>
      <point x="405" y="116"/>
      <point x="361" y="77"/>
      <point x="296" y="77" type="curve"/>
      <point x="199" y="77"/>
      <point x="152" y="158"/>
      <point x="152" y="267" type="curve"/>
      <point x="152" y="376"/>
      <point x="201" y="456"/>
      <point x="299" y="456" type="curve"/>
      <point x="357" y="456"/>
      <point x="409" y="425"/>
      <point x="442" y="379" type="curve"/>
      <point x="483" y="436"/>
      <point x="440" y="381"/>
    </contour>
    <contour>
      <point x="526" y="0" type="curve"/>
      <point x="526" y="267"/>
      <point x="526" y="533"/>
      <point x="526" y="800" type="curve"/>
      <point x="418" y="800"/>
      <point x="526" y="800"/>
      <point x="418" y="800" type="curve"/>
      <point x="418" y="533"/>
      <point x="418" y="267"/>
      <point x="418" y="0" type="curve"/>
      <point x="526" y="0"/>
      <point x="418" y="0"/>
    </contour>
  </outline>
</glyph>
<glyph name="f" format="1">
  <advance width="447"/>
  <unicode hex="0066"/>
  <outline>
    <contour>
      <point x="347" y="771" type="curve"/>
      <point x="347" y="649"/>
      <point x="347" y="773"/>
      <point x="347" y="651" type="curve"/>
      <point x="428" y="651"/>
      <point x="347" y="651"/>
      <point x="428" y="651" type="curve"/>
      <point x="428" y="773"/>
      <point x="428" y="649"/>
      <point x="428" y="771" type="curve"/>
      <point x="347" y="771"/>
      <point x="428" y="771"/>
    </contour>
    <contour>
      <point x="191" y="-1" type="curve"/>
      <point x="238" y="-1"/>
      <point x="280" y="0"/>
      <point x="328" y="0" type="curve"/>
      <point x="328" y="80"/>
      <point x="328" y="0"/>
      <point x="328" y="80" type="curve"/>
      <point x="183" y="80"/>
      <point x="335" y="80"/>
      <point x="191" y="80" type="curve"/>
      <point x="191" y="-1"/>
      <point x="191" y="80"/>
    </contour>
    <contour>
      <point x="191" y="80" type="curve"/>
      <point x="45" y="80"/>
      <point x="198" y="80"/>
      <point x="53" y="80" type="curve"/>
      <point x="53" y="0"/>
      <point x="53" y="80"/>
      <point x="53" y="0" type="curve"/>
      <point x="101" y="0"/>
      <point x="143" y="-1"/>
      <point x="191" y="-1" type="curve"/>
      <point x="191" y="80"/>
      <point x="191" y="-1"/>
    </contour>
    <contour>
      <point x="30" y="453" type="curve"/>
      <point x="390" y="453" type="line"/>
      <point x="390" y="533"/>
      <point x="390" y="453"/>
      <point x="390" y="533" type="curve"/>
      <point x="30" y="533" type="line"/>
      <point x="30" y="453"/>
      <point x="30" y="533"/>
    </contour>
    <contour>
      <point x="242" y="0" type="curve"/>
      <point x="242" y="616" type="line"/>
      <point x="242" y="678"/>
      <point x="260" y="727"/>
      <point x="317" y="727" type="curve"/>
      <point x="342" y="727"/>
      <point x="365" y="718"/>
      <point x="387" y="707" type="curve"/>
      <point x="428" y="771"/>
      <point x="387" y="707"/>
      <point x="428" y="771" type="curve"/>
      <point x="395" y="790"/>
      <point x="356" y="804"/>
      <point x="317" y="804" type="curve"/>
      <point x="204" y="804"/>
      <point x="137" y="730"/>
      <point x="139" y="616" type="curve"/>
      <point x="139" y="0" type="line"/>
      <point x="242" y="0"/>
      <point x="139" y="0"/>
    </contour>
  </outline>
</glyph>
<glyph name="g" format="1">
  <advance width="537"/>
  <unicode hex="0067"/>
  <outline>
    <contour>
      <point x="377" y="454" type="curve"/>
      <point x="515" y="522" type="line"/>
      <point x="511" y="527"/>
      <point x="476" y="593"/>
      <point x="472" y="597" type="curve"/>
      <point x="323" y="516" type="line"/>
      <point x="377" y="454"/>
      <point x="323" y="516"/>
    </contour>
    <contour>
      <point x="174" y="344" type="curve"/>
      <point x="174" y="410"/>
      <point x="212" y="458"/>
      <point x="278" y="458" type="curve"/>
      <point x="343" y="458"/>
      <point x="378" y="410"/>
      <point x="378" y="344" type="curve"/>
      <point x="378" y="281"/>
      <point x="342" y="237"/>
      <point x="278" y="237" type="curve"/>
      <point x="215" y="237"/>
      <point x="174" y="279"/>
      <point x="174" y="344" type="curve"/>
      <point x="70" y="340"/>
      <point x="174" y="344"/>
      <point x="70" y="340" type="curve"/>
      <point x="70" y="226"/>
      <point x="154" y="157"/>
      <point x="272" y="157" type="curve"/>
      <point x="394" y="157"/>
      <point x="482" y="228"/>
      <point x="482" y="347" type="curve"/>
      <point x="482" y="465"/>
      <point x="398" y="538"/>
      <point x="278" y="538" type="curve"/>
      <point x="154" y="538"/>
      <point x="70" y="461"/>
      <point x="70" y="340" type="curve"/>
      <point x="174" y="344"/>
      <point x="70" y="340"/>
    </contour>
    <contour>
      <point x="164" y="240" type="curve"/>
      <point x="111" y="209"/>
      <point x="74" y="172"/>
      <point x="74" y="111" type="curve"/>
      <point x="74" y="17"/>
      <point x="161" y="-17"/>
      <point x="264" y="-27" type="curve"/>
      <point x="350" y="-34"/>
      <point x="430" y="-50"/>
      <point x="430" y="-127" type="curve"/>
      <point x="430" y="-198"/>
      <point x="359" y="-225"/>
      <point x="277" y="-225" type="curve"/>
      <point x="199" y="-225"/>
      <point x="138" y="-188"/>
      <point x="138" y="-114" type="curve"/>
      <point x="138" y="-57"/>
      <point x="164" y="-16"/>
      <point x="212" y="6" type="curve"/>
      <point x="160" y="54"/>
      <point x="212" y="6"/>
      <point x="160" y="54" type="curve"/>
      <point x="85" y="21"/>
      <point x="34" y="-32"/>
      <point x="34" y="-118" type="curve"/>
      <point x="34" y="-244"/>
      <point x="139" y="-304"/>
      <point x="272" y="-304" type="curve"/>
      <point x="411" y="-304"/>
      <point x="527" y="-250"/>
      <point x="524" y="-119" type="curve"/>
      <point x="524" y="3"/>
      <point x="412" y="39"/>
      <point x="283" y="50" type="curve"/>
      <point x="227" y="54"/>
      <point x="177" y="71"/>
      <point x="177" y="119" type="curve"/>
      <point x="177" y="151"/>
      <point x="190" y="171"/>
      <point x="216" y="189" type="curve"/>
      <point x="164" y="240"/>
      <point x="216" y="189"/>
    </contour>
    <contour>
      <point x="274" y="632" type="move" name="top"/>
    </contour>
  </outline>
</glyph>
<glyph name="h" format="1">
  <advance width="617"/>
  <unicode hex="0068"/>
  <outline>
    <contour>
      <point x="475" y="-1" type="curve"/>
      <point x="524" y="-1"/>
      <point x="565" y="0"/>
      <point x="613" y="0" type="curve"/>
      <point x="613" y="80"/>
      <point x="613" y="0"/>
      <point x="613" y="80" type="curve"/>
      <point x="468" y="80"/>
      <point x="621" y="80"/>
      <point x="475" y="80" type="curve"/>
      <point x="475" y="-1"/>
      <point x="475" y="80"/>
    </contour>
    <contour>
      <point x="146" y="-1" type="curve"/>
      <point x="189" y="-1"/>
      <point x="139" y="-1"/>
      <point x="267" y="0" type="curve"/>
      <point x="267" y="80"/>
      <point x="267" y="0"/>
      <point x="267" y="80" type="curve"/>
      <point x="139" y="80"/>
      <point x="274" y="80"/>
      <point x="146" y="80" type="curve"/>
      <point x="146" y="-1"/>
      <point x="146" y="80"/>
    </contour>
    <contour>
      <point x="146" y="799" type="curve"/>
      <point x="97" y="799"/>
      <point x="56" y="800"/>
      <point x="8" y="800" type="curve"/>
      <point x="7" y="720"/>
      <point x="8" y="800"/>
      <point x="7" y="720" type="curve"/>
      <point x="154" y="720"/>
      <point x="0" y="720"/>
      <point x="146" y="720" type="curve"/>
      <point x="146" y="799"/>
      <point x="146" y="720"/>
    </contour>
    <contour>
      <point x="146" y="80" type="curve"/>
      <point x="0" y="80"/>
      <point x="154" y="80"/>
      <point x="8" y="80" type="curve"/>
      <point x="7" y="0"/>
      <point x="8" y="80"/>
      <point x="7" y="0" type="curve"/>
      <point x="56" y="0"/>
      <point x="97" y="-1"/>
      <point x="146" y="-1" type="curve"/>
      <point x="146" y="80"/>
      <point x="146" y="-1"/>
    </contour>
    <contour>
      <point x="174" y="314" type="curve"/>
      <point x="198" y="388"/>
      <point x="252" y="456"/>
      <point x="325" y="456" type="curve"/>
      <point x="402" y="456"/>
      <point x="424" y="397"/>
      <point x="424" y="317" type="curve"/>
      <point x="424" y="211"/>
      <point x="424" y="107"/>
      <point x="424" y="0" type="curve"/>
      <point x="528" y="0"/>
      <point x="424" y="0"/>
      <point x="528" y="0" type="curve"/>
      <point x="528" y="109"/>
      <point x="528" y="218"/>
      <point x="528" y="328" type="curve"/>
      <point x="528" y="455"/>
      <point x="477" y="536"/>
      <point x="351" y="536" type="curve"/>
      <point x="250" y="536"/>
      <point x="168" y="458"/>
      <point x="139" y="354" type="curve"/>
      <point x="176" y="314"/>
      <point x="138" y="354"/>
    </contour>
    <contour>
      <point x="198" y="0" type="curve"/>
      <point x="198" y="267"/>
      <point x="198" y="533"/>
      <point x="198" y="800" type="curve"/>
      <point x="94" y="800"/>
      <point x="198" y="800"/>
      <point x="94" y="800" type="curve"/>
      <point x="94" y="533"/>
      <point x="94" y="267"/>
      <point x="94" y="0" type="curve"/>
      <point x="198" y="0"/>
      <point x="94" y="0"/>
    </contour>
  </outline>
</glyph>
<glyph name="i" format="1">
  <advance width="317"/>
  <unicode hex="0069"/>
  <outline>
    <contour>
      <point x="168" y="80" type="curve"/>
      <point x="23" y="80"/>
      <point x="176" y="80"/>
      <point x="30" y="80" type="curve"/>
      <point x="30" y="0"/>
      <point x="30" y="80"/>
      <point x="30" y="0" type="curve"/>
      <point x="79" y="0"/>
      <point x="120" y="0"/>
      <point x="168" y="0" type="curve"/>
      <point x="168" y="80"/>
      <point x="168" y="0"/>
    </contour>
    <contour>
      <point x="168" y="0" type="curve"/>
      <point x="214" y="0"/>
      <point x="254" y="0"/>
      <point x="300" y="0" type="curve"/>
      <point x="300" y="80"/>
      <point x="300" y="0"/>
      <point x="300" y="80" type="curve"/>
      <point x="163" y="80"/>
      <point x="305" y="80"/>
      <point x="168" y="80" type="curve"/>
      <point x="168" y="0"/>
      <point x="168" y="80"/>
    </contour>
    <contour>
      <point x="168" y="533" type="curve"/>
      <point x="120" y="533"/>
      <point x="79" y="533"/>
      <point x="30" y="533" type="curve"/>
      <point x="30" y="453"/>
      <point x="30" y="533"/>
      <point x="30" y="453" type="curve"/>
      <point x="176" y="453"/>
      <point x="22" y="453"/>
      <point x="168" y="453" type="curve"/>
      <point x="168" y="533"/>
      <point x="168" y="453"/>
    </contour>
    <contour>
      <point x="223" y="0" type="curve"/>
      <point x="223" y="178"/>
      <point x="223" y="355"/>
      <point x="223" y="533" type="curve"/>
      <point x="114" y="533"/>
      <point x="223" y="533"/>
      <point x="114" y="533" type="curve"/>
      <point x="114" y="355"/>
      <point x="114" y="178"/>
      <point x="114" y="0" type="curve"/>
      <point x="223" y="0"/>
      <point x="114" y="0"/>
    </contour>
    <contour>
      <point x="224" y="682" type="curve"/>
      <point x="224" y="717"/>
      <point x="199" y="735"/>
      <point x="165" y="735" type="curve"/>
      <point x="131" y="735"/>
      <point x="109" y="716"/>
      <point x="109" y="682" type="curve"/>
      <point x="221" y="682"/>
      <point x="111" y="682"/>
      <point x="224" y="682" type="curve"/>
      <point x="224" y="646"/>
      <point x="199" y="629"/>
      <point x="165" y="629" type="curve"/>
      <point x="130" y="629"/>
      <point x="109" y="647"/>
      <point x="109" y="682" type="curve"/>
      <point x="221" y="682"/>
      <point x="111" y="682"/>
    </contour>
    <contour>
      <point x="165" y="632" type="move" name="top"/>
    </contour>
    <contour>
      <point x="216" y="4" type="move" name="bottom"/>
    </contour>
  </outline>
</glyph>
<glyph name="j" format="1">
  <advance width="289"/>
  <unicode hex="006A"/>
  <outline>
    <contour>
      <point x="153" y="533" type="curve"/>
      <point x="104" y="533"/>
      <point x="58" y="533"/>
      <point x="9" y="533" type="curve"/>
      <point x="9" y="453"/>
      <point x="9" y="533"/>
      <point x="9" y="453" type="curve"/>
      <point x="155" y="453"/>
      <point x="7" y="453"/>
      <point x="153" y="453" type="curve"/>
      <point x="153" y="533"/>
      <point x="153" y="453"/>
    </contour>
    <contour>
      <point x="-9" y="-303" type="curve"/>
      <point x="-1" y="-303"/>
      <point x="10" y="-305"/>
      <point x="21" y="-305" type="curve"/>
      <point x="130" y="-305"/>
      <point x="206" y="-235"/>
      <point x="206" y="-127" type="curve"/>
      <point x="206" y="93"/>
      <point x="206" y="313"/>
      <point x="206" y="534" type="curve"/>
      <point x="102" y="534"/>
      <point x="206" y="534"/>
      <point x="102" y="534" type="curve"/>
      <point x="102" y="313"/>
      <point x="102" y="93"/>
      <point x="102" y="-127" type="curve"/>
      <point x="102" y="-182"/>
      <point x="77" y="-227"/>
      <point x="26" y="-227" type="curve"/>
      <point x="19" y="-227"/>
      <point x="12" y="-226"/>
      <point x="6" y="-225" type="curve"/>
      <point x="-9" y="-302"/>
      <point x="6" y="-226"/>
    </contour>
    <contour>
      <point x="211" y="678" type="curve"/>
      <point x="211" y="714"/>
      <point x="186" y="731"/>
      <point x="153" y="731" type="curve"/>
      <point x="118" y="731"/>
      <point x="96" y="712"/>
      <point x="96" y="678" type="curve"/>
      <point x="209" y="678"/>
      <point x="98" y="678"/>
      <point x="211" y="678" type="curve"/>
      <point x="211" y="642"/>
      <point x="187" y="626"/>
      <point x="152" y="626" type="curve"/>
      <point x="118" y="626"/>
      <point x="96" y="643"/>
      <point x="96" y="678" type="curve"/>
      <point x="209" y="678"/>
      <point x="98" y="678"/>
    </contour>
  </outline>
</glyph>
<glyph name="l" format="1">
  <advance width="323"/>
  <unicode hex="006C"/>
  <outline>
    <contour>
      <point x="162" y="80" type="curve"/>
      <point x="16" y="80"/>
      <point x="162" y="80"/>
      <point x="16" y="80" type="curve"/>
      <point x="16" y="0"/>
      <point x="16" y="80"/>
      <point x="16" y="0" type="curve"/>
      <point x="65" y="0"/>
      <point x="113" y="0"/>
      <point x="162" y="0" type="curve"/>
      <point x="162" y="80"/>
      <point x="162" y="-1"/>
    </contour>
    <contour>
      <point x="164" y="800" type="curve"/>
      <point x="115" y="800"/>
      <point x="66" y="800"/>
      <point x="18" y="800" type="curve"/>
      <point x="18" y="720"/>
      <point x="18" y="800"/>
      <point x="18" y="720" type="curve"/>
      <point x="164" y="720"/>
      <point x="18" y="720"/>
      <point x="164" y="720" type="curve"/>
      <point x="164" y="799"/>
      <point x="164" y="720"/>
    </contour>
    <contour>
      <point x="162" y="0" type="curve"/>
      <point x="211" y="0"/>
      <point x="259" y="0"/>
      <point x="308" y="0" type="curve"/>
      <point x="308" y="80"/>
      <point x="308" y="0"/>
      <point x="308" y="80" type="curve"/>
      <point x="162" y="80"/>
      <point x="308" y="80"/>
      <point x="162" y="80" type="curve"/>
      <point x="162" y="-1"/>
      <point x="162" y="80"/>
    </contour>
    <contour>
      <point x="213" y="0" type="curve"/>
      <point x="213" y="267"/>
      <point x="213" y="533"/>
      <point x="213" y="800" type="curve"/>
      <point x="109" y="800"/>
      <point x="213" y="800"/>
      <point x="109" y="800" type="curve"/>
      <point x="109" y="533"/>
      <point x="109" y="267"/>
      <point x="109" y="0" type="curve"/>
      <point x="213" y="0"/>
      <point x="109" y="0"/>
    </contour>
    <contour>
      <point x="163" y="886" type="move" name="top"/>
    </contour>
    <contour>
      <point x="201" y="-18" type="move" name="bottom"/>
    </contour>
  </outline>
</glyph>
<glyph name="m" format="1">
  <advance width="934"/>
  <unicode hex="006D"/>
  <outline>
    <contour>
      <point x="479" y="0" type="curve"/>
      <point x="599" y="0"/>
      <point x="479" y="0"/>
      <point x="599" y="0" type="curve"/>
      <point x="599" y="80"/>
      <point x="599" y="0"/>
      <point x="599" y="80" type="curve"/>
      <point x="479" y="80"/>
      <point x="599" y="80"/>
      <point x="479" y="80" type="curve"/>
      <point x="479" y="0"/>
      <point x="479" y="80"/>
    </contour>
    <contour>
      <point x="775" y="0" type="curve"/>
      <point x="819" y="0"/>
      <point x="862" y="0"/>
      <point x="908" y="0" type="curve"/>
      <point x="908" y="80"/>
      <point x="908" y="0"/>
      <point x="908" y="80" type="curve"/>
      <point x="772" y="80"/>
      <point x="910" y="80"/>
      <point x="775" y="80" type="curve"/>
      <point x="775" y="0"/>
      <point x="775" y="80"/>
    </contour>
    <contour>
      <point x="184" y="80" type="curve"/>
      <point x="44" y="80"/>
      <point x="187" y="80"/>
      <point x="46" y="80" type="curve"/>
      <point x="46" y="0"/>
      <point x="46" y="80"/>
      <point x="46" y="0" type="curve"/>
      <point x="93" y="0"/>
      <point x="137" y="0"/>
      <point x="184" y="0" type="curve"/>
      <point x="184" y="80"/>
      <point x="184" y="0"/>
    </contour>
    <contour>
      <point x="184" y="0" type="curve"/>
      <point x="225" y="0"/>
      <point x="179" y="0"/>
      <point x="302" y="0" type="curve"/>
      <point x="302" y="80"/>
      <point x="302" y="0"/>
      <point x="302" y="80" type="curve"/>
      <point x="179" y="80"/>
      <point x="307" y="80"/>
      <point x="184" y="80" type="curve"/>
      <point x="184" y="0"/>
      <point x="184" y="80"/>
    </contour>
    <contour>
      <point x="184" y="533" type="curve"/>
      <point x="137" y="533"/>
      <point x="93" y="533"/>
      <point x="46" y="533" type="curve"/>
      <point x="46" y="453"/>
      <point x="46" y="533"/>
      <point x="46" y="453" type="curve"/>
      <point x="187" y="453"/>
      <point x="43" y="453"/>
      <point x="184" y="453" type="curve"/>
      <point x="184" y="533"/>
      <point x="184" y="453"/>
    </contour>
    <contour>
      <point x="507" y="298" type="curve"/>
      <point x="535" y="379"/>
      <point x="568" y="455"/>
      <point x="638" y="455" type="curve"/>
      <point x="714" y="455"/>
      <point x="722" y="402"/>
      <point x="722" y="319" type="curve"/>
      <point x="722" y="213"/>
      <point x="722" y="107"/>
      <point x="722" y="0" type="curve"/>
      <point x="825" y="0"/>
      <point x="722" y="0"/>
      <point x="825" y="0" type="curve"/>
      <point x="825" y="109"/>
      <point x="825" y="218"/>
      <point x="825" y="328" type="curve"/>
      <point x="825" y="459"/>
      <point x="797" y="538"/>
      <point x="670" y="538" type="curve"/>
      <point x="568" y="538"/>
      <point x="507" y="456"/>
      <point x="472" y="343" type="curve"/>
      <point x="510" y="299"/>
      <point x="469" y="341"/>
    </contour>
    <contour>
      <point x="213" y="299" type="curve"/>
      <point x="238" y="379"/>
      <point x="272" y="455"/>
      <point x="343" y="455" type="curve"/>
      <point x="418" y="455"/>
      <point x="427" y="402"/>
      <point x="427" y="319" type="curve"/>
      <point x="427" y="213"/>
      <point x="427" y="107"/>
      <point x="427" y="0" type="curve"/>
      <point x="531" y="0"/>
      <point x="427" y="0"/>
      <point x="531" y="0" type="curve"/>
      <point x="531" y="109"/>
      <point x="531" y="218"/>
      <point x="531" y="328" type="curve"/>
      <point x="531" y="459"/>
      <point x="503" y="538"/>
      <point x="376" y="538" type="curve"/>
      <point x="272" y="538"/>
      <point x="216" y="459"/>
      <point x="177" y="344" type="curve"/>
      <point x="215" y="300"/>
      <point x="175" y="342"/>
    </contour>
    <contour>
      <point x="236" y="0" type="curve"/>
      <point x="236" y="178"/>
      <point x="236" y="355"/>
      <point x="236" y="533" type="curve"/>
      <point x="132" y="533"/>
      <point x="236" y="533"/>
      <point x="132" y="533" type="curve"/>
      <point x="132" y="355"/>
      <point x="132" y="178"/>
      <point x="132" y="0" type="curve"/>
      <point x="236" y="0"/>
      <point x="132" y="0"/>
    </contour>
  </outline>
</glyph>
<glyph name="n" format="1">
  <advance width="640"/>
  <unicode hex="006E"/>
  <outline>
    <contour>
      <point x="198" y="289" type="curve"/>
      <point x="218" y="379"/>
      <point x="270" y="455"/>
      <point x="344" y="455" type="curve"/>
      <point x="418" y="455"/>
      <point x="446" y="399"/>
      <point x="446" y="319" type="curve"/>
      <point x="446" y="211"/>
      <point x="446" y="108"/>
      <point x="446" y="0" type="curve"/>
      <point x="532" y="0"/>
      <point x="463" y="0"/>
      <point x="549" y="0" type="curve"/>
      <point x="549" y="111"/>
      <point x="549" y="217"/>
      <point x="549" y="328" type="curve"/>
      <point x="549" y="455"/>
      <point x="501" y="538"/>
      <point x="377" y="538" type="curve"/>
      <point x="271" y="538"/>
      <point x="189" y="461"/>
      <point x="161" y="333" type="curve"/>
      <point x="189" y="295"/>
      <point x="169" y="326"/>
    </contour>
    <contour>
      <point x="497" y="0" type="curve"/>
      <point x="545" y="0"/>
      <point x="586" y="0"/>
      <point x="635" y="0" type="curve"/>
      <point x="635" y="80"/>
      <point x="635" y="0"/>
      <point x="635" y="80" type="curve"/>
      <point x="489" y="80"/>
      <point x="642" y="80"/>
      <point x="497" y="80" type="curve"/>
      <point x="497" y="0"/>
      <point x="497" y="80"/>
    </contour>
    <contour>
      <point x="168" y="80" type="curve"/>
      <point x="22" y="80"/>
      <point x="175" y="80"/>
      <point x="29" y="80" type="curve"/>
      <point x="29" y="0"/>
      <point x="29" y="80"/>
      <point x="29" y="0" type="curve"/>
      <point x="78" y="0"/>
      <point x="119" y="0"/>
      <point x="168" y="0" type="curve"/>
      <point x="168" y="80"/>
      <point x="168" y="0"/>
    </contour>
    <contour>
      <point x="168" y="0" type="curve"/>
      <point x="212" y="0"/>
      <point x="158" y="0"/>
      <point x="292" y="0" type="curve"/>
      <point x="292" y="80"/>
      <point x="292" y="0"/>
      <point x="292" y="80" type="curve"/>
      <point x="158" y="80"/>
      <point x="302" y="80"/>
      <point x="168" y="80" type="curve"/>
      <point x="168" y="0"/>
      <point x="168" y="80"/>
    </contour>
    <contour>
      <point x="220" y="0" type="curve"/>
      <point x="220" y="178"/>
      <point x="220" y="355"/>
      <point x="220" y="533" type="curve"/>
      <point x="116" y="533"/>
      <point x="220" y="533"/>
      <point x="116" y="533" type="curve"/>
      <point x="116" y="355"/>
      <point x="116" y="178"/>
      <point x="116" y="0" type="curve"/>
      <point x="220" y="0"/>
      <point x="116" y="0"/>
    </contour>
    <contour>
      <point x="168" y="533" type="curve"/>
      <point x="119" y="533"/>
      <point x="78" y="533"/>
      <point x="29" y="533" type="curve"/>
      <point x="29" y="453"/>
      <point x="29" y="533"/>
      <point x="29" y="453" type="curve"/>
      <point x="175" y="453"/>
      <point x="22" y="453"/>
      <point x="168" y="453" type="curve"/>
      <point x="168" y="533"/>
      <point x="168" y="453"/>
    </contour>
    <contour>
      <point x="337" y="632" type="move" name="top"/>
    </contour>
    <contour>
      <point x="367" y="-12" type="move" name="bottom"/>
    </contour>
  </outline>
</glyph>
<glyph name="p" format="1">
  <advance width="620"/>
  <unicode hex="0070"/>
  <outline>
    <contour>
      <point x="145" y="-220" type="curve"/>
      <point x="-1" y="-220"/>
      <point x="153" y="-220"/>
      <point x="6" y="-220" type="curve"/>
      <point x="6" y="-300"/>
      <point x="6" y="-220"/>
      <point x="6" y="-300" type="curve"/>
      <point x="55" y="-300"/>
      <point x="96" y="-300"/>
      <point x="145" y="-300" type="curve"/>
      <point x="145" y="-220"/>
      <point x="145" y="-300"/>
    </contour>
    <contour>
      <point x="145" y="-300" type="curve"/>
      <point x="191" y="-300"/>
      <point x="230" y="-300"/>
      <point x="275" y="-300" type="curve"/>
      <point x="275" y="-220"/>
      <point x="275" y="-300"/>
      <point x="275" y="-220" type="curve"/>
      <point x="138" y="-220"/>
      <point x="283" y="-220"/>
      <point x="145" y="-220" type="curve"/>
      <point x="145" y="-300"/>
      <point x="145" y="-220"/>
    </contour>
    <contour>
      <point x="146" y="533" type="curve"/>
      <point x="97" y="533"/>
      <point x="56" y="533"/>
      <point x="7" y="533" type="curve"/>
      <point x="7" y="453"/>
      <point x="7" y="533"/>
      <point x="7" y="453" type="curve"/>
      <point x="154" y="453"/>
      <point x="0" y="453"/>
      <point x="146" y="453" type="curve"/>
      <point x="146" y="533"/>
      <point x="146" y="453"/>
    </contour>
    <contour>
      <point x="171" y="334" type="curve"/>
      <point x="201" y="397"/>
      <point x="258" y="457"/>
      <point x="331" y="457" type="curve"/>
      <point x="433" y="457"/>
      <point x="468" y="372"/>
      <point x="468" y="267" type="curve"/>
      <point x="470" y="160"/>
      <point x="432" y="75"/>
      <point x="331" y="75" type="curve"/>
      <point x="265" y="75"/>
      <point x="218" y="106"/>
      <point x="174" y="154" type="curve"/>
      <point x="139" y="118"/>
      <point x="167" y="144"/>
      <point x="132" y="107" type="curve"/>
      <point x="189" y="37"/>
      <point x="256" y="-5"/>
      <point x="349" y="-5" type="curve"/>
      <point x="503" y="-5"/>
      <point x="572" y="115"/>
      <point x="572" y="271" type="curve"/>
      <point x="572" y="422"/>
      <point x="504" y="539"/>
      <point x="352" y="539" type="curve"/>
      <point x="254" y="539"/>
      <point x="182" y="474"/>
      <point x="138" y="398" type="curve"/>
      <point x="165" y="343"/>
      <point x="144" y="389"/>
    </contour>
    <contour>
      <point x="197" y="-300" type="curve"/>
      <point x="197" y="-22"/>
      <point x="197" y="255"/>
      <point x="197" y="533" type="curve"/>
      <point x="94" y="533"/>
      <point x="197" y="533"/>
      <point x="94" y="533" type="curve"/>
      <point x="94" y="255"/>
      <point x="94" y="-22"/>
      <point x="94" y="-300" type="curve"/>
      <point x="197" y="-300"/>
      <point x="94" y="-300"/>
    </contour>
  </outline>
</glyph>
<glyph name="q" format="1">
  <advance width="636"/>
  <unicode hex="0071"/>
  <outline>
    <contour>
      <point x="478" y="453" type="curve"/>
      <point x="594" y="453"/>
      <point x="490" y="453"/>
      <point x="607" y="453" type="curve"/>
      <point x="607" y="520"/>
      <point x="607" y="466"/>
      <point x="607" y="533" type="curve"/>
      <point x="560" y="533"/>
      <point x="524" y="533"/>
      <point x="478" y="533" type="curve"/>
      <point x="478" y="466"/>
      <point x="478" y="520"/>
    </contour>
    <contour>
      <point x="477" y="-220" type="curve"/>
      <point x="352" y="-220"/>
      <point x="464" y="-220"/>
      <point x="339" y="-220" type="curve"/>
      <point x="339" y="-287"/>
      <point x="339" y="-232"/>
      <point x="339" y="-300" type="curve"/>
      <point x="389" y="-300"/>
      <point x="427" y="-300"/>
      <point x="477" y="-300" type="curve"/>
      <point x="477" y="-232"/>
      <point x="477" y="-287"/>
    </contour>
    <contour>
      <point x="477" y="-300" type="curve"/>
      <point x="524" y="-300"/>
      <point x="560" y="-300"/>
      <point x="606" y="-300" type="curve"/>
      <point x="606" y="-232"/>
      <point x="606" y="-287"/>
      <point x="606" y="-220" type="curve"/>
      <point x="489" y="-220"/>
      <point x="594" y="-220"/>
      <point x="477" y="-220" type="curve"/>
      <point x="477" y="-287"/>
      <point x="477" y="-232"/>
    </contour>
    <contour>
      <point x="486" y="406" type="curve"/>
      <point x="436" y="488"/>
      <point x="361" y="538"/>
      <point x="271" y="538" type="curve"/>
      <point x="116" y="538"/>
      <point x="48" y="420"/>
      <point x="48" y="264" type="curve"/>
      <point x="49" y="109"/>
      <point x="122" y="-5"/>
      <point x="276" y="-5" type="curve"/>
      <point x="367" y="-5"/>
      <point x="438" y="54"/>
      <point x="490" y="129" type="curve"/>
      <point x="459" y="167"/>
      <point x="480" y="138"/>
      <point x="449" y="176" type="curve"/>
      <point x="413" y="116"/>
      <point x="358" y="75"/>
      <point x="291" y="75" type="curve"/>
      <point x="192" y="75"/>
      <point x="152" y="160"/>
      <point x="152" y="268" type="curve"/>
      <point x="152" y="373"/>
      <point x="192" y="456"/>
      <point x="289" y="456" type="curve"/>
      <point x="353" y="456"/>
      <point x="408" y="424"/>
      <point x="453" y="357" type="curve"/>
      <point x="476" y="398"/>
      <point x="463" y="366"/>
    </contour>
    <contour>
      <point x="530" y="-300" type="curve"/>
      <point x="530" y="-17"/>
      <point x="530" y="250"/>
      <point x="530" y="533" type="curve"/>
      <point x="440" y="533"/>
      <point x="512" y="533"/>
      <point x="422" y="533" type="curve"/>
      <point x="422" y="250"/>
      <point x="422" y="-17"/>
      <point x="422" y="-300" type="curve"/>
      <point x="512" y="-300"/>
      <point x="440" y="-300"/>
    </contour>
  </outline>
</glyph>
<glyph name="s" format="1">
  <advance width="485"/>
  <unicode hex="0073"/>
  <outline>
    <contour>
      <point x="56" y="48" type="curve"/>
      <point x="119" y="16"/>
      <point x="176" y="-5"/>
      <point x="243" y="-5" type="curve"/>
      <point x="359" y="-5"/>
      <point x="437" y="45"/>
      <point x="437" y="152" type="curve"/>
      <point x="436" y="253"/>
      <point x="357" y="281"/>
      <point x="256" y="314" type="curve"/>
      <point x="203" y="331"/>
      <point x="161" y="353"/>
      <point x="161" y="399" type="curve"/>
      <point x="161" y="433"/>
      <point x="190" y="456"/>
      <point x="235" y="456" type="curve"/>
      <point x="276" y="456"/>
      <point x="321" y="439"/>
      <point x="349" y="420" type="curve"/>
      <point x="394" y="489"/>
      <point x="351" y="424"/>
      <point x="396" y="492" type="curve"/>
      <point x="358" y="517"/>
      <point x="295" y="538"/>
      <point x="238" y="538" type="curve"/>
      <point x="136" y="538"/>
      <point x="67" y="493"/>
      <point x="67" y="399" type="curve"/>
      <point x="67" y="306"/>
      <point x="130" y="267"/>
      <point x="223" y="237" type="curve"/>
      <point x="283" y="217"/>
      <point x="338" y="200"/>
      <point x="337" y="147" type="curve"/>
      <point x="337" y="104"/>
      <point x="302" y="79"/>
      <point x="253" y="79" type="curve"/>
      <point x="199" y="79"/>
      <point x="157" y="95"/>
      <point x="108" y="120" type="curve"/>
      <point x="56" y="48"/>
      <point x="108" y="120"/>
    </contour>
    <contour>
      <point x="314" y="492" type="curve"/>
      <point x="314" y="367"/>
      <point x="314" y="492"/>
      <point x="314" y="366" type="curve"/>
      <point x="396" y="366"/>
      <point x="314" y="366"/>
      <point x="396" y="366" type="curve"/>
      <point x="396" y="492"/>
      <point x="396" y="367"/>
      <point x="396" y="492" type="curve"/>
      <point x="318" y="492"/>
      <point x="393" y="492"/>
    </contour>
    <contour>
      <point x="137" y="48" type="curve"/>
      <point x="137" y="175"/>
      <point x="137" y="50"/>
      <point x="137" y="177" type="curve"/>
      <point x="55" y="177"/>
      <point x="137" y="177"/>
      <point x="55" y="177" type="curve"/>
      <point x="55" y="50"/>
      <point x="55" y="175"/>
      <point x="55" y="48" type="curve"/>
      <point x="137" y="48"/>
      <point x="55" y="48"/>
    </contour>
    <contour>
      <point x="241" y="632" type="move" name="top"/>
    </contour>
    <contour>
      <point x="273" y="-18" type="move" name="bottom"/>
    </contour>
  </outline>
</glyph>
<glyph name="t" format="1">
  <advance width="380"/>
  <unicode hex="0074"/>
  <outline>
    <contour>
      <point x="15" y="452" type="curve"/>
      <point x="354" y="452" type="line"/>
      <point x="354" y="533"/>
      <point x="354" y="452"/>
      <point x="354" y="533" type="curve"/>
      <point x="15" y="533" type="line"/>
      <point x="15" y="452"/>
      <point x="15" y="533"/>
    </contour>
    <contour>
      <point x="324" y="98" type="curve"/>
      <point x="303" y="85"/>
      <point x="287" y="78"/>
      <point x="262" y="78" type="curve"/>
      <point x="216" y="78"/>
      <point x="204" y="113"/>
      <point x="204" y="165" type="curve"/>
      <point x="204" y="682" type="line"/>
      <point x="134" y="638"/>
      <point x="170" y="661"/>
      <point x="100" y="617" type="curve"/>
      <point x="100" y="161" type="line"/>
      <point x="100" y="55"/>
      <point x="150" y="-6"/>
      <point x="249" y="-6" type="curve"/>
      <point x="295" y="-6"/>
      <point x="326" y="8"/>
      <point x="362" y="28" type="curve"/>
      <point x="324" y="98"/>
      <point x="362" y="28"/>
    </contour>
    <contour>
      <point x="277" y="-16" type="move" name="bottom"/>
    </contour>
  </outline>
</glyph>
<glyph name="v" format="1">
  <advance width="622"/>
  <unicode hex="0076"/>
  <outline>
    <contour>
      <point x="132" y="533" type="curve"/>
      <point x="92" y="533"/>
      <point x="54" y="533"/>
      <point x="14" y="533" type="curve"/>
      <point x="14" y="453"/>
      <point x="14" y="533"/>
      <point x="14" y="453" type="curve"/>
      <point x="135" y="453"/>
      <point x="12" y="453"/>
      <point x="132" y="453" type="curve"/>
      <point x="132" y="533"/>
      <point x="132" y="453"/>
    </contour>
    <contour>
      <point x="132" y="453" type="curve"/>
      <point x="265" y="453"/>
      <point x="130" y="453"/>
      <point x="263" y="453" type="curve"/>
      <point x="263" y="533"/>
      <point x="263" y="453"/>
      <point x="263" y="533" type="curve"/>
      <point x="219" y="533"/>
      <point x="177" y="533"/>
      <point x="132" y="533" type="curve"/>
      <point x="132" y="453"/>
      <point x="132" y="533"/>
    </contour>
    <contour>
      <point x="498" y="533" type="curve"/>
      <point x="453" y="533"/>
      <point x="410" y="533"/>
      <point x="365" y="533" type="curve"/>
      <point x="365" y="453"/>
      <point x="365" y="533"/>
      <point x="365" y="453" type="curve"/>
      <point x="500" y="453"/>
      <point x="363" y="453"/>
      <point x="498" y="453" type="curve"/>
      <point x="498" y="533"/>
      <point x="498" y="453"/>
    </contour>
    <contour>
      <point x="498" y="453" type="curve"/>
      <point x="618" y="453"/>
      <point x="496" y="453"/>
      <point x="616" y="453" type="curve"/>
      <point x="616" y="533"/>
      <point x="616" y="453"/>
      <point x="616" y="533" type="curve"/>
      <point x="576" y="533"/>
      <point x="538" y="533"/>
      <point x="498" y="533" type="curve"/>
      <point x="498" y="453"/>
      <point x="498" y="533"/>
    </contour>
    <contour>
      <point x="67" y="533" type="curve"/>
      <point x="129" y="355"/>
      <point x="190" y="178"/>
      <point x="252" y="0" type="curve"/>
      <point x="351" y="0"/>
      <point x="252" y="0"/>
      <point x="351" y="0" type="curve"/>
      <point x="290" y="178"/>
      <point x="234" y="355"/>
      <point x="173" y="533" type="curve"/>
      <point x="67" y="533"/>
      <point x="173" y="533"/>
    </contour>
    <contour>
      <point x="458" y="533" type="curve"/>
      <point x="270" y="0" type="line"/>
      <point x="370" y="0"/>
      <point x="270" y="0"/>
      <point x="370" y="0" type="curve"/>
      <point x="434" y="178"/>
      <point x="499" y="355"/>
      <point x="563" y="533" type="curve"/>
      <point x="458" y="533"/>
      <point x="563" y="533"/>
    </contour>
  </outline>
</glyph>
<glyph name="w" format="1">
  <advance width="908"/>
  <unicode hex="0077"/>
  <outline>
    <contour>
      <point x="771" y="453" type="curve"/>
      <point x="900" y="453"/>
      <point x="769" y="453"/>
      <point x="898" y="453" type="curve"/>
      <point x="898" y="533"/>
      <point x="898" y="453"/>
      <point x="898" y="533" type="curve"/>
      <point x="855" y="533"/>
      <point x="814" y="533"/>
      <point x="771" y="533" type="curve"/>
      <point x="771" y="453"/>
      <point x="771" y="533"/>
    </contour>
    <contour>
      <point x="771" y="533" type="curve"/>
      <point x="727" y="533"/>
      <point x="690" y="533"/>
      <point x="647" y="533" type="curve"/>
      <point x="647" y="453"/>
      <point x="647" y="533"/>
      <point x="647" y="453" type="curve"/>
      <point x="778" y="453"/>
      <point x="639" y="453"/>
      <point x="771" y="453" type="curve"/>
      <point x="771" y="533"/>
      <point x="771" y="453"/>
    </contour>
    <contour>
      <point x="139" y="533" type="curve"/>
      <point x="96" y="533"/>
      <point x="54" y="533"/>
      <point x="11" y="533" type="curve"/>
      <point x="11" y="453"/>
      <point x="11" y="533"/>
      <point x="11" y="453" type="curve"/>
      <point x="141" y="453"/>
      <point x="9" y="453"/>
      <point x="139" y="453" type="curve"/>
      <point x="139" y="533"/>
      <point x="139" y="453"/>
    </contour>
    <contour>
      <point x="139" y="453" type="curve"/>
      <point x="268" y="453"/>
      <point x="134" y="453"/>
      <point x="263" y="453" type="curve"/>
      <point x="263" y="533"/>
      <point x="263" y="453"/>
      <point x="263" y="533" type="curve"/>
      <point x="220" y="533"/>
      <point x="181" y="533"/>
      <point x="139" y="533" type="curve"/>
      <point x="139" y="453"/>
      <point x="139" y="533"/>
    </contour>
    <contour>
      <point x="325" y="0" type="curve"/>
      <point x="386" y="178"/>
      <point x="446" y="355"/>
      <point x="506" y="533" type="curve"/>
      <point x="410" y="533"/>
      <point x="506" y="533"/>
      <point x="410" y="533" type="curve"/>
      <point x="351" y="355"/>
      <point x="292" y="178"/>
      <point x="233" y="0" type="curve"/>
      <point x="325" y="0"/>
      <point x="233" y="0"/>
    </contour>
    <contour>
      <point x="745" y="533" type="curve"/>
      <point x="689" y="355"/>
      <point x="634" y="178"/>
      <point x="579" y="0" type="curve"/>
      <point x="671" y="0"/>
      <point x="579" y="0"/>
      <point x="671" y="0" type="curve"/>
      <point x="728" y="178"/>
      <point x="784" y="355"/>
      <point x="840" y="533" type="curve"/>
      <point x="745" y="533"/>
      <point x="840" y="533"/>
    </contour>
    <contour>
      <point x="416" y="533" type="curve"/>
      <point x="470" y="355"/>
      <point x="524" y="178"/>
      <point x="578" y="0" type="curve"/>
      <point x="671" y="0"/>
      <point x="578" y="0"/>
      <point x="671" y="0" type="curve"/>
      <point x="617" y="178"/>
      <point x="563" y="355"/>
      <point x="510" y="533" type="curve"/>
      <point x="416" y="533"/>
      <point x="510" y="533"/>
    </contour>
    <contour>
      <point x="70" y="533" type="curve"/>
      <point x="124" y="355"/>
      <point x="178" y="178"/>
      <point x="232" y="0" type="curve"/>
      <point x="324" y="0"/>
      <point x="232" y="0"/>
      <point x="324" y="0" type="curve"/>
      <point x="271" y="178"/>
      <point x="218" y="355"/>
      <point x="165" y="533" type="curve"/>
      <point x="70" y="533"/>
      <point x="165" y="533"/>
    </contour>
  </outline>
</glyph>
<glyph name="x" format="1">
  <advance width="615"/>
  <unicode hex="0078"/>
  <outline>
    <contour>
      <point x="122" y="80" type="curve"/>
      <point x="13" y="80"/>
      <point x="127" y="80"/>
      <point x="18" y="80" type="curve"/>
      <point x="18" y="0"/>
      <point x="18" y="80"/>
      <point x="18" y="0" type="curve"/>
      <point x="54" y="0"/>
      <point x="86" y="0"/>
      <point x="122" y="0" type="curve"/>
      <point x="122" y="80"/>
      <point x="122" y="0"/>
    </contour>
    <contour>
      <point x="507" y="80" type="curve"/>
      <point x="352" y="80"/>
      <point x="507" y="80"/>
      <point x="352" y="80" type="curve"/>
      <point x="352" y="0"/>
      <point x="352" y="80"/>
      <point x="352" y="0" type="curve"/>
      <point x="403" y="0"/>
      <point x="456" y="0"/>
      <point x="507" y="0" type="curve"/>
      <point x="507" y="80"/>
      <point x="507" y="0"/>
    </contour>
    <contour>
      <point x="498" y="0" type="curve"/>
      <point x="534" y="0"/>
      <point x="571" y="0"/>
      <point x="606" y="0" type="curve"/>
      <point x="606" y="80"/>
      <point x="606" y="0"/>
      <point x="606" y="80" type="curve"/>
      <point x="498" y="80"/>
      <point x="606" y="80"/>
      <point x="498" y="80" type="curve"/>
      <point x="498" y="0"/>
      <point x="498" y="80"/>
    </contour>
    <contour>
      <point x="113" y="0" type="curve"/>
      <point x="165" y="0"/>
      <point x="112" y="0"/>
      <point x="268" y="0" type="curve"/>
      <point x="268" y="80"/>
      <point x="268" y="0"/>
      <point x="268" y="80" type="curve"/>
      <point x="112" y="80"/>
      <point x="269" y="80"/>
      <point x="113" y="80" type="curve"/>
      <point x="113" y="0"/>
      <point x="113" y="80"/>
    </contour>
    <contour>
      <point x="480" y="453" type="curve"/>
      <point x="593" y="453"/>
      <point x="483" y="453"/>
      <point x="596" y="453" type="curve"/>
      <point x="596" y="533"/>
      <point x="596" y="453"/>
      <point x="596" y="533" type="curve"/>
      <point x="558" y="533"/>
      <point x="518" y="533"/>
      <point x="480" y="533" type="curve"/>
      <point x="480" y="453"/>
      <point x="480" y="533"/>
    </contour>
    <contour>
      <point x="158" y="533" type="curve"/>
      <point x="118" y="533"/>
      <point x="81" y="533"/>
      <point x="41" y="533" type="curve"/>
      <point x="41" y="453"/>
      <point x="41" y="533"/>
      <point x="41" y="453" type="curve"/>
      <point x="160" y="453"/>
      <point x="39" y="453"/>
      <point x="158" y="453" type="curve"/>
      <point x="158" y="533"/>
      <point x="158" y="453"/>
    </contour>
    <contour>
      <point x="139" y="453" type="curve"/>
      <point x="286" y="453"/>
      <point x="129" y="453"/>
      <point x="276" y="453" type="curve"/>
      <point x="276" y="533"/>
      <point x="276" y="453"/>
      <point x="276" y="533" type="curve"/>
      <point x="228" y="533"/>
      <point x="188" y="533"/>
      <point x="139" y="533" type="curve"/>
      <point x="139" y="453"/>
      <point x="139" y="533"/>
    </contour>
    <contour>
      <point x="494" y="533" type="curve"/>
      <point x="445" y="533"/>
      <point x="405" y="533"/>
      <point x="356" y="533" type="curve"/>
      <point x="356" y="453"/>
      <point x="356" y="533"/>
      <point x="356" y="453" type="curve"/>
      <point x="504" y="453"/>
      <point x="347" y="453"/>
      <point x="494" y="453" type="curve"/>
      <point x="494" y="533"/>
      <point x="494" y="453"/>
    </contour>
    <contour>
      <point x="550" y="29" type="curve"/>
      <point x="506" y="92"/>
      <point x="210" y="470"/>
      <point x="167" y="533" type="curve"/>
      <point x="88" y="533"/>
      <point x="166" y="500"/>
      <point x="87" y="500" type="curve"/>
      <point x="130" y="437"/>
      <point x="420" y="63"/>
      <point x="462" y="0" type="curve"/>
      <point x="548" y="0"/>
      <point x="464" y="29"/>
    </contour>
    <contour>
      <point x="468" y="533" type="curve"/>
      <point x="424" y="470"/>
      <point x="116" y="96"/>
      <point x="73" y="33" type="curve"/>
      <point x="156" y="33"/>
      <point x="74" y="0"/>
      <point x="158" y="0" type="curve"/>
      <point x="201" y="63"/>
      <point x="504" y="439"/>
      <point x="547" y="502" type="curve"/>
      <point x="467" y="502"/>
      <point x="548" y="533"/>
    </contour>
  </outline>
</glyph>
<glyph name="braceleft" format="1">
  <advance width="290"/>
  <unicode hex="007B"/>
  <outline>
    <contour>
      <point x="242" y="-34" type="curve"/>
      <point x="197" y="-34"/>
      <point x="186" y="4"/>
      <point x="186" y="52" type="curve"/>
      <point x="186" y="106"/>
      <point x="186" y="160"/>
      <point x="186" y="213" type="curve"/>
      <point x="186" y="313"/>
      <point x="133" y="382"/>
      <point x="37" y="382" type="curve"/>
      <point x="37" y="298"/>
      <point x="37" y="382"/>
      <point x="37" y="298" type="curve"/>
      <point x="78" y="298"/>
      <point x="92" y="265"/>
      <point x="92" y="221" type="curve"/>
      <point x="92" y="166"/>
      <point x="92" y="111"/>
      <point x="92" y="56" type="curve"/>
      <point x="92" y="-45"/>
      <point x="144" y="-113"/>
      <point x="242" y="-113" type="curve"/>
      <point x="242" y="-34"/>
      <point x="242" y="-113"/>
    </contour>
    <contour>
      <point x="242" y="793" type="curve"/>
      <point x="144" y="793"/>
      <point x="92" y="727"/>
      <point x="92" y="626" type="curve"/>
      <point x="92" y="570"/>
      <point x="92" y="513"/>
      <point x="92" y="456" type="curve"/>
      <point x="92" y="413"/>
      <point x="77" y="382"/>
      <point x="37" y="382" type="curve"/>
      <point x="37" y="298"/>
      <point x="37" y="382"/>
      <point x="37" y="298" type="curve"/>
      <point x="134" y="298"/>
      <point x="186" y="367"/>
      <point x="186" y="468" type="curve"/>
      <point x="186" y="521"/>
      <point x="186" y="573"/>
      <point x="186" y="626" type="curve"/>
      <point x="186" y="675"/>
      <point x="196" y="713"/>
      <point x="242" y="713" type="curve"/>
      <point x="242" y="793"/>
      <point x="242" y="713"/>
    </contour>
  </outline>
</glyph>
<glyph name="bar" format="1">
  <advance width="256"/>
  <unicode hex="007C"/>
  <outline>
    <contour>
      <point x="180" y="-300" type="curve"/>
      <point x="180" y="67"/>
      <point x="180" y="433"/>
      <point x="180" y="800" type="curve"/>
      <point x="76" y="800"/>
      <point x="180" y="800"/>
      <point x="76" y="800" type="curve"/>
      <point x="76" y="433"/>
      <point x="76" y="67"/>
      <point x="76" y="-300" type="curve"/>
      <point x="180" y="-300"/>
      <point x="76" y="-300"/>
    </contour>
  </outline>
</glyph>
<glyph name="braceright" format="1">
  <advance width="291"/>
  <unicode hex="007D"/>
  <outline>
    <contour>
      <point x="49" y="-114" type="curve"/>
      <point x="146" y="-114"/>
      <point x="199" y="-45"/>
      <point x="199" y="56" type="curve"/>
      <point x="199" y="111"/>
      <point x="199" y="166"/>
      <point x="199" y="221" type="curve"/>
      <point x="199" y="265"/>
      <point x="212" y="298"/>
      <point x="254" y="298" type="curve"/>
      <point x="254" y="382"/>
      <point x="254" y="298"/>
      <point x="254" y="382" type="curve"/>
      <point x="157" y="382"/>
      <point x="104" y="313"/>
      <point x="104" y="213" type="curve"/>
      <point x="104" y="160"/>
      <point x="104" y="106"/>
      <point x="104" y="52" type="curve"/>
      <point x="104" y="4"/>
      <point x="94" y="-34"/>
      <point x="49" y="-34" type="curve"/>
      <point x="49" y="-114"/>
      <point x="49" y="-34"/>
    </contour>
    <contour>
      <point x="49" y="713" type="curve"/>
      <point x="94" y="713"/>
      <point x="104" y="675"/>
      <point x="104" y="626" type="curve"/>
      <point x="104" y="573"/>
      <point x="104" y="521"/>
      <point x="104" y="468" type="curve"/>
      <point x="104" y="367"/>
      <point x="156" y="298"/>
      <point x="254" y="298" type="curve"/>
      <point x="254" y="382"/>
      <point x="254" y="298"/>
      <point x="254" y="382" type="curve"/>
      <point x="213" y="382"/>
      <point x="199" y="413"/>
      <point x="199" y="456" type="curve"/>
      <point x="199" y="513"/>
      <point x="199" y="570"/>
      <point x="199" y="626" type="curve"/>
      <point x="199" y="727"/>
      <point x="146" y="793"/>
      <point x="49" y="793" type="curve"/>
      <point x="49" y="713"/>
      <point x="49" y="793"/>
    </contour>
  </outline>
</glyph>
<glyph name="asciitilde" format="1">
  <advance width="648"/>
  <unicode hex="007E"/>
  <outline>
    <contour>
      <point x="498" y="367" type="curve"/>
      <point x="484" y="326"/>
      <point x="469" y="285"/>
      <point x="432" y="285" type="curve"/>
      <point x="399" y="285"/>
      <point x="380" y="296"/>
      <point x="356" y="317" type="curve"/>
      <point x="313" y="355"/>
      <point x="281" y="376"/>
      <point x="223" y="376" type="curve"/>
      <point x="133" y="376"/>
      <point x="92" y="325"/>
      <point x="69" y="237" type="curve"/>
      <point x="105" y="224"/>
      <point x="114" y="220"/>
      <point x="149" y="208" type="curve"/>
      <point x="162" y="254"/>
      <point x="179" y="293"/>
      <point x="220" y="293" type="curve"/>
      <point x="250" y="293"/>
      <point x="267" y="282"/>
      <point x="289" y="263" type="curve"/>
      <point x="335" y="223"/>
      <point x="368" y="202"/>
      <point x="429" y="202" type="curve"/>
      <point x="517" y="202"/>
      <point x="551" y="256"/>
      <point x="579" y="339" type="curve"/>
      <point x="543" y="351"/>
      <point x="534" y="355"/>
    </contour>
  </outline>
</glyph>
<glyph name="cent" format="1">
  <advance width="618"/>
  <unicode hex="00A2"/>
  <outline>
    <contour>
      <point x="378" y="-53" type="curve"/>
      <point x="378" y="-13"/>
      <point x="378" y="27"/>
      <point x="378" y="67" type="curve"/>
      <point x="274" y="67"/>
      <point x="378" y="67"/>
      <point x="274" y="67" type="curve"/>
      <point x="274" y="27"/>
      <point x="274" y="-13"/>
      <point x="274" y="-53" type="curve"/>
      <point x="378" y="-53"/>
      <point x="274" y="-53"/>
    </contour>
    <contour>
      <point x="293" y="778" type="curve"/>
      <point x="293" y="742"/>
      <point x="293" y="706"/>
      <point x="293" y="670" type="curve"/>
      <point x="397" y="670"/>
      <point x="293" y="670"/>
      <point x="397" y="670" type="curve"/>
      <point x="397" y="706"/>
      <point x="397" y="742"/>
      <point x="397" y="778" type="curve"/>
      <point x="293" y="778"/>
      <point x="397" y="778"/>
    </contour>
    <contour>
      <point x="562" y="610" type="curve"/>
      <point x="494" y="664"/>
      <point x="436" y="684"/>
      <point x="352" y="684" type="curve"/>
      <point x="162" y="684"/>
      <point x="52" y="559"/>
      <point x="52" y="364" type="curve"/>
      <point x="52" y="178"/>
      <point x="143" y="48"/>
      <point x="321" y="48" type="curve"/>
      <point x="419" y="48"/>
      <point x="487" y="76"/>
      <point x="561" y="145" type="curve"/>
      <point x="500" y="207"/>
      <point x="561" y="145"/>
      <point x="500" y="207" type="curve"/>
      <point x="444" y="161"/>
      <point x="400" y="132"/>
      <point x="330" y="132" type="curve"/>
      <point x="209" y="132"/>
      <point x="155" y="233"/>
      <point x="155" y="368" type="curve"/>
      <point x="155" y="504"/>
      <point x="220" y="600"/>
      <point x="343" y="600" type="curve"/>
      <point x="408" y="600"/>
      <point x="452" y="582"/>
      <point x="507" y="543" type="curve"/>
      <point x="562" y="610"/>
      <point x="507" y="543"/>
    </contour>
    <contour>
      <point x="481" y="610" type="curve"/>
      <point x="481" y="488"/>
      <point x="481" y="595"/>
      <point x="481" y="473" type="curve"/>
      <point x="562" y="473"/>
      <point x="481" y="473"/>
      <point x="562" y="473" type="curve"/>
      <point x="562" y="595"/>
      <point x="562" y="488"/>
      <point x="562" y="610" type="curve"/>
      <point x="481" y="610"/>
      <point x="562" y="610"/>
    </contour>
  </outline>
</glyph>
<glyph name="sterling" format="1">
  <advance width="479"/>
  <unicode hex="00A3"/>
  <outline>
    <contour>
      <point x="410" y="80" type="curve"/>
      <point x="290" y="80"/>
      <point x="167" y="80"/>
      <point x="48" y="80" type="curve"/>
      <point x="48" y="0"/>
      <point x="48" y="80"/>
      <point x="48" y="0" type="curve"/>
      <point x="167" y="0"/>
      <point x="290" y="0"/>
      <point x="410" y="0" type="curve"/>
      <point x="410" y="80"/>
      <point x="410" y="0"/>
    </contour>
    <contour>
      <point x="364" y="416" type="curve"/>
      <point x="269" y="416"/>
      <point x="169" y="416"/>
      <point x="74" y="416" type="curve"/>
      <point x="74" y="336"/>
      <point x="74" y="416"/>
      <point x="74" y="336" type="curve"/>
      <point x="169" y="336"/>
      <point x="269" y="336"/>
      <point x="364" y="336" type="curve"/>
      <point x="364" y="416"/>
      <point x="364" y="336"/>
    </contour>
    <contour>
      <point x="435" y="666" type="curve"/>
      <point x="391" y="707"/>
      <point x="353" y="722"/>
      <point x="298" y="722" type="curve"/>
      <point x="135" y="722"/>
      <point x="91" y="560"/>
      <point x="130" y="367" type="curve"/>
      <point x="158" y="218"/>
      <point x="152" y="80"/>
      <point x="48" y="80" type="curve"/>
      <point x="48" y="0"/>
      <point x="48" y="80"/>
      <point x="48" y="0" type="curve"/>
      <point x="227" y="0"/>
      <point x="265" y="177"/>
      <point x="225" y="384" type="curve"/>
      <point x="199" y="519"/>
      <point x="205" y="645"/>
      <point x="293" y="645" type="curve"/>
      <point x="330" y="645"/>
      <point x="354" y="630"/>
      <point x="383" y="607" type="curve"/>
      <point x="435" y="666"/>
      <point x="383" y="607"/>
    </contour>
  </outline>
</glyph>
<glyph name="currency" format="1">
  <advance width="639"/>
  <unicode hex="00A4"/>
  <outline>
    <contour>
      <point x="237" y="315" type="curve"/>
      <point x="237" y="374"/>
      <point x="261" y="420"/>
      <point x="318" y="420" type="curve"/>
      <point x="376" y="420"/>
      <point x="400" y="377"/>
      <point x="400" y="315" type="curve"/>
      <point x="400" y="253"/>
      <point x="379" y="203"/>
      <point x="322" y="203" type="curve"/>
      <point x="261" y="203"/>
      <point x="237" y="250"/>
      <point x="237" y="315" type="curve"/>
      <point x="134" y="315"/>
      <point x="241" y="315"/>
      <point x="137" y="315" type="curve"/>
      <point x="137" y="198"/>
      <point x="206" y="124"/>
      <point x="321" y="124" type="curve"/>
      <point x="436" y="124"/>
      <point x="502" y="201"/>
      <point x="502" y="317" type="curve"/>
      <point x="502" y="428"/>
      <point x="436" y="500"/>
      <point x="327" y="500" type="curve"/>
      <point x="210" y="500"/>
      <point x="137" y="430"/>
      <point x="137" y="315" type="curve"/>
      <point x="241" y="315"/>
      <point x="134" y="315"/>
    </contour>
    <contour>
      <point x="425" y="360" type="line"/>
      <point x="579" y="503" type="line"/>
      <point x="502" y="580" type="line"/>
      <point x="359" y="426" type="line"/>
    </contour>
    <contour>
      <point x="362" y="204" type="line"/>
      <point x="505" y="50" type="line"/>
      <point x="582" y="127" type="line"/>
      <point x="428" y="271" type="line"/>
    </contour>
    <contour>
      <point x="210" y="271" type="line"/>
      <point x="56" y="127" type="line"/>
      <point x="133" y="50" type="line"/>
      <point x="277" y="204" type="line"/>
    </contour>
    <contour>
      <point x="282" y="427" type="line"/>
      <point x="138" y="581" type="line"/>
      <point x="61" y="504" type="line"/>
      <point x="215" y="361" type="line"/>
    </contour>
  </outline>
</glyph>
<glyph name="yen" format="1">
  <advance width="702"/>
  <unicode hex="00A5"/>
  <outline>
    <contour>
      <point x="545" y="408" type="curve"/>
      <point x="482" y="408"/>
      <point x="420" y="408"/>
      <point x="358" y="408" type="curve"/>
      <point x="358" y="320"/>
      <point x="358" y="408"/>
      <point x="358" y="320" type="curve"/>
      <point x="420" y="320"/>
      <point x="482" y="320"/>
      <point x="545" y="320" type="curve"/>
      <point x="545" y="408"/>
      <point x="545" y="320"/>
    </contour>
    <contour>
      <point x="332" y="408" type="curve"/>
      <point x="271" y="408"/>
      <point x="209" y="408"/>
      <point x="148" y="408" type="curve"/>
      <point x="148" y="320"/>
      <point x="148" y="408"/>
      <point x="148" y="320" type="curve"/>
      <point x="209" y="320"/>
      <point x="271" y="320"/>
      <point x="332" y="320" type="curve"/>
      <point x="332" y="408"/>
      <point x="332" y="320"/>
    </contour>
    <contour>
      <point x="545" y="269" type="curve"/>
      <point x="413" y="269"/>
      <point x="280" y="269"/>
      <point x="148" y="269" type="curve"/>
      <point x="148" y="181"/>
      <point x="148" y="269"/>
      <point x="148" y="181" type="curve"/>
      <point x="280" y="181"/>
      <point x="413" y="181"/>
      <point x="545" y="181" type="curve"/>
      <point x="545" y="269"/>
      <point x="545" y="181"/>
    </contour>
    <contour>
      <point x="344" y="80" type="curve"/>
      <point x="200" y="80"/>
      <point x="346" y="80"/>
      <point x="203" y="80" type="curve"/>
      <point x="203" y="0"/>
      <point x="203" y="80"/>
      <point x="203" y="0" type="curve"/>
      <point x="250" y="0"/>
      <point x="296" y="0"/>
      <point x="344" y="0" type="curve"/>
      <point x="344" y="80"/>
      <point x="344" y="0"/>
    </contour>
    <contour>
      <point x="344" y="0" type="curve"/>
      <point x="392" y="0"/>
      <point x="437" y="0"/>
      <point x="485" y="0" type="curve"/>
      <point x="485" y="80"/>
      <point x="485" y="0"/>
      <point x="485" y="80" type="curve"/>
      <point x="341" y="80"/>
      <point x="487" y="80"/>
      <point x="344" y="80" type="curve"/>
      <point x="344" y="0"/>
      <point x="344" y="80"/>
    </contour>
    <contour>
      <point x="533" y="722" type="curve"/>
      <point x="487" y="722"/>
      <point x="443" y="722"/>
      <point x="397" y="722" type="curve"/>
      <point x="397" y="642"/>
      <point x="397" y="722"/>
      <point x="397" y="642" type="curve"/>
      <point x="535" y="642"/>
      <point x="394" y="642"/>
      <point x="533" y="642" type="curve"/>
      <point x="533" y="722"/>
      <point x="533" y="642"/>
    </contour>
    <contour>
      <point x="156" y="722" type="curve"/>
      <point x="116" y="722"/>
      <point x="77" y="722"/>
      <point x="36" y="722" type="curve"/>
      <point x="36" y="642"/>
      <point x="36" y="722"/>
      <point x="36" y="642" type="curve"/>
      <point x="159" y="642"/>
      <point x="33" y="642"/>
      <point x="156" y="642" type="curve"/>
      <point x="156" y="722"/>
      <point x="156" y="642"/>
    </contour>
    <contour>
      <point x="166" y="642" type="curve"/>
      <point x="304" y="642"/>
      <point x="163" y="642"/>
      <point x="302" y="642" type="curve"/>
      <point x="302" y="722"/>
      <point x="302" y="642"/>
      <point x="302" y="722" type="curve"/>
      <point x="256" y="722"/>
      <point x="212" y="722"/>
      <point x="166" y="722" type="curve"/>
      <point x="166" y="642"/>
      <point x="166" y="722"/>
    </contour>
    <contour>
      <point x="542" y="642" type="curve"/>
      <point x="668" y="642"/>
      <point x="540" y="642"/>
      <point x="666" y="642" type="curve"/>
      <point x="666" y="722"/>
      <point x="666" y="642"/>
      <point x="666" y="722" type="curve"/>
      <point x="624" y="722"/>
      <point x="584" y="722"/>
      <point x="542" y="722" type="curve"/>
      <point x="542" y="642"/>
      <point x="542" y="722"/>
    </contour>
    <contour>
      <point x="88" y="715" type="curve"/>
      <point x="156" y="589"/>
      <point x="222" y="464"/>
      <point x="288" y="337" type="curve"/>
      <point x="394" y="337"/>
      <point x="278" y="337"/>
      <point x="383" y="337" type="curve"/>
      <point x="318" y="467"/>
      <point x="254" y="592"/>
      <point x="188" y="722" type="curve"/>
      <point x="88" y="722"/>
      <point x="188" y="715"/>
    </contour>
    <contour>
      <point x="511" y="722" type="curve"/>
      <point x="439" y="591"/>
      <point x="372" y="467"/>
      <point x="299" y="337" type="curve"/>
      <point x="405" y="337"/>
      <point x="294" y="337"/>
      <point x="399" y="337" type="curve"/>
      <point x="470" y="464"/>
      <point x="540" y="589"/>
      <point x="611" y="715" type="curve"/>
      <point x="511" y="715"/>
      <point x="611" y="722"/>
    </contour>
    <contour>
      <point x="400" y="0" type="curve"/>
      <point x="400" y="115"/>
      <point x="400" y="226"/>
      <point x="400" y="341" type="curve"/>
      <point x="287" y="341"/>
      <point x="400" y="341"/>
      <point x="287" y="341" type="curve"/>
      <point x="287" y="226"/>
      <point x="287" y="115"/>
      <point x="287" y="0" type="curve"/>
      <point x="400" y="0"/>
      <point x="287" y="0"/>
    </contour>
  </outline>
</glyph>
<glyph name="section" format="1">
  <advance width="505"/>
  <unicode hex="00A7"/>
  <outline>
    <contour>
      <point x="403" y="703" type="curve"/>
      <point x="352" y="734"/>
      <point x="314" y="749"/>
      <point x="257" y="749" type="curve"/>
      <point x="155" y="749"/>
      <point x="87" y="698"/>
      <point x="87" y="605" type="curve"/>
      <point x="87" y="522"/>
      <point x="138" y="476"/>
      <point x="218" y="446" type="curve"/>
      <point x="280" y="423"/>
      <point x="348" y="414"/>
      <point x="348" y="359" type="curve"/>
      <point x="348" y="305"/>
      <point x="312" y="275"/>
      <point x="254" y="263" type="curve"/>
      <point x="316" y="199"/>
      <point x="254" y="263"/>
      <point x="316" y="199" type="curve"/>
      <point x="402" y="221"/>
      <point x="451" y="274"/>
      <point x="451" y="361" type="curve"/>
      <point x="450" y="459"/>
      <point x="367" y="489"/>
      <point x="269" y="522" type="curve"/>
      <point x="224" y="538"/>
      <point x="187" y="560"/>
      <point x="187" y="605" type="curve"/>
      <point x="187" y="644"/>
      <point x="211" y="670"/>
      <point x="254" y="670" type="curve"/>
      <point x="296" y="670"/>
      <point x="320" y="658"/>
      <point x="356" y="638" type="curve"/>
      <point x="403" y="703"/>
      <point x="356" y="638"/>
    </contour>
    <contour>
      <point x="189" y="523" type="curve"/>
      <point x="108" y="496"/>
      <point x="57" y="450"/>
      <point x="57" y="366" type="curve"/>
      <point x="57" y="273"/>
      <point x="127" y="234"/>
      <point x="220" y="203" type="curve"/>
      <point x="272" y="184"/>
      <point x="324" y="170"/>
      <point x="324" y="121" type="curve"/>
      <point x="324" y="79"/>
      <point x="296" y="52"/>
      <point x="254" y="52" type="curve"/>
      <point x="207" y="52"/>
      <point x="179" y="68"/>
      <point x="138" y="95" type="curve"/>
      <point x="84" y="36"/>
      <point x="138" y="95"/>
      <point x="84" y="36" type="curve"/>
      <point x="138" y="-9"/>
      <point x="184" y="-27"/>
      <point x="252" y="-27" type="curve"/>
      <point x="353" y="-27"/>
      <point x="425" y="23"/>
      <point x="425" y="122" type="curve"/>
      <point x="424" y="206"/>
      <point x="368" y="251"/>
      <point x="286" y="279" type="curve"/>
      <point x="224" y="301"/>
      <point x="160" y="312"/>
      <point x="160" y="369" type="curve"/>
      <point x="160" y="419"/>
      <point x="191" y="446"/>
      <point x="241" y="463" type="curve"/>
      <point x="189" y="523"/>
      <point x="241" y="463"/>
    </contour>
    <contour>
      <point x="165" y="36" type="curve"/>
      <point x="165" y="156"/>
      <point x="165" y="35"/>
      <point x="165" y="155" type="curve"/>
      <point x="84" y="155"/>
      <point x="165" y="155"/>
      <point x="84" y="155" type="curve"/>
      <point x="84" y="35"/>
      <point x="84" y="156"/>
      <point x="84" y="36" type="curve"/>
      <point x="165" y="36"/>
      <point x="84" y="36"/>
    </contour>
    <contour>
      <point x="403" y="583" type="curve"/>
      <point x="403" y="703"/>
      <point x="403" y="583"/>
      <point x="403" y="703" type="curve"/>
      <point x="321" y="703"/>
      <point x="403" y="703"/>
      <point x="321" y="703" type="curve"/>
      <point x="321" y="583"/>
      <point x="321" y="703"/>
      <point x="321" y="583" type="curve"/>
      <point x="403" y="583"/>
      <point x="321" y="583"/>
    </contour>
  </outline>
</glyph>
<glyph name="dieresis" format="1">
  <advance width="383"/>
  <unicode hex="00A8"/>
  <outline>
    <contour>
      <point x="150" y="652" type="curve"/>
      <point x="150" y="688"/>
      <point x="125" y="705"/>
      <point x="91" y="705" type="curve"/>
      <point x="57" y="705"/>
      <point x="34" y="686"/>
      <point x="34" y="652" type="curve"/>
      <point x="147" y="652"/>
      <point x="37" y="652"/>
      <point x="150" y="652" type="curve"/>
      <point x="150" y="616"/>
      <point x="125" y="600"/>
      <point x="91" y="600" type="curve"/>
      <point x="56" y="600"/>
      <point x="34" y="618"/>
      <point x="34" y="652" type="curve"/>
      <point x="147" y="652"/>
      <point x="37" y="652"/>
    </contour>
    <contour>
      <point x="323" y="652" type="curve"/>
      <point x="323" y="688"/>
      <point x="298" y="705"/>
      <point x="264" y="705" type="curve"/>
      <point x="230" y="705"/>
      <point x="208" y="686"/>
      <point x="208" y="652" type="curve"/>
      <point x="320" y="652"/>
      <point x="210" y="652"/>
      <point x="323" y="652" type="curve"/>
      <point x="323" y="616"/>
      <point x="298" y="600"/>
      <point x="264" y="600" type="curve"/>
      <point x="229" y="600"/>
      <point x="208" y="618"/>
      <point x="208" y="652" type="curve"/>
      <point x="320" y="652"/>
      <point x="210" y="652"/>
    </contour>
    <contour>
      <point x="178" y="604" type="move" name="_top"/>
    </contour>
  </outline>
</glyph>
<glyph name="guillemotleft" format="1">
  <advance width="542"/>
  <unicode hex="00AB"/>
  <outline>
    <contour>
      <point x="253" y="456" type="curve"/>
      <point x="221" y="433"/>
      <point x="89" y="354"/>
      <point x="56" y="332" type="curve"/>
      <point x="56" y="244"/>
      <point x="56" y="323"/>
      <point x="56" y="234" type="curve"/>
      <point x="89" y="257"/>
      <point x="221" y="341"/>
      <point x="253" y="364" type="curve"/>
      <point x="253" y="451"/>
      <point x="253" y="368"/>
    </contour>
    <contour>
      <point x="254" y="205" type="curve"/>
      <point x="221" y="227"/>
      <point x="89" y="310"/>
      <point x="56" y="332" type="curve"/>
      <point x="56" y="244"/>
      <point x="56" y="323"/>
      <point x="56" y="234" type="curve"/>
      <point x="89" y="212"/>
      <point x="221" y="135"/>
      <point x="254" y="113" type="curve"/>
      <point x="254" y="200"/>
      <point x="254" y="117"/>
    </contour>
    <contour>
      <point x="462" y="456" type="curve"/>
      <point x="430" y="433"/>
      <point x="298" y="354"/>
      <point x="265" y="332" type="curve"/>
      <point x="265" y="244"/>
      <point x="265" y="323"/>
      <point x="265" y="234" type="curve"/>
      <point x="298" y="257"/>
      <point x="430" y="341"/>
      <point x="462" y="364" type="curve"/>
      <point x="462" y="451"/>
      <point x="462" y="368"/>
    </contour>
    <contour>
      <point x="463" y="205" type="curve"/>
      <point x="430" y="227"/>
      <point x="298" y="310"/>
      <point x="265" y="332" type="curve"/>
      <point x="265" y="244"/>
      <point x="265" y="323"/>
      <point x="265" y="234" type="curve"/>
      <point x="298" y="212"/>
      <point x="430" y="135"/>
      <point x="463" y="113" type="curve"/>
      <point x="463" y="200"/>
      <point x="463" y="117"/>
    </contour>
  </outline>
</glyph>
<glyph name="logicalnot" format="1">
  <advance width="624"/>
  <unicode hex="00AC"/>
  <outline>
    <contour>
      <point x="86" y="269" type="curve"/>
      <point x="548" y="269" type="line"/>
      <point x="548" y="357"/>
      <point x="548" y="269"/>
      <point x="548" y="357" type="curve"/>
      <point x="86" y="357" type="line"/>
      <point x="86" y="269"/>
      <point x="86" y="357"/>
    </contour>
    <contour>
      <point x="548" y="144" type="curve"/>
      <point x="548" y="357" type="line"/>
      <point x="445" y="357"/>
      <point x="551" y="357"/>
      <point x="447" y="357" type="curve"/>
      <point x="447" y="144" type="line"/>
      <point x="551" y="144"/>
      <point x="445" y="144"/>
    </contour>
  </outline>
</glyph>
<glyph name="registered" format="1">
  <advance width="747"/>
  <unicode hex="00AE"/>
  <outline>
    <contour>
      <point x="132" y="321" type="curve"/>
      <point x="132" y="480"/>
      <point x="222" y="585"/>
      <point x="377" y="585" type="curve"/>
      <point x="529" y="585"/>
      <point x="616" y="478"/>
      <point x="616" y="320" type="curve"/>
      <point x="616" y="166"/>
      <point x="532" y="60"/>
      <point x="383" y="60" type="curve"/>
      <point x="227" y="60"/>
      <point x="132" y="162"/>
      <point x="132" y="321" type="curve"/>
      <point x="99" y="321"/>
      <point x="91" y="321"/>
      <point x="58" y="321" type="curve"/>
      <point x="58" y="125"/>
      <point x="183" y="1"/>
      <point x="380" y="1" type="curve"/>
      <point x="573" y="1"/>
      <point x="689" y="128"/>
      <point x="689" y="323" type="curve"/>
      <point x="689" y="519"/>
      <point x="570" y="644"/>
      <point x="377" y="644" type="curve"/>
      <point x="180" y="644"/>
      <point x="58" y="519"/>
      <point x="58" y="321" type="curve"/>
      <point x="91" y="321"/>
      <point x="99" y="321"/>
    </contour>
    <contour>
      <point x="451" y="144" type="curve"/>
      <point x="482" y="144"/>
      <point x="497" y="144"/>
      <point x="529" y="144" type="curve"/>
      <point x="529" y="209"/>
      <point x="529" y="144"/>
      <point x="529" y="209" type="curve"/>
      <point x="517" y="209"/>
      <point x="512" y="209"/>
      <point x="501" y="209" type="curve"/>
      <point x="458" y="198"/>
      <point x="474" y="221"/>
    </contour>
    <contour>
      <point x="351" y="503" type="curve"/>
      <point x="311" y="503"/>
      <point x="274" y="503"/>
      <point x="234" y="503" type="curve"/>
      <point x="234" y="437"/>
      <point x="234" y="503"/>
      <point x="234" y="437" type="curve"/>
      <point x="245" y="437"/>
      <point x="255" y="437"/>
      <point x="266" y="437" type="curve"/>
      <point x="351" y="503"/>
      <point x="266" y="437"/>
    </contour>
    <contour>
      <point x="351" y="209" type="curve"/>
      <point x="311" y="209"/>
      <point x="274" y="209"/>
      <point x="234" y="209" type="curve"/>
      <point x="234" y="144"/>
      <point x="234" y="209"/>
      <point x="234" y="144" type="curve"/>
      <point x="245" y="144"/>
      <point x="255" y="144"/>
      <point x="266" y="144" type="curve"/>
      <point x="351" y="209"/>
      <point x="266" y="144"/>
    </contour>
    <contour>
      <point x="266" y="144" type="curve"/>
      <point x="304" y="144"/>
      <point x="337" y="144"/>
      <point x="374" y="144" type="curve"/>
      <point x="374" y="209"/>
      <point x="374" y="144"/>
      <point x="374" y="209" type="curve"/>
      <point x="366" y="209"/>
      <point x="360" y="209"/>
      <point x="351" y="209" type="curve"/>
      <point x="266" y="144"/>
      <point x="351" y="209"/>
    </contour>
    <contour>
      <point x="356" y="316" type="curve"/>
      <point x="373" y="287"/>
      <point x="434" y="172"/>
      <point x="451" y="144" type="curve"/>
      <point x="504" y="182"/>
      <point x="476" y="158"/>
      <point x="501" y="209" type="curve"/>
      <point x="441" y="312" type="line"/>
      <point x="338" y="312"/>
      <point x="459" y="316"/>
    </contour>
    <contour>
      <point x="345" y="209" type="curve"/>
      <point x="345" y="307"/>
      <point x="345" y="405"/>
      <point x="345" y="503" type="curve"/>
      <point x="261" y="437"/>
      <point x="351" y="503"/>
      <point x="266" y="437" type="curve"/>
      <point x="266" y="339"/>
      <point x="266" y="241"/>
      <point x="266" y="144" type="curve"/>
      <point x="351" y="209"/>
      <point x="261" y="144"/>
    </contour>
    <contour>
      <point x="311" y="278" type="curve"/>
      <point x="327" y="278"/>
      <point x="345" y="278"/>
      <point x="362" y="278" type="curve"/>
      <point x="444" y="278"/>
      <point x="500" y="311"/>
      <point x="500" y="392" type="curve"/>
      <point x="500" y="463"/>
      <point x="451" y="503"/>
      <point x="380" y="503" type="curve"/>
      <point x="370" y="503"/>
      <point x="360" y="503"/>
      <point x="351" y="503" type="curve"/>
      <point x="266" y="437"/>
      <point x="351" y="503"/>
      <point x="266" y="437" type="curve"/>
      <point x="299" y="437"/>
      <point x="332" y="437"/>
      <point x="364" y="437" type="curve"/>
      <point x="398" y="437"/>
      <point x="422" y="422"/>
      <point x="422" y="389" type="curve"/>
      <point x="422" y="358"/>
      <point x="404" y="343"/>
      <point x="374" y="343" type="curve"/>
      <point x="353" y="343"/>
      <point x="331" y="343"/>
      <point x="311" y="343" type="curve"/>
      <point x="311" y="278"/>
      <point x="311" y="343"/>
    </contour>
  </outline>
</glyph>
<glyph name="degree" format="1">
  <advance width="468"/>
  <unicode hex="00B0"/>
  <outline>
    <contour>
      <point x="408" y="532" type="curve"/>
      <point x="408" y="646"/>
      <point x="345" y="722"/>
      <point x="233" y="722" type="curve"/>
      <point x="122" y="722"/>
      <point x="60" y="647"/>
      <point x="60" y="533" type="curve"/>
      <point x="113" y="533"/>
      <point x="94" y="533"/>
      <point x="147" y="533" type="curve"/>
      <point x="147" y="598"/>
      <point x="170" y="647"/>
      <point x="231" y="647" type="curve"/>
      <point x="292" y="647"/>
      <point x="318" y="598"/>
      <point x="318" y="532" type="curve"/>
      <point x="318" y="464"/>
      <point x="296" y="413"/>
      <point x="234" y="413" type="curve"/>
      <point x="171" y="413"/>
      <point x="147" y="465"/>
      <point x="147" y="533" type="curve"/>
      <point x="94" y="533"/>
      <point x="113" y="533"/>
      <point x="60" y="533" type="curve"/>
      <point x="60" y="416"/>
      <point x="120" y="338"/>
      <point x="233" y="338" type="curve"/>
      <point x="346" y="338"/>
      <point x="408" y="416"/>
    </contour>
  </outline>
</glyph>
<glyph name="plusminus" format="1">
  <advance width="668"/>
  <unicode hex="00B1"/>
  <outline>
    <contour>
      <point x="63" y="36" type="line"/>
      <point x="605" y="36" type="line"/>
      <point x="605" y="124" type="line"/>
      <point x="63" y="124" type="line"/>
    </contour>
    <contour>
      <point x="63" y="269" type="curve"/>
      <point x="605" y="269" type="line"/>
      <point x="605" y="357"/>
      <point x="605" y="269"/>
      <point x="605" y="357" type="curve"/>
      <point x="63" y="357" type="line"/>
      <point x="63" y="269"/>
      <point x="63" y="357"/>
    </contour>
    <contour>
      <point x="383" y="37" type="curve"/>
      <point x="383" y="583" type="line"/>
      <point x="279" y="583"/>
      <point x="389" y="583"/>
      <point x="286" y="583" type="curve"/>
      <point x="286" y="37" type="line"/>
      <point x="389" y="37"/>
      <point x="279" y="37"/>
    </contour>
  </outline>
</glyph>
<glyph name="twosuperior" format="1">
  <advance width="457"/>
  <unicode hex="00B2"/>
  <outline>
    <contour>
      <point x="395" y="333" type="curve"/>
      <point x="395" y="376"/>
      <point x="395" y="412"/>
      <point x="395" y="456" type="curve"/>
      <point x="319" y="456"/>
      <point x="405" y="456"/>
      <point x="328" y="456" type="curve"/>
      <point x="328" y="435"/>
      <point x="328" y="422"/>
      <point x="328" y="402" type="curve"/>
      <point x="407" y="335"/>
      <point x="317" y="399"/>
    </contour>
    <contour>
      <point x="68" y="333" type="curve"/>
      <point x="184" y="333"/>
      <point x="299" y="333"/>
      <point x="395" y="333" type="curve"/>
      <point x="317" y="399"/>
      <point x="407" y="335"/>
      <point x="328" y="402" type="curve"/>
      <point x="245" y="402"/>
      <point x="151" y="402"/>
      <point x="68" y="402" type="curve"/>
      <point x="68" y="333"/>
      <point x="68" y="402"/>
    </contour>
    <contour>
      <point x="150" y="633" type="curve"/>
      <point x="168" y="668"/>
      <point x="188" y="693"/>
      <point x="227" y="693" type="curve"/>
      <point x="267" y="693"/>
      <point x="290" y="667"/>
      <point x="290" y="627" type="curve"/>
      <point x="290" y="586"/>
      <point x="264" y="565"/>
      <point x="235" y="538" type="curve"/>
      <point x="180" y="492"/>
      <point x="124" y="447"/>
      <point x="68" y="402" type="curve"/>
      <point x="72" y="333"/>
      <point x="69" y="402"/>
      <point x="73" y="333" type="curve"/>
      <point x="148" y="386"/>
      <point x="229" y="434"/>
      <point x="289" y="483" type="curve"/>
      <point x="338" y="529"/>
      <point x="377" y="563"/>
      <point x="377" y="630" type="curve"/>
      <point x="377" y="715"/>
      <point x="319" y="762"/>
      <point x="233" y="762" type="curve"/>
      <point x="163" y="762"/>
      <point x="113" y="735"/>
      <point x="86" y="663" type="curve"/>
      <point x="150" y="633"/>
      <point x="86" y="663"/>
    </contour>
    <contour>
      <point x="237" y="762" type="move" name="_top"/>
    </contour>
    <contour>
      <point x="227" y="332" type="move" name="_bottom"/>
    </contour>
  </outline>
</glyph>
<glyph name="threesuperior" format="1">
  <advance width="412"/>
  <unicode hex="00B3"/>
  <outline>
    <contour>
      <point x="112" y="656" type="curve"/>
      <point x="133" y="676"/>
      <point x="156" y="691"/>
      <point x="183" y="691" type="curve"/>
      <point x="221" y="691"/>
      <point x="247" y="672"/>
      <point x="247" y="635" type="curve"/>
      <point x="247" y="592"/>
      <point x="197" y="579"/>
      <point x="146" y="576" type="curve"/>
      <point x="146" y="517"/>
      <point x="146" y="576"/>
      <point x="146" y="517" type="curve"/>
      <point x="250" y="520"/>
      <point x="337" y="549"/>
      <point x="337" y="641" type="curve"/>
      <point x="337" y="722"/>
      <point x="277" y="760"/>
      <point x="192" y="760" type="curve" name=""/>
      <point x="141" y="760"/>
      <point x="95" y="738"/>
      <point x="64" y="702" type="curve"/>
      <point x="112" y="656"/>
      <point x="64" y="702"/>
    </contour>
    <contour>
      <point x="61" y="362" type="curve"/>
      <point x="97" y="339"/>
      <point x="133" y="326"/>
      <point x="175" y="326" type="curve"/>
      <point x="278" y="324"/>
      <point x="352" y="361"/>
      <point x="351" y="455" type="curve"/>
      <point x="351" y="551"/>
      <point x="254" y="564"/>
      <point x="146" y="568" type="curve"/>
      <point x="146" y="516"/>
      <point x="146" y="568"/>
      <point x="146" y="516" type="curve"/>
      <point x="208" y="513"/>
      <point x="260" y="499"/>
      <point x="260" y="452" type="curve"/>
      <point x="260" y="412"/>
      <point x="228" y="392"/>
      <point x="184" y="393" type="curve"/>
      <point x="156" y="393"/>
      <point x="130" y="400"/>
      <point x="103" y="415" type="curve"/>
      <point x="61" y="362"/>
      <point x="103" y="415"/>
    </contour>
    <contour>
      <point x="205" y="760" type="move" name="_top"/>
    </contour>
    <contour>
      <point x="197" y="326" type="move" name="_bottom"/>
    </contour>
  </outline>
</glyph>
<glyph name="paragraph" format="1">
  <advance width="740"/>
  <unicode hex="00B6"/>
  <outline>
    <contour>
      <point x="413" y="642" type="curve"/>
      <point x="564" y="642"/>
      <point x="413" y="642"/>
      <point x="564" y="642" type="curve"/>
      <point x="564" y="722"/>
      <point x="564" y="642"/>
      <point x="564" y="722" type="curve"/>
      <point x="513" y="722"/>
      <point x="463" y="722"/>
      <point x="413" y="722" type="curve"/>
      <point x="413" y="642"/>
      <point x="413" y="722"/>
    </contour>
    <contour>
      <point x="413" y="0" type="curve"/>
      <point x="463" y="0"/>
      <point x="513" y="0"/>
      <point x="564" y="0" type="curve"/>
      <point x="564" y="80"/>
      <point x="564" y="0"/>
      <point x="564" y="80" type="curve"/>
      <point x="413" y="80"/>
      <point x="564" y="80"/>
      <point x="413" y="80" type="curve"/>
      <point x="413" y="0"/>
      <point x="413" y="80"/>
    </contour>
    <contour>
      <point x="413" y="80" type="curve"/>
      <point x="269" y="80"/>
      <point x="413" y="80"/>
      <point x="269" y="80" type="curve"/>
      <point x="269" y="0"/>
      <point x="269" y="80"/>
      <point x="269" y="0" type="curve"/>
      <point x="413" y="0"/>
      <point x="365" y="0"/>
      <point x="413" y="0" type="curve"/>
      <point x="413" y="80"/>
      <point x="413" y="0"/>
    </contour>
    <contour>
      <point x="395" y="374" type="curve"/>
      <point x="352" y="352"/>
      <point x="319" y="338"/>
      <point x="270" y="338" type="curve"/>
      <point x="188" y="338"/>
      <point x="143" y="395"/>
      <point x="143" y="480" type="curve"/>
      <point x="143" y="580"/>
      <point x="205" y="642"/>
      <point x="304" y="642" type="curve"/>
      <point x="340" y="642"/>
      <point x="375" y="642"/>
      <point x="410" y="642" type="curve"/>
      <point x="410" y="722"/>
      <point x="410" y="642"/>
      <point x="410" y="722" type="curve"/>
      <point x="370" y="722"/>
      <point x="330" y="722"/>
      <point x="291" y="722" type="curve"/>
      <point x="140" y="722"/>
      <point x="40" y="632"/>
      <point x="40" y="484" type="curve"/>
      <point x="40" y="342"/>
      <point x="135" y="263"/>
      <point x="279" y="260" type="curve"/>
      <point x="334" y="260"/>
      <point x="380" y="280"/>
      <point x="427" y="306" type="curve"/>
      <point x="395" y="374"/>
      <point x="427" y="308"/>
    </contour>
    <contour>
      <point x="465" y="0" type="curve"/>
      <point x="465" y="241"/>
      <point x="465" y="481"/>
      <point x="465" y="722" type="curve"/>
      <point x="362" y="722"/>
      <point x="465" y="722"/>
      <point x="362" y="722" type="curve"/>
      <point x="362" y="481"/>
      <point x="362" y="241"/>
      <point x="362" y="0" type="curve"/>
      <point x="465" y="0"/>
      <point x="362" y="0"/>
    </contour>
    <contour>
      <point x="659" y="0" type="curve"/>
      <point x="659" y="241"/>
      <point x="659" y="481"/>
      <point x="659" y="722" type="curve"/>
      <point x="555" y="722"/>
      <point x="659" y="722"/>
      <point x="555" y="722" type="curve"/>
      <point x="555" y="481"/>
      <point x="555" y="241"/>
      <point x="555" y="0" type="curve"/>
      <point x="659" y="0"/>
      <point x="555" y="0"/>
    </contour>
  </outline>
</glyph>
<glyph name="periodcentered" format="1">
  <advance width="246"/>
  <unicode hex="00B7"/>
  <outline>
    <contour>
      <point x="180" y="440" type="curve"/>
      <point x="180" y="476"/>
      <point x="156" y="493"/>
      <point x="122" y="493" type="curve"/>
      <point x="88" y="493"/>
      <point x="65" y="474"/>
      <point x="65" y="440" type="curve"/>
      <point x="178" y="440"/>
      <point x="68" y="440"/>
      <point x="180" y="440" type="curve"/>
      <point x="180" y="404"/>
      <point x="157" y="387"/>
      <point x="122" y="387" type="curve"/>
      <point x="88" y="387"/>
      <point x="65" y="405"/>
      <point x="65" y="440" type="curve"/>
      <point x="178" y="440"/>
      <point x="68" y="440"/>
    </contour>
  </outline>
</glyph>
<glyph name="cedilla" format="1">
  <advance width="359"/>
  <unicode hex="00B8"/>
  <outline>
    <contour>
      <point x="135" y="116" type="curve"/>
      <point x="123" y="93"/>
      <point x="85" y="20"/>
      <point x="73" y="-4" type="curve"/>
      <point x="144" y="-68"/>
      <point x="73" y="-4"/>
      <point x="144" y="-68" type="curve"/>
      <point x="158" y="-41"/>
      <point x="201" y="34"/>
      <point x="215" y="60" type="curve"/>
      <point x="135" y="116"/>
      <point x="215" y="60"/>
    </contour>
    <contour>
      <point x="144" y="-68" type="curve"/>
      <point x="152" y="-62"/>
      <point x="158" y="-59"/>
      <point x="167" y="-59" type="curve"/>
      <point x="183" y="-59"/>
      <point x="191" y="-69"/>
      <point x="191" y="-86" type="curve"/>
      <point x="191" y="-107"/>
      <point x="175" y="-116"/>
      <point x="153" y="-116" type="curve"/>
      <point x="132" y="-116"/>
      <point x="115" y="-112"/>
      <point x="94" y="-100" type="curve"/>
      <point x="57" y="-159"/>
      <point x="94" y="-100"/>
      <point x="57" y="-159" type="curve"/>
      <point x="87" y="-177"/>
      <point x="113" y="-185"/>
      <point x="149" y="-185" type="curve"/>
      <point x="217" y="-185"/>
      <point x="266" y="-152"/>
      <point x="266" y="-84" type="curve"/>
      <point x="266" y="-21"/>
      <point x="225" y="18"/>
      <point x="162" y="18" type="curve"/>
      <point x="128" y="18"/>
      <point x="104" y="12"/>
      <point x="73" y="-4" type="curve"/>
      <point x="144" y="-68"/>
      <point x="73" y="-4"/>
    </contour>
    <contour>
      <point x="206" y="60" type="move" name="_bottom"/>
    </contour>
  </outline>
</glyph>
<glyph name="onesuperior" format="1">
  <advance width="364"/>
  <unicode hex="00B9"/>
  <outline>
    <contour>
      <point x="161" y="333" type="curve"/>
      <point x="208" y="333"/>
      <point x="257" y="333"/>
      <point x="304" y="333" type="curve"/>
      <point x="304" y="403"/>
      <point x="304" y="331"/>
      <point x="304" y="401" type="curve"/>
      <point x="287" y="401"/>
      <point x="268" y="401"/>
      <point x="250" y="401" type="curve"/>
      <point x="161" y="331"/>
      <point x="250" y="403"/>
    </contour>
    <contour>
      <point x="251" y="401" type="curve"/>
      <point x="203" y="401"/>
      <point x="153" y="401"/>
      <point x="104" y="401" type="curve"/>
      <point x="104" y="331"/>
      <point x="104" y="403"/>
      <point x="104" y="333" type="curve"/>
      <point x="123" y="333"/>
      <point x="142" y="333"/>
      <point x="161" y="333" type="curve"/>
      <point x="251" y="403"/>
      <point x="161" y="331"/>
    </contour>
    <contour>
      <point x="100" y="603" type="line"/>
      <point x="250" y="749" type="line"/>
      <point x="161" y="753" type="line"/>
      <point x="52" y="654" type="line"/>
    </contour>
    <contour>
      <point x="251" y="401" type="curve"/>
      <point x="251" y="753" type="line"/>
      <point x="161" y="753" type="line"/>
      <point x="161" y="333" type="line"/>
      <point x="251" y="403"/>
      <point x="161" y="331"/>
    </contour>
    <contour>
      <point x="198" y="752" type="move" name="_top"/>
    </contour>
    <contour>
      <point x="206" y="334" type="move" name="_bottom"/>
    </contour>
  </outline>
</glyph>
<glyph name="ordmasculine" format="1">
  <advance width="421"/>
  <unicode hex="00BA"/>
  <outline>
    <contour>
      <point x="122" y="599" type="curve"/>
      <point x="122" y="664"/>
      <point x="146" y="715"/>
      <point x="208" y="715" type="curve"/>
      <point x="271" y="715"/>
      <point x="296" y="665"/>
      <point x="296" y="598" type="curve"/>
      <point x="296" y="529"/>
      <point x="272" y="478"/>
      <point x="214" y="478" type="curve"/>
      <point x="146" y="478"/>
      <point x="122" y="529"/>
      <point x="122" y="599" type="curve"/>
      <point x="96" y="599"/>
      <point x="80" y="599"/>
      <point x="54" y="599" type="curve"/>
      <point x="54" y="491"/>
      <point x="108" y="421"/>
      <point x="211" y="421" type="curve"/>
      <point x="312" y="421"/>
      <point x="367" y="490"/>
      <point x="367" y="598" type="curve"/>
      <point x="367" y="703"/>
      <point x="313" y="771"/>
      <point x="212" y="771" type="curve"/>
      <point x="108" y="771"/>
      <point x="54" y="703"/>
      <point x="54" y="599" type="curve"/>
      <point x="80" y="599"/>
      <point x="96" y="599"/>
    </contour>
  </outline>
</glyph>
<glyph name="guillemotright" format="1">
  <advance width="542"/>
  <unicode hex="00BB"/>
  <outline>
    <contour>
      <point x="288" y="456" type="curve"/>
      <point x="321" y="433"/>
      <point x="452" y="354"/>
      <point x="485" y="332" type="curve"/>
      <point x="485" y="244"/>
      <point x="485" y="323"/>
      <point x="485" y="234" type="curve"/>
      <point x="452" y="257"/>
      <point x="321" y="341"/>
      <point x="288" y="364" type="curve"/>
      <point x="288" y="451"/>
      <point x="288" y="368"/>
    </contour>
    <contour>
      <point x="288" y="205" type="curve"/>
      <point x="320" y="227"/>
      <point x="452" y="310"/>
      <point x="485" y="332" type="curve"/>
      <point x="485" y="244"/>
      <point x="485" y="323"/>
      <point x="485" y="234" type="curve"/>
      <point x="452" y="212"/>
      <point x="320" y="135"/>
      <point x="288" y="113" type="curve"/>
      <point x="288" y="200"/>
      <point x="288" y="117"/>
    </contour>
    <contour>
      <point x="79" y="456" type="curve"/>
      <point x="112" y="433"/>
      <point x="243" y="354"/>
      <point x="276" y="332" type="curve"/>
      <point x="276" y="244"/>
      <point x="276" y="323"/>
      <point x="276" y="234" type="curve"/>
      <point x="243" y="257"/>
      <point x="112" y="341"/>
      <point x="79" y="364" type="curve"/>
      <point x="79" y="451"/>
      <point x="79" y="368"/>
    </contour>
    <contour>
      <point x="79" y="205" type="curve"/>
      <point x="111" y="227"/>
      <point x="243" y="310"/>
      <point x="276" y="332" type="curve"/>
      <point x="276" y="244"/>
      <point x="276" y="323"/>
      <point x="276" y="234" type="curve"/>
      <point x="243" y="212"/>
      <point x="111" y="135"/>
      <point x="79" y="113" type="curve"/>
      <point x="79" y="200"/>
      <point x="79" y="117"/>
    </contour>
  </outline>
</glyph>
<glyph name="onequarter" format="1">
  <advance width="911"/>
  <unicode hex="00BC"/>
  <outline>
    <contour>
      <point x="318" y="-55" type="line"/>
      <point x="696" y="724" type="line"/>
      <point x="600" y="724" type="line"/>
      <point x="222" y="-55" type="line"/>
    </contour>
    <contour>
      <point x="145" y="305" type="curve"/>
      <point x="192" y="305"/>
      <point x="241" y="305"/>
      <point x="289" y="305" type="curve"/>
      <point x="289" y="375"/>
      <point x="289" y="304"/>
      <point x="289" y="374" type="curve"/>
      <point x="271" y="374"/>
      <point x="252" y="374"/>
      <point x="235" y="374" type="curve"/>
      <point x="145" y="304"/>
      <point x="235" y="375"/>
    </contour>
    <contour>
      <point x="235" y="374" type="curve"/>
      <point x="187" y="374"/>
      <point x="137" y="374"/>
      <point x="88" y="374" type="curve"/>
      <point x="88" y="304"/>
      <point x="88" y="375"/>
      <point x="88" y="305" type="curve"/>
      <point x="107" y="305"/>
      <point x="126" y="305"/>
      <point x="145" y="305" type="curve"/>
      <point x="235" y="375"/>
      <point x="145" y="304"/>
    </contour>
    <contour>
      <point x="84" y="575" type="line"/>
      <point x="234" y="722" type="line"/>
      <point x="145" y="725" type="line"/>
      <point x="37" y="626" type="line"/>
    </contour>
    <contour>
      <point x="235" y="374" type="curve"/>
      <point x="235" y="725" type="line"/>
      <point x="145" y="725" type="line"/>
      <point x="145" y="305" type="line"/>
      <point x="235" y="375"/>
      <point x="145" y="304"/>
    </contour>
    <contour>
      <point x="876" y="130" type="line"/>
      <point x="528" y="130" type="line"/>
      <point x="528" y="63" type="line"/>
      <point x="876" y="63" type="line"/>
    </contour>
    <contour>
      <point x="558" y="68" type="line"/>
      <point x="778" y="369" type="line"/>
      <point x="711" y="383" type="line"/>
      <point x="528" y="130" type="line"/>
    </contour>
    <contour>
      <point x="801" y="-54" type="line"/>
      <point x="801" y="383" type="line"/>
      <point x="711" y="383" type="line"/>
      <point x="711" y="-54" type="line"/>
    </contour>
    <contour>
      <point x="756" y="8" type="line"/>
      <point x="654" y="8" type="line"/>
      <point x="654" y="-54" type="line"/>
      <point x="756" y="-54" type="line"/>
    </contour>
    <contour>
      <point x="756" y="-54" type="line"/>
      <point x="856" y="-54" type="line"/>
      <point x="856" y="8" type="line"/>
      <point x="756" y="8" type="line"/>
    </contour>
  </outline>
</glyph>
